<svg xmlns="http://www.w3.org/2000/svg" viewBox="0 0 675 450"><path fill="#cad5f8" d="M515.54,202.07c-6.25-23-23.54-42.3-44.83-52.37-12.15-5.76-26.67-9.65-33.37-21.46-6.13-10.84-3.36-24.56-6.5-36.66-3.52-13.61-14.91-24.51-28.2-28.44s-28.09-1.2-39.88,6.17c-24.5,15.32-36.32,48.62-63.6,57.87-16.89,5.71-30.69,10.85-48.52,8.56-15.89-2-30.32-11.8-46.65-11-18.19.92-33.63,16.18-39,33.88s-2.12,37.08,4.66,54.27c21,53,77,94,133.8,75.18,17-5.63,33.13-14.38,50.8-17.14,48.31-7.55,104.61,41.61,145.75-2.22C516.23,251.46,521.78,225.09,515.54,202.07Zm-64,38.21a28,28,0,1,1,25.91-29.89A28,28,0,0,1,451.56,240.28Z" opacity=".54"/><path fill="#f0f4ff" d="M555.52,382l-29.17-20.75c-14.56-10.36-30-21-46.53-20.68-14.26.28-27.84,8.85-38.94,20.53S420.82,387.51,412,402.08l160.45-3.7C569.36,389.26,562.21,386.81,555.52,382Z"/><path fill="#f0f4ff" d="M338.86,369.69c-13.58-4.65-27.82.88-41.79,2.77-29.73,4-59.64-8.84-85.32-28.77-12.25-9.51-25-21.08-39.21-19.75-8.79.82-16.84,6.6-24.13,13.06-17.65,15.68-32.7,36.32-43.82,60.1l267.89,1.78C362.86,385.45,352.49,374.36,338.86,369.69Z"/><path fill="#a0bd51" d="M165.59,388.67s-17.66,6.9-30-4.44a5.65,5.65,0,0,1,4-9.74c4.74.1,11.06,1.72,18.61,7.08C158.22,381.57,161.53,386.73,165.59,388.67Z"/><path fill="#ffc557" d="M143.43,175.33l2.72,6.7a3.47,3.47,0,0,0,1.21,1.52l5.91,4.17a3.47,3.47,0,0,1-.69,6.05l-6.7,2.72a3.47,3.47,0,0,0-1.52,1.21l-4.17,5.91a3.46,3.46,0,0,1-6-.69l-2.73-6.7a3.47,3.47,0,0,0-1.21-1.52l-5.91-4.17a3.47,3.47,0,0,1,.69-6.05l6.7-2.72a3.55,3.55,0,0,0,1.53-1.21l4.16-5.91A3.47,3.47,0,0,1,143.43,175.33Z"/><path fill="#ffc557" d="M446.7,310.16l3.64,5.32a3,3,0,0,0,1.35,1.1l5.93,2.52a3.09,3.09,0,0,1,.54,5.4l-5.32,3.64a3.06,3.06,0,0,0-1.1,1.34l-2.51,5.94a3.09,3.09,0,0,1-5.4.54l-3.65-5.32a3.06,3.06,0,0,0-1.34-1.1L432.9,327a3.09,3.09,0,0,1-.54-5.4l5.32-3.65a3.06,3.06,0,0,0,1.1-1.34l2.52-5.94A3.09,3.09,0,0,1,446.7,310.16Z"/><path fill="#ffc557" d="M480.43,302.21l.73,4.49a2.18,2.18,0,0,0,.53,1.1l3,3.39a2.18,2.18,0,0,1-1.28,3.61l-4.49.73a2.21,2.21,0,0,0-1.11.53l-3.39,3a2.19,2.19,0,0,1-3.61-1.28l-.73-4.49a2.2,2.2,0,0,0-.52-1.11l-3-3.38a2.19,2.19,0,0,1,1.27-3.62l4.5-.72a2.18,2.18,0,0,0,1.1-.53l3.39-3A2.18,2.18,0,0,1,480.43,302.21Z"/><circle cx="408.74" cy="151.8" r="26.19" fill="#ffc557" transform="rotate(-23.05 408.675 151.806)"/><circle cx="408.74" cy="151.8" r="19.73" fill="#ffad12" transform="rotate(-.32 411.387 153.342)"/><path fill="#fff" d="M412.51,155.52a3.47,3.47,0,0,0-1.24-1.75,5.76,5.76,0,0,0-2.38-.73,12.56,12.56,0,0,1-5.23-.95,6,6,0,0,1-2.92-3.56,5.89,5.89,0,0,1,2.95-7.74l-1.15-3,2.1-.79,1.17,3.1a5.84,5.84,0,0,1,4.33.69,7.43,7.43,0,0,1,2.94,3.88L409,146.15a4.77,4.77,0,0,0-1.48-2.25,1.82,1.82,0,0,0-1.84-.29,1.68,1.68,0,0,0-1.17,1.28,3.94,3.94,0,0,0,.29,2.11,3.26,3.26,0,0,0,1.17,1.62,6.54,6.54,0,0,0,2.45.76,11.59,11.59,0,0,1,5.17,1,6.29,6.29,0,0,1,3,3.62,6.1,6.1,0,0,1,.14,4.49,6.18,6.18,0,0,1-3.07,3.18l1.08,2.87-2.11.79-1.07-2.84a6.84,6.84,0,0,1-4.68-.36,6.7,6.7,0,0,1-3.25-4.11v-.08l4-1.5a4.43,4.43,0,0,0,1.71,2.44,2.43,2.43,0,0,0,2.14.12,1.89,1.89,0,0,0,1.3-1.32A3.41,3.41,0,0,0,412.51,155.52Z"/><circle cx="206.07" cy="119.5" r="25.03" fill="#ffc557" transform="rotate(-53.45 206.07 119.502)"/><circle cx="206.07" cy="119.5" r="18.85" fill="#ffad12" transform="rotate(-.54 207.396 120.876)"/><path fill="#fff" d="M206.91,124.49a3.33,3.33,0,0,0,0-2,5.35,5.35,0,0,0-1.44-1.9,12.17,12.17,0,0,1-3.51-3.66,5.76,5.76,0,0,1-.26-4.4,5.62,5.62,0,0,1,6.62-4.34l.82-3,2.06.56-.83,3.06a5.62,5.62,0,0,1,3,3,7,7,0,0,1,.1,4.65l-4-1.08a4.65,4.65,0,0,0,.12-2.58,1.75,1.75,0,0,0-1.27-1.25,1.57,1.57,0,0,0-1.62.33,3.85,3.85,0,0,0-1,1.79,3.13,3.13,0,0,0,0,1.92,6.26,6.26,0,0,0,1.47,2,11,11,0,0,1,3.47,3.63,6,6,0,0,1,.27,4.46,5.47,5.47,0,0,1-6.57,4.3l-.77,2.83-2.08-.57.77-2.81a5.93,5.93,0,0,1-3.64-7.9l0-.06,3.9,1.06a4.32,4.32,0,0,0,0,2.85,2.37,2.37,0,0,0,1.6,1.29,1.85,1.85,0,0,0,1.75-.29A3.36,3.36,0,0,0,206.91,124.49Z"/><path fill="#ff9b7d" d="M253.66,352.45c-3-9.59-5.7-19.69-3.58-29.59,2.18-10.12,9.19-18.88,12.15-28.85a68.81,68.81,0,0,0,2.62-16.37c.48-10.24-.86-20.68-2.54-30.35-.94-5.39-.67-11.57,3.23-15.59a13.93,13.93,0,0,1,9.35-3.91,16.9,16.9,0,0,1,12.44,4.68c5.3,5.19,5.59,14,6.45,20.92.59,4.68,1,9.39,1.19,14.11.14,3.65.14,7.31,0,11s1.07,8.28,4.83,9.6c4.39,1.54,8.88-2.08,12.12-5.38C333,261.31,358,243.81,381.07,224.59c9.56-7.8,28.15-28,39.24-10.51,4.11,6.5,1.48,16.71-4.94,21.07l-16.26,14a13.67,13.67,0,0,1,17.46,5.41c4.11,6.5,2.06,15-5.94,20.16l-18.74,14,4.45-2.84c6.68-4.26,14.76-5.28,19,1.35a14.34,14.34,0,0,1-4.14,19.5l-10.44,7.79c5.55-2.12,11.27-1.65,14.58,3.58a14.34,14.34,0,0,1-4.14,19.5l-22.87,17.06c-11.4,13.79-25.15,19.25-37.66,32.6-2.79,3-4.27,9.29-6.25,13.32-12.6-.05-30.66-.08-43.26-.13-15.3-.05-30.65-.4-46-.45a58.46,58.46,0,0,0,4.14-22.66C259,368.79,256.2,360.59,253.66,352.45Z"/><path fill="#222f54" d="M392.75,226.19v18.32a2.12,2.12,0,0,0,2.11,2.12H395v7h-.18a2.12,2.12,0,0,0-2.11,2.12V274.1a2.12,2.12,0,0,0,2.11,2.12H395V364.3a15.46,15.46,0,0,1-15.46,15.46H300.82a15.47,15.47,0,0,1-15.47-15.46V262.81h.3a1.79,1.79,0,0,0,1.78-1.79V228.87a1.78,1.78,0,0,0-1.78-1.78h-.3v-29a15.47,15.47,0,0,1,15.47-15.47h78.76A15.47,15.47,0,0,1,395,198.13v25.94h-.18A2.12,2.12,0,0,0,392.75,226.19Z"/><rect width="183.66" height="96.25" x="248.37" y="233.09" fill="#fff" rx="8.74" transform="rotate(90 340.2 281.21)"/><path fill="#222f54" d="M329.05,199.88h22.29a2.88,2.88,0,0,0,2.87-2.87h0a2.87,2.87,0,0,0-2.87-2.87H329.05a2.87,2.87,0,0,0-2.87,2.87h0A2.88,2.88,0,0,0,329.05,199.88Z"/><path fill="#222f54" d="M287.43,228.87V261a1.79,1.79,0,0,1-1.78,1.79h-.3V227.09h.3A1.78,1.78,0,0,1,287.43,228.87Z"/><path fill="#172544" d="M285.35,227.09v35.72h0a1.79,1.79,0,0,1-1.78-1.79V228.87a1.78,1.78,0,0,1,1.78-1.78Z"/><path fill="#222f54" d="M395,224.07v22.56h-.18a2.12,2.12,0,0,1-2.11-2.12V226.19a2.12,2.12,0,0,1,2.11-2.12Z"/><path fill="#172544" d="M397.33,226.19v18.32a2.12,2.12,0,0,1-2.12,2.12H395V224.07h.17A2.12,2.12,0,0,1,397.33,226.19Z"/><path fill="#222f54" d="M395,253.66v22.56h-.18a2.12,2.12,0,0,1-2.11-2.12V255.78a2.12,2.12,0,0,1,2.11-2.12Z"/><path fill="#172544" d="M397.33,255.78V274.1a2.12,2.12,0,0,1-2.12,2.12H395V253.66h.17A2.12,2.12,0,0,1,397.33,255.78Z"/><path fill="#7b96ed" d="M307.52,197.62a2.73,2.73,0,1,1,2.73,2.73A2.72,2.72,0,0,1,307.52,197.62Z"/><path fill="#7b96ed" d="M298.22,197.62a2.73,2.73,0,1,1,2.73,2.73A2.72,2.72,0,0,1,298.22,197.62Z"/><circle cx="340.2" cy="281.21" r="34.96" fill="#ffc557" transform="rotate(-59.57 340.21 281.217)"/><circle cx="340.2" cy="281.21" r="26.33" fill="#ffad12"/><path fill="#fff" d="M343.16,287.63a4.68,4.68,0,0,0-.74-2.78,7.61,7.61,0,0,0-2.62-2,17,17,0,0,1-6.09-3.65,8.1,8.1,0,0,1-1.95-5.83,7.84,7.84,0,0,1,7.33-8.27v-4.35h3v4.44a7.76,7.76,0,0,1,5.09,2.9,9.86,9.86,0,0,1,1.84,6.23h-5.79a6.49,6.49,0,0,0-.79-3.52,2.44,2.44,0,0,0-2.16-1.22,2.22,2.22,0,0,0-2.07,1,5.31,5.31,0,0,0-.63,2.77,4.31,4.31,0,0,0,.7,2.58A8.84,8.84,0,0,0,341,278a15.38,15.38,0,0,1,6,3.63,8.34,8.34,0,0,1,2,5.91,8.08,8.08,0,0,1-2,5.68,8.16,8.16,0,0,1-5.33,2.53v4.08h-3v-4.06a9.06,9.06,0,0,1-5.67-2.66q-2.2-2.26-2.12-6.66l0-.1h5.65a6,6,0,0,0,1,3.85,3.27,3.27,0,0,0,2.63,1.16,2.56,2.56,0,0,0,2.24-1A4.63,4.63,0,0,0,343.16,287.63Z"/><path fill="#ce361f" d="M348.17,345.66V332.21a1.59,1.59,0,0,0-1.59-1.59H333.29a1.59,1.59,0,0,0-1.59,1.59v13.45h-3.76a1.84,1.84,0,0,0-1.46,3l5.58,7.24,5.43,7.05a3.09,3.09,0,0,0,4.89,0l5.42-7.05,5.59-7.24a1.85,1.85,0,0,0-1.47-3Z"/><path fill="#a0bd51" d="M149.05,344a33.87,33.87,0,0,1,10-22.27c7.44-7.27,19.14,2.34,13.39,11C168.74,338.42,161.78,343.23,149.05,344Z"/><path fill="#a0bd51" d="M127.75,317.33a34.88,34.88,0,0,0,24.76,10.59s-1.6-16.82-13.53-24.39C130,297.82,120.21,309.79,127.75,317.33Z"/><path fill="#a0bd51" d="M148.92,363.42s-12.4-.78-21.48-8.89c-7.57-6.76,1.95-18.61,10.18-12.68,4.58,3.3,8.89,9.72,11.3,16A14,14,0,0,0,148.92,363.42Z"/><path fill="#a0bd51" d="M157.66,381.86c-.36.25-5.57-9.86-3.17-20.32,2-8.64,14.86-7.08,14.72,1.78C169.12,369.28,166.44,376,157.66,381.86Z"/><path fill="#557c27" d="M178.21,398.86A50.17,50.17,0,0,1,160,385.79c-7.7-8.65-15.74-24-10.29-48.29.15-.47,13.06-41-14.42-60.15l.78-1.11c11.72,8.16,18,21.42,18.21,38.34A80.36,80.36,0,0,1,151,337.86c-5.3,23.59,2.49,38.58,10,47a50,50,0,0,0,17.73,12.76Z"/><path fill="#a0bd51" d="M151.22,297.94s-13.84-2.32-19.21-15.86c-3.42-8.63,8.41-15,13.84-7.46C149.81,280.11,152.62,287.73,151.22,297.94Z"/><path fill="#222f54" d="M601.37,400.65a4.4,4.4,0,0,1-4.42,4.42H84.57a4.42,4.42,0,1,1,0-8.84H597A4.42,4.42,0,0,1,601.37,400.65Z"/><path fill="#a0bd51" d="M518.43,317.57a40.08,40.08,0,0,1-8.12-29.86c1.5-11,17.43-11.08,19.06-.1C530.88,297.78,529.25,309.26,518.43,317.57Z"/><path fill="#a0bd51" d="M532.66,305.66a33.52,33.52,0,0,0,24.62,6.53c11.54-1.35,9.82-18.7-1.77-18A60.08,60.08,0,0,0,541,297.09Z"/><path fill="#a0bd51" d="M495.62,351s-12.41-12.7-11.43-29.72c.54-9.54,14-10.85,16.37-1.6a44.62,44.62,0,0,1,.78,16.34S496.54,345.3,495.62,351Z"/><path fill="#a0bd51" d="M495,372.53s16.45,2.44,26.32-10.48a7.86,7.86,0,0,0-7.94-12.53C506.31,351.08,498.42,356.63,495,372.53Z"/><path fill="#a0bd51" d="M505.89,328.88s8,10.62,24,12.07c12,1.09,14.51-16.81,2.73-19.11C525.82,320.51,517,321.85,505.89,328.88Z"/><path fill="#557c27" d="M500.17,397c-26.83-77.69,29.62-69.21,52.9-120.88l1.64.5c-23.68,53-79.41,42.89-53,119.65Z"/><path fill="#a0bd51" d="M549,286.23s11.85-5.12,16.58-16.83c3.81-9.44-9.37-16.51-15-8C547.23,266.54,545.57,274.37,549,286.23Z"/><path fill="#ffc557" d="M161.24,285.2a50.23,50.23,0,0,0,8.26,7.42,49.37,49.37,0,0,0,5.94,3.67c.84.44,1.7.86,2.57,1.24a46,46,0,0,0,6,2.22,48.13,48.13,0,0,0,9.59,1.84c.65.06,1.31.11,2,.15a4.84,4.84,0,0,0,.86.06,8.13,8.13,0,0,0,.86,0h.25c1,0,2,0,3,0a49.6,49.6,0,0,0,6.95-.8,48.69,48.69,0,0,0,17.82-7.2,50.94,50.94,0,0,0,7-5.52,49.62,49.62,0,0,0,9.14-11.75h0c.09-.15.18-.3.26-.45l0-.1c.58-1,1.11-2.09,1.59-3.17a49,49,0,0,0,4.36-18.54c0-1.27,0-2.53,0-3.78-.06-1.48-.17-3-.37-4.39,0-.13,0-.24,0-.37-.22-1.55-.49-3.07-.84-4.56l0-.1a47.34,47.34,0,0,0-1.7-5.66,49.46,49.46,0,0,0-38.4-31.79,48.58,48.58,0,0,0-6.2-.62c-.59,0-1.21,0-1.8,0a48.4,48.4,0,0,0-8.49.71h0c-1.25.22-2.44.47-3.68.79l0,0c-.24,0-.48.11-.71.17-.49.13-1,.26-1.45.42s-1.09.34-1.63.54h0a.81.81,0,0,0-.35.14l-.9.28s0,0,0,0l-.41.14h0c-.73.3-1.42.58-2.14.91s-1.39.62-2.08,1a48.62,48.62,0,0,0-5.8,3.4c-.36.23-.7.47-1,.72-1.19.85-2.35,1.76-3.45,2.71a49.72,49.72,0,0,0-8.92,10v0a49.69,49.69,0,0,0-7.36,37.28,48.47,48.47,0,0,0,2.05,7.24v0l0,0a47.58,47.58,0,0,0,4.56,9.28A49.33,49.33,0,0,0,161.24,285.2Z"/><path fill="#7b96ed" d="M178,297.53a46,46,0,0,0,6,2.22,48.13,48.13,0,0,0,9.59,1.84c.65.06,1.31.11,2,.15a4.84,4.84,0,0,0,.86.06,8.13,8.13,0,0,0,.86,0h.25c1,0,2,0,3,0a49.6,49.6,0,0,0,6.95-.8,48.69,48.69,0,0,0,17.82-7.2,50.94,50.94,0,0,0,7-5.52,49.62,49.62,0,0,0,9.14-11.75h0c.09-.15.18-.3.26-.45l0-.1c.58-1,1.11-2.09,1.59-3.17a49,49,0,0,0,4.36-18.54c0-1.27,0-2.53,0-3.78-.06-1.48-.17-3-.37-4.39,0-.13,0-.24,0-.37-.22-1.55-.49-3.07-.84-4.56l0-.1a47.34,47.34,0,0,0-1.7-5.66c-13.94-7-22.77-5.87-22.77-5.87-2.35-.07-10.16.86-16.47,1.68l-7,.94-.35.05-.55.07h0l-.28,0-.24,0-.17,0-.11,0-.81.17-14.46,3.16h0c-2.49,1.52-4.91,3.11-7.24,4.69a213.44,213.44,0,0,0-18.52,14.35s0,0,0,0c-.95.82-1.46,1.28-1.46,1.28Z"/><path fill="#5b7cce" d="M176.86,244.19a16.5,16.5,0,0,0,28.61-13c-4.78.63-8.68,1.18-8.68,1.18l-15.27,3.33c-2.5,1.52-4.18,2.61-6.5,4.19C175.68,241.24,175.8,243,176.86,244.19Z"/><path fill="#7b96ed" d="M161.24,285.2a50.23,50.23,0,0,0,8.26,7.42,49.37,49.37,0,0,0,5.94,3.67c.84.44,1.7.86,2.57,1.24a46,46,0,0,0,6,2.22,48.13,48.13,0,0,0,9.59,1.84c.65.06,1.31.11,2,.15a4.84,4.84,0,0,0,.86.06,8.13,8.13,0,0,0,.86,0h.25a48.66,48.66,0,0,1-4.58-3.25,38.12,38.12,0,0,1-12.5-18.84c-2.29-7.81-3.88-14.64-9.31-21.14-3.22-3.84-7.59-7.36-12.81-5.3a11.36,11.36,0,0,0-2.59,1.46s0,0,0,0a17,17,0,0,0-3.11,3,22.22,22.22,0,0,0-2.85,4.41,48.47,48.47,0,0,0,2.05,7.24v0l0,0a47.58,47.58,0,0,0,4.56,9.28A49.33,49.33,0,0,0,161.24,285.2Z"/><path fill="#824938" d="M204.7,200c.54,1.28,1.09,2.56,1.71,3.81,3.61,7.27,3,16.74-2.29,22.27a17.24,17.24,0,0,1-4.34,2.58,9,9,0,0,1-7-.22,23.12,23.12,0,0,1-5.94-4,34,34,0,0,1-5.09-5.09,37.81,37.81,0,0,1-6.46-15.8,14.77,14.77,0,0,1,15.8-17.4c4.88.33,7.48,3.42,10.2,7.24A35.31,35.31,0,0,1,204.7,200Z"/><path fill="#402013" d="M198.2,178.87c-2.78,0-5,1.39-7.54,2.17-1.33.41-2.52-.11-3.9-.32a8,8,0,0,0-6,1.66,8.18,8.18,0,0,0-2.16,2.45c-.57,1-.33,2.13-.74,3.25a2.55,2.55,0,0,1-2.19,1.77,16.78,16.78,0,0,0-1.72-.2,2.08,2.08,0,0,0-1.63,1.67,6,6,0,0,0,.11,2.46c-2-.85-4.48.6-5.3,2.64a8.22,8.22,0,0,0,.55,6.39c.91,2,2.22,3.79,3.19,5.76,1.21,2.46,1.86,5.15,2.89,7.68a6.19,6.19,0,0,0,1.19,2A2.44,2.44,0,0,0,177,219a2.5,2.5,0,0,0,1.76-2.19c.26-2.07-1.21-3.87-1.43-5.92a4.44,4.44,0,0,1,2.25-4.77c2.25-1.21,5-.49,7.52-.88a8.6,8.6,0,0,0,6.34-4.74,4.43,4.43,0,0,1,1.1-1.76,3.61,3.61,0,0,1,2.75-.29,18.55,18.55,0,0,0,6.17.21,7.53,7.53,0,0,0,5.13-3.14,4.77,4.77,0,0,0-.35-5.73c-.81-.84-2-1.29-2.72-2.2-1.2-1.49-.87-3.7-1.64-5.46C203,180,200.52,178.91,198.2,178.87Z"/><path fill="#824938" d="M174.43,216.87c1.84,2,4.56,2.55,6.08,1.17s1.25-4.13-.58-6.15-4.56-2.55-6.07-1.17S172.6,214.85,174.43,216.87Z"/><path fill="#824938" d="M191.67,242.15h0a7.59,7.59,0,0,0,6.14-8.79l-4.19-23.52-15.91,2.83,3.82,23.14C182.27,239.93,187.55,242.88,191.67,242.15Z"/><path fill="#622f2a" d="M175.82,215.62c.91,1,2.26,1.26,3,.58a2.21,2.21,0,0,0-.28-3.06c-.92-1-2.27-1.27-3-.58S174.9,214.61,175.82,215.62Z"/><path fill="#622f2a" d="M197.75,233.11s-9.83-2.31-12.83-10.82c0,0,6.1,7.31,12.14,7Z"/><path fill="#5b7cce" d="M186.6,300.45s-8.55-12.33-7.67-23.72c0,0,9,18,14.65,24.86C193.58,301.59,187.59,300.7,186.6,300.45Z"/><path fill="#5b7cce" d="M241.7,276.05s-9.21-5-14.79-19.3c0,0,8.75,10.82,16.85,14.12Z"/><path fill="#af2617" d="M300.83,126.58c-.15-.07-.29-.16-.43-.23a.24.24,0,0,1-.11-.06c-.93-.51-1.84-1.06-2.74-1.64-.38-3.7-.31-7.29.7-9.79C298.42,114.46,299.09,120.1,300.83,126.58Z"/><path fill="#9fbd51" d="M366.12,90.44v0l0,.06A51.8,51.8,0,0,1,371,109c.09,1.33.12,2.67.11,4a52.85,52.85,0,0,1-2.23,14.67,50.75,50.75,0,0,1-9.11,17.12c-.07.09-.13.16-.19.25q-.66.8-1.35,1.59a4.23,4.23,0,0,1-.59.69,1.75,1.75,0,0,0-.16.2L357,148c-.78.84-1.59,1.64-2.42,2.4A50.89,50.89,0,0,1,330.55,163a50.14,50.14,0,0,1-9.21,1.17,51.71,51.71,0,0,1-15.44-1.77v0c-.19,0-.36-.09-.53-.14l-.11,0c-1.18-.32-2.37-.71-3.52-1.14l-.23-.09a51.2,51.2,0,0,1-6.8-3.1l-.42-.23-.1-.05c-.92-.51-1.81-1-2.7-1.62l-.73-.49a50.63,50.63,0,0,1-6-4.73c-1-.89-1.9-1.81-2.8-2.76,0-.06-.1-.12-.15-.18l-.56-.6c-.8-.88-1.56-1.78-2.29-2.7l-.24-.31-.24-.3c-.2-.26-.39-.54-.59-.79-.69-.93-1.33-1.89-1.95-2.85l-.06-.09a51.63,51.63,0,0,1,5.48-62.31c.43-.46.87-.92,1.31-1.36a51.59,51.59,0,0,1,5.8-5.12c.18-.13.35-.27.53-.39l.39-.28,0,0c1.07-.77,2.13-1.49,3.26-2.15l0,0,.66-.4c.45-.27.91-.54,1.37-.77s1-.58,1.59-.82c0,0,0,0,0,0a.86.86,0,0,1,.35-.16c.42-.24.87-.45,1.31-.68h0c.76-.34,1.47-.64,2.23-1a51.26,51.26,0,0,1,10.31-2.92c1.51-.26,3-.46,4.54-.58.25,0,.5,0,.77-.06h0a49.81,49.81,0,0,1,10.43.3c.93.11,1.84.26,2.76.44h0a51.62,51.62,0,0,1,25.17,12.58A51.09,51.09,0,0,1,366.12,90.44Z"/><path fill="#ce361f" d="M294.31,157.62a48.87,48.87,0,0,0,7.21,3.33l.23.09c1.16.43,2.34.82,3.52,1.14l.11,0a4.42,4.42,0,0,0,.52.14v0a52.35,52.35,0,0,0,15.43,1.78,53.1,53.1,0,0,0,9.22-1.17,50.91,50.91,0,0,0,24.05-12.6c.84-.76,1.63-1.57,2.42-2.4l.45-.46c0-.07.11-.13.16-.19a5.4,5.4,0,0,0,.59-.69c.46-.52.91-1.06,1.35-1.59l.19-.24a51,51,0,0,0,9.11-17.13A53,53,0,0,0,371.1,113L369,111.7c-6-3.72-11.49-7-18.43-8.23l-5.06-.87a48.81,48.81,0,0,1-7.09-1.49l-4.5-1-6.82-1.59-1-.24-14.34,3.26-1.89.43-.09,0-4.92,2.9h0l0,0-.81.49-12.64,7.46h0l-.19.11-.88,3.51a32.66,32.66,0,0,0-.14,15.29l4.17,18.08Z"/><path fill="#ff9b7d" d="M309.66,96.5S308.43,114,319,112c0,0,11.29,1,8.12-13.49-.82-3.74-3-10-5.07-16Z"/><path fill="#af2617" d="M333.9,100.06a21.91,21.91,0,0,1-2.75,16.12,4,4,0,0,1-6.43.56L319.55,112s7.38-1.17,7.53-13.5Z"/><path fill="#af2617" d="M316.85,112.43l-2,6a2.75,2.75,0,0,1-4.4,1.24c-2.56-2.18-5.78-6.43-6.55-14.33l5.77-3.41S310,111,316.85,112.43Z"/><path fill="#ed704c" d="M310.58,106.32s9.17-4.32,7.25-14l-8,10.49Z"/><path fill="#af2617" d="M318.49,135.12c.12,2.2,1.21,3.93,2.43,3.86s2.12-1.91,2-4.11-1.21-3.93-2.43-3.86S318.36,132.92,318.49,135.12Z"/><path fill="#ce361f" d="M278,143a3.1,3.1,0,0,0,.44.84c.07.1.14.21.23.32a3.31,3.31,0,0,0,.25.3c.72.92,1.48,1.82,2.29,2.7a8,8,0,0,1,.55.6l.16.18q1.34,1.42,2.79,2.76a51.58,51.58,0,0,0,6,4.73c1.12.75,2.27,1.45,3.43,2.11a.43.43,0,0,0,.12.05,48.87,48.87,0,0,0,7.21,3.33q.63-1.41,1.2-2.82c2.68-6.37,3.71-13.3,4.27-20.18.44-5.4.57-11-1.4-16.06-1.68-4.31-5.87-9.21-10.75-9.69-6.76-.66-10.73,9.7-12.66,14.77a84.89,84.89,0,0,0-2.76,8.9c-.39,1.5-.74,3-1.1,4.52A4.78,4.78,0,0,0,278,143Z"/><path fill="#af2617" d="M353.17,137.57l4.3,10c0-.07.11-.13.16-.19a5.4,5.4,0,0,0,.59-.69c.46-.52.91-1.06,1.35-1.59l.19-.24Z"/><path fill="#ff9b7d" d="M288.85,87.32c1.43,9.35,6.08,17.38,17.84,13.48,5.1-1.7,9-6,11.12-11S320.29,79.32,320,74c-.24-3.9-.89-7.9-2.94-11.24a15.25,15.25,0,0,0-14.93-6.91c-8.52,1.31-12.33,8.75-13.31,16.61A56.45,56.45,0,0,0,288.85,87.32Z"/><path fill="#402013" d="M327.67,81a12.77,12.77,0,0,0-.23-2.89c-.93-5.38.88-11.1-1.2-16.35-1.13-2.88-3.82-5.38-6.92-5.29a7,7,0,0,0-13.14-3.57,6.72,6.72,0,0,0-13.3,1.51,8.82,8.82,0,0,0-10.45,3.23c-3.46,5.32.29,14.27,7.07,13.9,2.39-.12,3-2.16,4.94-2.81,1.33-.44,2.61.66,3.76,1.47,4,2.83,7.3,1.7,11.54.57a7.5,7.5,0,0,1,5.08.07,5.69,5.69,0,0,1,2.94,4.89c.13,2.43-.77,4.68-.76,7.11a10.18,10.18,0,0,1-2.18,6,21.08,21.08,0,0,1-6.68,5.3c-2.34,1.32-5.15,2.48-7.64,1.46-1.65-.67-2.79-2.18-4-3.45s-2.93-2.44-4.68-2.12a4.27,4.27,0,0,0-3.12,4.14c-.19,5.2,4.82,9.57,9.48,10.7,5.56,1.35,11.61-1,15.53-5.16a17.93,17.93,0,0,0,3.79-6.16c.75-2,.8-4.17,1.6-6.23a4.72,4.72,0,0,1,2.24-2.78c1.08-.45,1.9.29,3,.31a3.44,3.44,0,0,0,3.08-2.52A6,6,0,0,0,327.67,81Z"/><ellipse cx="322.04" cy="82.4" fill="#ff9b7d" rx="5.52" ry="3.94" transform="rotate(-78.29 322.026 82.413)"/><path fill="#ed704c" d="M323.84,82.77c-.29,1.39-1.33,2.35-2.32,2.15S320,83.42,320.25,82s1.32-2.35,2.31-2.14S324.12,81.39,323.84,82.77Z"/><path fill="#ffc557" d="M363.57,41.29l-.27,5.09a2.41,2.41,0,0,0,.31,1.34l2.53,4.44a2.45,2.45,0,0,1-2.26,3.65l-5.09-.27a2.39,2.39,0,0,0-1.34.31L353,58.37a2.44,2.44,0,0,1-3.65-2.25l.27-5.1a2.31,2.31,0,0,0-.32-1.33l-2.52-4.44a2.45,2.45,0,0,1,2.26-3.65l5.09.27a2.4,2.4,0,0,0,1.34-.32L359.92,39A2.45,2.45,0,0,1,363.57,41.29Z"/><path fill="#ce361f" d="M237.87,167.57h39.82a0,0,0,0,1,0,0v30.81a3.76,3.76,0,0,1-3.76,3.76H241.62a3.76,3.76,0,0,1-3.76-3.76V167.57a0,0,0,0,1,0,0Z" transform="rotate(-20.99 257.741 184.846)"/><rect width="8.65" height="36.6" x="253.16" y="165.58" fill="#af2617" transform="rotate(-20.99 257.474 183.876)"/><path fill="#ce361f" d="M255.7,161.25c-.5.23-1,.44-1.46.67a22,22,0,0,1-2.78,1.1c-.76.26-4.18,1.45-3.81-.45a3,3,0,0,1,.49-1l2.13-3.36,2.37-3.76c.65-1,1.46-2.16,2.67-2.28a3.43,3.43,0,0,1,2.64,1.29,4.93,4.93,0,0,1,1.61,4.16A4.23,4.23,0,0,1,257.9,160,11.71,11.71,0,0,1,255.7,161.25Z"/><path fill="#ce361f" d="M243.67,165.86l1.55-.48a23.55,23.55,0,0,0,2.8-1c.73-.32,4.07-1.72,2.53-2.88a3.1,3.1,0,0,0-1.06-.44l-3.83-1.08-4.28-1.21c-1.17-.33-2.53-.63-3.51.09a3.42,3.42,0,0,0-1.1,2.73,4.89,4.89,0,0,0,1.58,4.16,4.25,4.25,0,0,0,2.87.7A10.93,10.93,0,0,0,243.67,165.86Z"/><rect width="46.3" height="9.23" x="227.56" y="161.65" fill="#af2617" rx="2.83" transform="rotate(-20.99 250.688 166.26)"/><path fill="#7b96ed" d="M407.15,64h56a0,0,0,0,1,0,0v43.34a5.28,5.28,0,0,1-5.28,5.28H412.43a5.28,5.28,0,0,1-5.28-5.28V64a0,0,0,0,1,0,0Z" transform="rotate(-30.07 435.225 88.324)"/><rect width="12.17" height="51.47" x="428.45" y="61.31" fill="#5b7cce" transform="rotate(-30.07 434.593 87.036)"/><path fill="#7b96ed" d="M427,56c-.64.43-1.29.84-1.89,1.26a33.81,33.81,0,0,1-3.62,2.15c-1,.52-5.48,2.93-5.38.22a4.36,4.36,0,0,1,.45-1.56c.73-1.71,1.47-3.42,2.2-5.14l2.46-5.74c.68-1.57,1.56-3.33,3.21-3.77a4.82,4.82,0,0,1,4,1.21c1.74,1.32,3.25,3.25,3.16,5.42a6,6,0,0,1-1.77,3.75A16.45,16.45,0,0,1,427,56Z"/><path fill="#7b96ed" d="M411.34,65.09c.7-.34,1.38-.7,2-1A32.14,32.14,0,0,0,417,62c.95-.6,5.28-3.29,2.88-4.56a4.47,4.47,0,0,0-1.58-.38l-5.56-.65-6.2-.72c-1.7-.2-3.66-.31-4.86.91a4.78,4.78,0,0,0-.92,4c.28,2.15,1.2,4.42,3.13,5.43a6,6,0,0,0,4.13.33A15.92,15.92,0,0,0,411.34,65.09Z"/><rect width="65.12" height="12.98" x="388.64" y="57.59" fill="#5b7cce" rx="3.98" transform="rotate(-30.07 421.261 64.076)"/><path fill="#af2617" d="M320.71,151.93c.13,2.24,1.23,4,2.48,3.92s2.15-1.93,2-4.17-1.23-4-2.47-3.93S320.59,149.69,320.71,151.93Z"/><path fill="#ffdec9" d="M548.1,208.81v0l0,0a51,51,0,0,1-2.84,7.94c-.31.65-.63,1.32-1,2a50.43,50.43,0,0,1-12.07,15.38,47.44,47.44,0,0,1-5.73,4.28,50.3,50.3,0,0,1-7.8,4.09,51.47,51.47,0,0,1-6.55,2.22,50.69,50.69,0,0,1-5.69,1.14,4.86,4.86,0,0,1-.85.14c-.29,0-.59.06-.88.09a50.24,50.24,0,0,1-35.78-9.66c-.43-.29-.83-.6-1.24-.92L466,234.17a47,47,0,0,1-3.54-3.38c-.29-.29-.57-.59-.84-.89-1-1.08-1.93-2.21-2.82-3.39a50,50,0,0,1-8-15.17,52.19,52.19,0,0,1-2-9.11,51.58,51.58,0,0,1,.07-13.49,50.85,50.85,0,0,1,20.82-34.29,49.52,49.52,0,0,1,15.85-7.53,3.25,3.25,0,0,1,.42-.11,45.26,45.26,0,0,1,6.67-1.34,54.38,54.38,0,0,1,7.72-.41c1,0,1.9.08,2.84.15h0c1.31.1,2.55.24,3.84.46h0c.75.12,1.52.24,2.26.42.57.12,1.14.24,1.71.4h0a.82.82,0,0,1,.37.11c.45.09.91.2,1.39.32h0c.66.19,1.28.37,1.9.58l.28.09.08,0a51.17,51.17,0,0,1,23.4,16.21v0a50.77,50.77,0,0,1,9.55,44.92Z"/><path fill="#9fbd51" d="M484.69,206.35a99.23,99.23,0,0,1-7.12,17.27,69.83,69.83,0,0,1-8.64,12.84c-.43-.29-.83-.6-1.24-.92L466,234.17a47,47,0,0,1-3.54-3.38c-.29-.29-.57-.59-.84-.89-1-1.08-1.93-2.21-2.82-3.39a50,50,0,0,1-8-15.17c.44-.65.84-1.31,1.22-2,3.84-6.79,7.29-13.48,11.88-19.7,1-1.33,2-2.66,3.14-4a5.5,5.5,0,0,1,1.69-1.45C474.06,181.82,483,202.35,484.69,206.35Z"/><path fill="#ff9b7d" d="M479.23,143.14a32.94,32.94,0,0,1,5.55-6.18c3.68-3.19,7.74-3.78,12.47-2.53,3.82,1,7.61,3,9.59,6.46,2.9,5-1.17,11.35-3.86,15.65-2.26,3.61-5.42,7.75-9,10.09-5.53,3.6-15.1,3.36-18.91-2.68-3.05-4.83-.74-11.54,1.51-16.23A33.77,33.77,0,0,1,479.23,143.14Z"/><path fill="#9fbd51" d="M545.24,216.81c-.31.65-.63,1.32-1,2a50.43,50.43,0,0,1-12.07,15.38,47.44,47.44,0,0,1-5.73,4.28,50.3,50.3,0,0,1-7.8,4.09,51.47,51.47,0,0,1-6.55,2.22,50.69,50.69,0,0,1-5.69,1.14,4.86,4.86,0,0,1-.85.14c-.29,0-.59.06-.88.09a50.24,50.24,0,0,1-35.78-9.66c-.43-.29-.83-.6-1.24-.92L466,234.17a47,47,0,0,1-3.54-3.38c-.29-.29-.57-.59-.84-.89,0-.25.06-.49.1-.75a30.22,30.22,0,0,0-1.43-13.08c-.24-.73-.48-1.45-.68-2.18v0s0,0,0,0c-1.2-4.33-1.45-9.35,2.54-20.24a29.43,29.43,0,0,1,1.78-3.92,26.4,26.4,0,0,1,6.48-7.72,40.15,40.15,0,0,1,10.12-6.27c.21-.08.43-.17.64-.23a21.63,21.63,0,0,1,2.25-.71c.28-.08.55-.14.82-.19l.18,0,.63-.13a1.9,1.9,0,0,1,.25,0c.14,0,.29-.05.44-.08l11.5,0h1.95l.76,0h1.76c.32,0,.67,0,1,.05l.53,0,.91.07,1,.1c.28,0,.58.07.89.1l.15,0c1,.12,2,.28,3.11.5a41.77,41.77,0,0,1,18.14,8.24,37.9,37.9,0,0,1,7.15,7.56,41.79,41.79,0,0,1,4.38,7.63A109.43,109.43,0,0,1,545.24,216.81Z"/><path fill="#587e35" d="M480.55,175.67c1.32,10.86,9.51,11.69,9.51,11.69,11.23,1.3,16.78-8.42,19.25-12.22a41.68,41.68,0,0,0-10.1-.83l-13.46-.05A22.82,22.82,0,0,0,480.55,175.67Z"/><path fill="#587e35" d="M516.47,216.32l-.29,4.29c-.1,13.08-2.48,20.67-4,24.13a49.38,49.38,0,0,0,6.55-2.2C520.82,233.78,516.47,216.32,516.47,216.32Z"/><path fill="#402013" d="M506.62,163.84a12.08,12.08,0,0,0,5.09-7.67c.09-.39.17-.79.23-1.18.35-2.17,0-4.25.13-6.41,0-.8.34-1.52.38-2.33,0-.29,0-2.54-.4-2.58a17,17,0,0,0,5,0,6.89,6.89,0,0,0,4.24-2.43,7.7,7.7,0,0,0,1.19-5.46,13.7,13.7,0,0,0-7.31-10.55,6,6,0,0,0-5.1-.53,5.11,5.11,0,0,0-2.59,3.57,15.4,15.4,0,0,0-.09,4.55,7.6,7.6,0,0,0-7.45-3.74,4.7,4.7,0,0,1-2.41,0c-1-.44-1.39-1.67-1.91-2.66a7.43,7.43,0,0,0-6.58-3.68,10.63,10.63,0,0,0-7.08,3.11c-1.72,1.63-3.88,4.37-4.15,6.77a7.41,7.41,0,0,0,2.49,6.65,6.43,6.43,0,0,0,8-.08,3.6,3.6,0,0,0-.07,3.84,6.61,6.61,0,0,0,3.06,2.58c1.23.57,2.55.91,3.82,1.36a11.65,11.65,0,0,1,4,2.19,5.7,5.7,0,0,1,2,4c.05,1.26-.43,2.5-.41,3.77.05,2.14,1.8,3.69,2.88,5.4C504.38,163.68,504.74,165,506.62,163.84Z"/><path fill="#ff9b7d" d="M502.58,158.49l.19,15.84s-1.6,8.6-10.21,7.8c0,0-8.2.1-6.81-7.87l3.07-10.1Z"/><path fill="#ff9b7d" d="M499.59,156.14c-1.87,2.28-1.9,5.35-.06,6.85s4.83.87,6.7-1.41,1.9-5.35.06-6.85S501.46,153.86,499.59,156.14Z"/><ellipse cx="502.91" cy="158.86" fill="#ed704c" rx="2.84" ry="2.28" transform="rotate(-50.69 502.886 158.867)"/><path fill="#ed704c" d="M486.55,172.76c6.69-.52,10.26-8.6,10.26-8.6-4.7,4.3-9.3,4.55-9.3,4.55l0,.14a8.38,8.38,0,0,1-.39,1.21v0A20.38,20.38,0,0,0,486.55,172.76Z"/><path fill="#587e35" d="M466,234.17a47,47,0,0,1-3.54-3.38,49.73,49.73,0,0,0,4.8-16.38S467.69,227.1,466,234.17Z"/><path fill="#587e35" d="M499.59,228.58h0a6.66,6.66,0,0,1-6.36-6.94L493,213.7a2.46,2.46,0,0,1,2.56-2.52l9.33.4a2.45,2.45,0,0,1,2.34,2.67l-.71,8A6.67,6.67,0,0,1,499.59,228.58Z"/><path fill="#1f0f09" d="M483.76,156.22c-2.37-.87-3.27-4.19-2-7.56a8,8,0,0,1,2.68-3.73,4,4,0,0,1,3.75-.73c2.37.87,3.27,4.19,2,7.56a7.93,7.93,0,0,1-2.69,3.73,4.2,4.2,0,0,1-3.05.9A3.31,3.31,0,0,1,483.76,156.22Zm1.4-10.27a6.71,6.71,0,0,0-2.24,3.15h0c-1,2.61-.37,5.33,1.28,5.93a2.77,2.77,0,0,0,2.56-.56,6.78,6.78,0,0,0,2.24-3.15c1-2.61.37-5.33-1.28-5.93a1.85,1.85,0,0,0-.42-.11A3,3,0,0,0,485.16,146Z"/><path fill="#1f0f09" d="M475.35,151a3.74,3.74,0,0,1-2.24-2.78,7.48,7.48,0,0,1,.34-4.3h0c1.15-3.16,3.8-5,6-4.19a3.73,3.73,0,0,1,2.24,2.79,8,8,0,0,1-2.85,7.8,4,4,0,0,1-2.86.84A2.94,2.94,0,0,1,475.35,151Zm-.79-6.67a6.29,6.29,0,0,0-.29,3.6,2.29,2.29,0,0,0,3.89,1.43,6.84,6.84,0,0,0,2.4-6.56,2.62,2.62,0,0,0-1.49-1.95,1.83,1.83,0,0,0-.39-.09C477.19,140.51,475.39,142,474.56,144.29Z"/><path fill="#1f0f09" d="M482.53,147.9l.93-.86a4,4,0,0,0-2.59-1.32l.05,1.27A2.85,2.85,0,0,1,482.53,147.9Z"/><polygon fill="#1f0f09" points="500.45 155.27 501.6 154.5 490.04 149.95 489.74 151.18 500.45 155.27"/><path fill="#7b96ed" d="M307,226.61h-1.86v4.15h-2.34V219.41H307a4.75,4.75,0,0,1,3.1.9,3.08,3.08,0,0,1,1.09,2.53,3.54,3.54,0,0,1-.5,1.94,3.49,3.49,0,0,1-1.53,1.24l2.46,4.63v.11h-2.51Zm-1.86-1.9H307a2,2,0,0,0,1.37-.44,1.63,1.63,0,0,0,.48-1.24,1.67,1.67,0,0,0-.46-1.26,1.87,1.87,0,0,0-1.39-.46h-1.88Z"/><path fill="#7b96ed" d="M319.8,225.84h-4.49v3h5.27v1.88H313V219.41h7.59v1.9h-5.26V224h4.49Z"/><path fill="#7b96ed" d="M328.78,226.12h-4.49v4.64H322V219.41h7.39v1.9h-5.06v2.93h4.49Z"/><path fill="#7b96ed" d="M337.53,225.84H333v3h5.27v1.88H330.7V219.41h7.59v1.9H333V224h4.49Z"/><path fill="#7b96ed" d="M343.88,226.61H342v4.15h-2.34V219.41h4.22a4.75,4.75,0,0,1,3.1.9,3.08,3.08,0,0,1,1.09,2.53,3.46,3.46,0,0,1-.5,1.94,3.4,3.4,0,0,1-1.52,1.24l2.45,4.63v.11H346Zm-1.86-1.9h1.89a2,2,0,0,0,1.36-.44,1.63,1.63,0,0,0,.48-1.24,1.7,1.7,0,0,0-.45-1.26,1.89,1.89,0,0,0-1.4-.46H342Z"/><path fill="#7b96ed" d="M354.07,226.61h-1.86v4.15h-2.34V219.41h4.22a4.75,4.75,0,0,1,3.1.9,3.08,3.08,0,0,1,1.09,2.53,3.54,3.54,0,0,1-.5,1.94,3.43,3.43,0,0,1-1.53,1.24l2.46,4.63v.11H356.2Zm-1.86-1.9h1.89a2,2,0,0,0,1.36-.44,1.63,1.63,0,0,0,.48-1.24,1.7,1.7,0,0,0-.45-1.26,1.89,1.89,0,0,0-1.4-.46h-1.88Z"/><path fill="#7b96ed" d="M366.47,228.42h-4.1l-.78,2.34H359.1l4.23-11.35h2.16l4.25,11.35h-2.49ZM363,226.53h2.84l-1.43-4.25Z"/><path fill="#7b96ed" d="M373.14,228.88h5v1.88h-7.3V219.41h2.34Z"/></svg>