<svg xmlns="http://www.w3.org/2000/svg" enable-background="new 0 0 2000 2000" viewBox="0 0 2000 2000"><rect width="2000" height="2000" fill="#fff" fill-rule="evenodd" clip-rule="evenodd" display="none"/><path fill="#d5f0ff" d="M307.58,1359.79c19.22,29.67,207.5,255.11,359.27,257.85c136.87,2.47,181.26-195.94,325.02-181.25  c107.05,10.94,120.67,124.87,244.7,164.42c121.91,38.87,283.1-8.02,364.25-95.77c422.15-456.43,199.57-1136.24-156.86-1327.9  C1283.01,90.6,1185.1,329.93,847.07,287.13C643.8,261.4,681.66,139.61,506.53,220.41C303.32,314.16-25.45,845.69,307.58,1359.79z" display="none" opacity=".5"/><path fill="#d5f0ff" d="M1523.31,748.79c28.52,92.75,140.94,70.38,210.52,177.36c72.27,111.13,59.6,296.23-46.27,405.78     c-107.44,111.16-267.93,100.12-346.18,94.74c-128.6-8.84-173.05-53.28-272.94-82.46c-349.69-102.15-574.57,217.57-794.45,101.21     C154.33,1382.1,83,1214.31,116.89,1097.93c58.01-199.2,433.32-223.78,425.58-325.09c-6.5-85.13-272.33-78.59-307.24-205.79     c-31.3-114.04,144.31-257.99,263.93-319.87c55.13-28.52,216.73-115.17,340.45-48.03c97.89,53.12,87.35,149.52,175,175.5     c105.67,31.32,158.01-97.82,312.39-104.15c113.75-4.66,252.75,58.59,278.53,159.2C1635.83,547.97,1488.91,636.93,1523.31,748.79z     " opacity=".43"/><path fill="#d5f0ff" d="M1620.07,711.35c28.52,92.75,140.94,70.38,210.52,177.36c72.27,111.13,59.6,296.23-46.27,405.78     c-107.44,111.16-267.93,100.12-346.18,94.74c-128.6-8.84-173.05-53.28-272.94-82.46c-349.69-102.15-574.57,217.57-794.45,101.21     c-119.65-63.32-190.98-231.11-157.09-347.49c58.01-199.2,433.32-223.78,425.58-325.09c-6.5-85.13-272.33-78.59-307.24-205.79     c-31.3-114.04,144.31-257.99,263.93-319.87c55.13-28.52,216.73-115.17,340.45-48.03c97.89,53.12,87.35,149.52,175,175.5     c105.67,31.32,158.01-97.82,312.39-104.15c113.75-4.66,252.76,58.59,278.53,159.2C1732.59,510.54,1585.67,599.5,1620.07,711.35z" opacity=".5"/><ellipse cx="978.03" cy="1855.11" fill="#dfe6ff" rx="855.9" ry="79.78"/><path fill="#62cbec" d="M1491.74,1106.33c82.34,60.26,415.36-176.72,399.25-358.13c-1.05-11.81-6.91-77.88-56.76-116.96     c-53.71-42.11-124.92-26.57-133.09-24.78C1527.29,644.4,1408.78,1045.61,1491.74,1106.33z"/><path fill="#bbe6f9" d="M1473.69,1107.18c82.34,60.26,415.36-176.72,399.25-358.13c-1.05-11.81-6.91-77.88-56.76-116.96     c-53.71-42.11-124.92-26.57-133.09-24.78C1509.25,645.26,1390.74,1046.47,1473.69,1107.18z"/><path fill="#fff" d="M1420.37,1233.68c0.05,0.02,0.11,0.05,0.17,0.07c2.45,0.95,5.21-0.31,6.16-2.81       c44.34-116.1,104.04-225.3,177.43-324.55c58.68-79.36,126.2-152.35,200.68-216.95c2.01-1.74,2.27-4.8,0.58-6.83       c-1.69-2.03-4.69-2.26-6.7-0.52c-75.02,65.07-143.02,138.59-202.13,218.52c-73.93,99.97-134.05,209.95-178.71,326.89       C1416.9,1229.94,1418.04,1232.67,1420.37,1233.68z"/><path fill="#fff" d="M1687.56,796.81c0.91,0.39,1.95,0.5,2.98,0.24c2.56-0.64,4.14-3.27,3.54-5.87       c-5.57-23.94-6.52-48.45-2.82-72.83c3.58-23.63,11.39-46.14,23.2-66.91c1.32-2.33,0.55-5.28-1.72-6.61       c-2.27-1.32-5.18-0.51-6.51,1.82c-12.41,21.83-20.61,45.49-24.38,70.32c-3.89,25.62-2.89,51.38,2.96,76.54       C1685.18,795.05,1686.23,796.23,1687.56,796.81z"/><path fill="#fff" d="M1560.1,952.91c1.29,0.56,2.82,0.53,4.16-0.22c2.31-1.29,3.18-4.24,1.93-6.58       c-11.5-21.59-18.67-44.93-21.3-69.39c-2.56-23.7-0.74-47.45,5.4-70.57c0.69-2.59-0.8-5.24-3.35-5.91       c-2.54-0.67-5.15,0.88-5.84,3.47c-6.45,24.31-8.36,49.26-5.67,74.17c2.77,25.71,10.3,50.24,22.39,72.93       C1558.33,951.78,1559.15,952.5,1560.1,952.91z"/><path fill="#fff" d="M1652.86,872.24c18.23,7.86,37.45,12.82,57.35,14.75c24.5,2.39,48.98,0.1,72.76-6.8       c2.53-0.73,4.02-3.42,3.33-5.99c-0.7-2.57-3.32-4.06-5.85-3.33c-22.63,6.57-45.92,8.75-69.23,6.47       c-24.06-2.35-47.09-9.32-68.44-20.73c-2.32-1.23-5.2-0.32-6.44,2.05c-1.24,2.37-0.37,5.3,1.95,6.54       C1643.06,867.76,1647.93,870.11,1652.86,872.24z"/><path fill="#fff" d="M1506.08,1050.38c0.24,0.1,0.48,0.19,0.74,0.25c24.68,6.06,49.97,7.19,75.14,3.33       c24.4-3.73,47.66-11.99,69.15-24.53c2.29-1.34,3.1-4.3,1.81-6.62c-1.29-2.32-4.19-3.11-6.48-1.78       c-20.45,11.94-42.59,19.79-65.8,23.34c-23.96,3.67-48.02,2.6-71.5-3.17c-2.55-0.63-5.13,0.98-5.77,3.58       C1502.79,1047.12,1503.98,1049.47,1506.08,1050.38z"/><g><path fill="#75d9ef" d="M456.53,815.08c-50.58,53.75-317.35-70.65-329.4-201.76c-0.78-8.54-5.17-56.29,25.11-90.67     c32.63-37.05,85.13-35.43,91.16-35.24C371.57,491.37,507.5,760.92,456.53,815.08z"/><path fill="#cdecf7" d="M469.44,813.29c-50.58,53.75-317.35-70.65-329.4-201.76c-0.78-8.54-5.17-56.29,25.11-90.67     c32.63-37.05,85.13-35.43,91.16-35.24C384.47,489.59,520.4,759.14,469.44,813.29z"/><path fill="#fff" d="M523.6,896.17c-0.04,0.02-0.07,0.05-0.11,0.07c-1.61,1-3.73,0.47-4.73-1.19       c-46.46-76.68-102.91-146.4-167.78-207.25c-51.87-48.65-109.19-91.61-170.35-127.68c-1.65-0.97-2.23-3.11-1.29-4.78       c0.94-1.67,3.04-2.23,4.69-1.26c61.61,36.33,119.33,79.6,171.58,128.6c65.35,61.29,122.2,131.52,169,208.75       C525.58,893.05,525.13,895.14,523.6,896.17z"/><path fill="#fff" d="M277.65,620.94c-0.59,0.4-1.32,0.61-2.08,0.56c-1.9-0.12-3.36-1.78-3.27-3.7       c0.85-17.76-1.65-35.31-7.42-52.15c-5.6-16.32-14.04-31.29-25.1-44.5c-1.24-1.48-1.08-3.68,0.36-4.92       c1.44-1.24,3.61-1.05,4.85,0.43c11.62,13.88,20.5,29.61,26.38,46.77c6.07,17.7,8.7,36.14,7.8,54.81       C279.11,619.38,278.52,620.36,277.65,620.94z"/><path fill="#fff" d="M388.22,715.05c-0.84,0.57-1.93,0.75-2.97,0.39c-1.81-0.61-2.8-2.6-2.22-4.43       c5.36-16.87,7.42-34.42,6.13-52.16c-1.25-17.19-5.61-33.83-12.95-49.46c-0.82-1.75-0.11-3.83,1.61-4.64       c1.71-0.81,3.76-0.06,4.59,1.69c7.72,16.43,12.3,33.92,13.62,51.98c1.36,18.64-0.81,37.09-6.44,54.81       C389.32,714.02,388.84,714.64,388.22,715.05z"/><path fill="#fff" d="M312.01,669.98c-11.91,8.01-24.9,14.07-38.75,18.08c-17.06,4.94-34.71,6.56-52.47,4.8       c-1.89-0.19-3.29-1.9-3.13-3.82c0.16-1.92,1.83-3.33,3.72-3.14c16.89,1.67,33.69,0.14,49.92-4.56       c16.75-4.85,32.18-12.86,45.85-23.8c1.49-1.18,3.65-0.91,4.83,0.61c1.19,1.52,0.94,3.72-0.54,4.91       C318.38,665.5,315.23,667.81,312.01,669.98z"/><path fill="#fff" d="M439.12,777.2c-0.15,0.1-0.32,0.2-0.49,0.27c-16.72,7.58-34.5,11.73-52.85,12.32       c-17.78,0.58-35.34-2.21-52.2-8.29c-1.8-0.65-2.75-2.65-2.14-4.47c0.61-1.82,2.57-2.77,4.36-2.12       c16.04,5.78,32.75,8.43,49.67,7.88c17.46-0.57,34.38-4.51,50.29-11.72c1.73-0.78,3.77,0.01,4.56,1.78       C441.04,774.45,440.49,776.28,439.12,777.2z"/></g><path fill="#84b2fe" d="M509.77,408.99c16.94-11.14,38.97-8.41,52.73,5.43c18.79-18.7,33.38-40.53,43.48-64.08    c-17.93-7.68-28.59-27.15-24.49-46.99c4.1-19.85,21.6-33.49,41.11-33.44c0.06-25.62-4.68-51.45-14.53-76.07    c-18.12,7.26-39.43,1.03-50.57-15.9c-11.14-16.94-8.41-38.97,5.43-52.73c-18.7-18.79-40.53-33.38-64.08-43.48    c-7.68,17.93-27.15,28.59-46.99,24.49c-19.85-4.1-33.49-21.6-33.44-41.11c-25.62-0.06-51.45,4.68-76.07,14.53    c7.26,18.11,1.03,39.43-15.9,50.57c-16.94,11.14-38.97,8.41-52.73-5.43c-18.79,18.7-33.38,40.53-43.48,64.08    c17.93,7.68,28.59,27.15,24.49,46.99c-4.1,19.85-21.6,33.49-41.11,33.44c-0.06,25.62,4.68,51.45,14.53,76.07    c18.11-7.26,39.43-1.03,50.57,15.9c11.14,16.94,8.41,38.97-5.43,52.73c18.7,18.79,40.53,33.38,64.08,43.48    c7.68-17.93,27.15-28.59,46.99-24.49c19.85,4.1,33.49,21.6,33.44,41.11c25.62,0.06,51.45-4.68,76.06-14.53    C486.61,441.44,492.83,420.12,509.77,408.99z M328.32,328.64c-32.61-49.58-18.85-116.21,30.74-148.82    c49.58-32.61,116.21-18.85,148.82,30.74c32.61,49.58,18.85,116.21-30.74,148.82C427.56,391.98,360.93,378.22,328.32,328.64z"/><g><path fill="#9499f7" d="M1583.32,236.22h-13.07c-2.34,0-4.67,0.08-6.97,0.26c-49.14,3.55-87.89,44.55-87.89,94.59v44.86v102.2     h202.78V331.08C1678.18,278.69,1635.71,236.22,1583.32,236.22z"/><path fill="#b7bcf7" d="M586.7,236.22c-75.59,0-136.88,61.27-136.88,136.86v17.52h-1.65v1343.43c-0.09,7.77-1.35,38.78-25.52,64.73     c-17.8,19.11-38.68,25.45-47.47,27.58c321.66,0.85,643.33,1.7,964.99,2.55c10.99,0.59,51.86,1.46,88.34-27.61     c50.25-40.04,48.82-102.34,48.54-109.25c0-5.84,0-11.68,0-17.52c0,2.28,0,4.56,0,6.85c0.55-450.09,1.1-900.19,1.65-1350.28     c0-50.04,38.75-91.04,87.89-94.59C1239.96,236.39,913.32,236.3,586.7,236.22z"/><path fill="#9499f7" d="M1335.06,1829.93c-3.05,0-6.1,0.01-9.16,0.01c-16.13,0-32.24-0.02-48.36-0.03h-0.13     c-283.48-0.23-566.97-0.46-850.45-0.68c-2.81,0.15-5.66,0.23-8.55,0.23h-17.28c-2.99,0-5.94-0.1-8.88-0.26h-1.68     c0.02-0.03,0.02-0.07,0.02-0.1c-64.34-4.04-114.89-44.79-114.89-94.49v-147.06h958.13v147.06c1.44,10.54,6.31,35.29,26.14,57.95     C1288.34,1824.98,1326.41,1829.19,1335.06,1829.93z"/><line x1="606.72" x2="1388.12" y1="552.66" y2="552.66" fill="#fff"/><path fill="#fff" d="M1388.12,560.64h-781.4c-4.61,0-8.34-3.57-8.34-7.97c0-4.4,3.73-7.97,8.34-7.97h781.4       c4.61,0,8.34,3.57,8.34,7.97C1396.46,557.07,1392.73,560.64,1388.12,560.64z"/><line x1="606.72" x2="1388.12" y1="648.89" y2="648.89" fill="#fff"/><path fill="#fff" d="M1388.12,656.87h-781.4c-4.61,0-8.34-3.57-8.34-7.97c0-4.4,3.73-7.97,8.34-7.97h781.4       c4.61,0,8.34,3.57,8.34,7.97C1396.46,653.3,1392.73,656.87,1388.12,656.87z"/><line x1="606.72" x2="1388.12" y1="755.55" y2="755.55" fill="#fff"/><path fill="#fff" d="M1388.12,763.52h-781.4c-4.61,0-8.34-3.57-8.34-7.97c0-4.4,3.73-7.97,8.34-7.97h781.4       c4.61,0,8.34,3.57,8.34,7.97C1396.46,759.95,1392.73,763.52,1388.12,763.52z"/><line x1="606.72" x2="1388.12" y1="851.78" y2="851.78" fill="#fff"/><path fill="#fff" d="M1388.12,859.75h-781.4c-4.61,0-8.34-3.57-8.34-7.97c0-4.4,3.73-7.97,8.34-7.97h781.4       c4.61,0,8.34,3.57,8.34,7.97C1396.46,856.18,1392.73,859.75,1388.12,859.75z"/><line x1="606.72" x2="1388.12" y1="952.77" y2="952.77" fill="#fff"/><path fill="#fff" d="M1388.12,960.74h-781.4c-4.61,0-8.34-3.57-8.34-7.97c0-4.4,3.73-7.97,8.34-7.97h781.4       c4.61,0,8.34,3.57,8.34,7.97C1396.46,957.17,1392.73,960.74,1388.12,960.74z"/><path fill="#fff" d="M800.62,483.9v-97.22h22.5v78.89h48.75v18.33H800.62z"/><path fill="#fff" d="M930.06,485.56c-7.69,0-14.79-1.25-21.32-3.75c-6.53-2.5-12.18-6.02-16.94-10.55       c-4.77-4.53-8.47-9.86-11.11-15.97c-2.64-6.11-3.96-12.78-3.96-20c0-7.22,1.32-13.89,3.96-20c2.64-6.11,6.37-11.43,11.18-15.97       c4.81-4.54,10.46-8.05,16.94-10.56c6.48-2.5,13.52-3.75,21.11-3.75c7.68,0,14.74,1.25,21.18,3.75       c6.43,2.5,12.04,6.02,16.81,10.56c4.77,4.54,8.49,9.84,11.18,15.9c2.68,6.06,4.03,12.76,4.03,20.07       c0,7.22-1.34,13.91-4.03,20.07c-2.69,6.16-6.41,11.48-11.18,15.97c-4.77,4.49-10.37,7.99-16.81,10.48       C944.67,484.31,937.65,485.56,930.06,485.56z M929.92,466.4c4.35,0,8.35-0.74,12.01-2.22c3.66-1.48,6.87-3.61,9.65-6.39       c2.78-2.78,4.93-6.06,6.46-9.86c1.53-3.8,2.29-8.01,2.29-12.64c0-4.63-0.76-8.84-2.29-12.64c-1.53-3.8-3.66-7.08-6.39-9.86       c-2.73-2.78-5.95-4.91-9.65-6.39c-3.7-1.48-7.73-2.22-12.08-2.22c-4.35,0-8.36,0.74-12.01,2.22c-3.66,1.48-6.87,3.61-9.65,6.39       c-2.78,2.78-4.93,6.07-6.46,9.86c-1.53,3.8-2.29,8.01-2.29,12.64c0,4.54,0.76,8.73,2.29,12.57c1.53,3.84,3.66,7.15,6.39,9.93       c2.73,2.78,5.95,4.91,9.65,6.39C921.54,465.66,925.57,466.4,929.92,466.4z"/><path fill="#fff" d="M985.89,483.9l43.33-97.22h22.22l43.47,97.22h-23.61l-35.55-85.83h8.89l-35.69,85.83H985.89z        M1007.56,463.06l5.97-17.08h50l6.11,17.08H1007.56z"/><path fill="#fff" d="M1105.06,483.9v-97.22h18.61l57.36,70H1172v-70h22.22v97.22h-18.47l-57.5-70h9.03v70H1105.06z"/><g><path fill="#fff" d="M757.84,1237.18H597.15c-6.51,0-11.79-5.28-11.79-11.79V1064.7c0-6.51,5.28-11.79,11.79-11.79h160.69       c6.51,0,11.79,5.28,11.79,11.79v160.69C769.63,1231.9,764.35,1237.18,757.84,1237.18z M608.94,1213.6h137.11v-137.11H608.94       V1213.6z"/></g><g><path fill="#fff" d="M675.22,1205.73c-3.12,0-6.12-1.24-8.34-3.45l-43.2-43.21c-4.6-4.6-4.6-12.07,0-16.67       c4.6-4.6,12.07-4.6,16.67,0l34.08,34.08c17.28-19.83,37.01-37.34,58.8-52.17c25.17-17.12,52.67-30.38,81.75-39.41       c6.22-1.93,12.83,1.55,14.76,7.76c1.93,6.22-1.55,12.83-7.76,14.76c-26.84,8.33-52.24,20.58-75.47,36.39       c-23.47,15.97-44.35,35.31-62.07,57.49c-2.09,2.62-5.21,4.23-8.56,4.41C675.65,1205.72,675.43,1205.73,675.22,1205.73z"/></g><g><path fill="#fff" d="M757.84,1544.42H597.15c-6.51,0-11.79-5.28-11.79-11.79v-160.69c0-6.51,5.28-11.79,11.79-11.79h160.69       c6.51,0,11.79,5.28,11.79,11.79v160.69C769.63,1539.14,764.35,1544.42,757.84,1544.42z M608.94,1520.84h137.11v-137.11H608.94       V1520.84z"/></g><g><path fill="#fff" d="M675.22,1512.97c-3.12,0-6.12-1.24-8.34-3.45l-43.2-43.2c-4.6-4.6-4.6-12.07,0-16.67       c4.6-4.6,12.07-4.6,16.67,0l34.08,34.08c17.28-19.83,37.01-37.34,58.8-52.17c25.17-17.12,52.67-30.38,81.75-39.41       c6.22-1.93,12.83,1.55,14.76,7.76c1.93,6.22-1.55,12.82-7.76,14.76c-26.84,8.33-52.24,20.58-75.47,36.39       c-23.47,15.97-44.35,35.31-62.07,57.49c-2.09,2.62-5.21,4.23-8.56,4.41C675.65,1512.96,675.43,1512.97,675.22,1512.97z"/></g><g><path fill="#fff" d="M936.58,1425.45c146.5,0,292.99,0,439.49,0"/><path fill="#fff" d="M1376.07,1435.81H936.58c-5.72,0-10.36-4.64-10.36-10.36c0-5.72,4.64-10.36,10.36-10.36h439.49        c5.72,0,10.36,4.64,10.36,10.36C1386.43,1431.17,1381.79,1435.81,1376.07,1435.81z"/><path fill="#fff" d="M936.58,1370.51c146.5,0,292.99,0,439.49,0"/><path fill="#fff" d="M1376.07,1380.87H936.58c-5.72,0-10.36-4.64-10.36-10.36s4.64-10.36,10.36-10.36h439.49        c5.72,0,10.36,4.64,10.36,10.36S1381.79,1380.87,1376.07,1380.87z"/><g><path fill="#fff" d="M1292.66,1480.38c27.81,0,55.61,0,83.42,0"/><path fill="#fff" d="M1376.07,1490.74h-83.42c-5.72,0-10.36-4.64-10.36-10.36s4.64-10.36,10.36-10.36h83.42        c5.72,0,10.36,4.64,10.36,10.36S1381.79,1490.74,1376.07,1490.74z"/></g><g><path fill="#fff" d="M936.58,1480.38c107.59,0,215.18,0,322.78,0"/><path fill="#fff" d="M1259.36,1490.74H936.58c-5.72,0-10.36-4.64-10.36-10.36s4.64-10.36,10.36-10.36h322.78        c5.72,0,10.36,4.64,10.36,10.36S1265.08,1490.74,1259.36,1490.74z"/></g></g><g><path fill="#fff" d="M1086.22,1118.21c96.62,0,193.23,0,289.85,0"/><path fill="#fff" d="M1376.07,1128.56h-289.85c-5.72,0-10.36-4.64-10.36-10.36c0-5.72,4.64-10.36,10.36-10.36h289.85        c5.72,0,10.36,4.64,10.36,10.36C1386.43,1123.93,1381.79,1128.56,1376.07,1128.56z"/><path fill="#fff" d="M936.58,1118.21c35.59,0,71.19,0,106.78,0"/><path fill="#fff" d="M1043.37,1128.56H936.58c-5.72,0-10.36-4.64-10.36-10.36c0-5.72,4.64-10.36,10.36-10.36h106.78        c5.72,0,10.36,4.64,10.36,10.36C1053.73,1123.93,1049.09,1128.56,1043.37,1128.56z"/><g><path fill="#fff" d="M936.58,1063.27c146.5,0,292.99,0,439.49,0"/><path fill="#fff" d="M1376.07,1073.63H936.58c-5.72,0-10.36-4.64-10.36-10.36c0-5.72,4.64-10.36,10.36-10.36h439.49        c5.72,0,10.36,4.64,10.36,10.36C1386.43,1068.99,1381.79,1073.63,1376.07,1073.63z"/></g><g><path fill="#fff" d="M936.58,1173.14c107.59,0,215.18,0,322.78,0"/><path fill="#fff" d="M1259.36,1183.5H936.58c-5.72,0-10.36-4.64-10.36-10.36c0-5.72,4.64-10.36,10.36-10.36h322.78        c5.72,0,10.36,4.64,10.36,10.36C1269.72,1178.86,1265.08,1183.5,1259.36,1183.5z"/></g></g></g><g><path fill="#153663" d="M851.96,1840.59c-26.57,12.7-49.13,0.8-56.65,13.2c-3.43,5.67-1.97,13.51,0.44,18.28      c14.82,29.31,108.01,26.87,119.97-2.44c7.31-17.91-14.28-49.36-32.39-49.87C871.99,1819.44,870.95,1831.52,851.96,1840.59z"/><path fill="#153663" d="M1089.67,1835.78c-24.24,16.73-48.39,8.52-53.86,21.96c-2.5,6.14,0.18,13.65,3.31,17.98      c19.25,26.61,110.89,9.53,118.09-21.31c4.4-18.84-21.88-46.49-39.84-44.15C1106.12,1811.73,1106.99,1823.83,1089.67,1835.78z"/><path fill="#0643a3" d="M912.04,1378.96c-12.06,34.37-38.08,109.53-52.29,200.33c-9.13,58.32-16.91,145.57-5.02,253.76      c3.87,2.28,14.33,7.73,28.51,6.85c12.74-0.8,21.71-6.28,25.45-8.89c-2.96-56.41-0.97-135.85,21.71-227.23      c25.6-103.18,67.63-181.52,100.09-232.1c-33.24-14.22-66.49-28.44-99.73-42.65C925.89,1341.21,919.28,1358.32,912.04,1378.96z"/><path fill="#0643a3" d="M976.63,1391.45c1.95,43.43,5.63,125.6,26.71,214.12c12.92,54.29,37.9,134.13,89.63,225.05      c3.52,1.1,15.64,4.42,28.88-1.37c10.13-4.43,15.68-11.91,17.89-15.29c-9.79-23.33-21.21-53.74-31.46-90.05      c-18.3-64.84-23.59-115.78-24.67-126.58c-7.24-72.3,3.48-90.13-4.12-163.66c-4.15-40.1-11.22-72.39-16.35-92.81      c-29.29-1.62-58.58-3.23-87.86-4.85C975.32,1349.65,975.6,1368.71,976.63,1391.45z"/><path fill="#f9bc9b" d="M733.46,1268.02c-4.42,2.79-7.82-1.47-20.27-1.89c-5.43-0.19-9.93,0.41-14.72,1.05      c-10,1.33-11.19,2.75-16.21,2.31c-2.15-0.19-8.73-1.06-14.61-5.94c-6.09-5.06-10.39-13.58-9.48-22.36      c1.33-12.82,13.52-23.57,24.19-23.6c14.04-0.04,15.16,18.33,38.25,26.2c8.36,2.85,14.87,2.66,17.49,7.97      C740.64,1256.89,738.37,1264.93,733.46,1268.02z"/><path fill="#0d4391" d="M942.74,1108.12c-17.82-1.23-26.84,32.39-50.39,61.44c-24.56,30.3-70.73,62.81-165.52,72.75       c-0.6,0.43-11.51,8.43-10.47,21.78c0.7,8.87,6.41,16.67,14.83,20.27c48.05,0.39,130.18-5.93,196.41-52.68       c35.58-25.11,42.84-45.14,44.9-57.56C977.47,1144.19,960.41,1109.34,942.74,1108.12z"/><path fill="#0d4391" d="M1076.52,1390.82c-10.44,7.53-39.71,26.66-81.94,29.21l-2.93-11.26c-2.39-13.43-4.78-26.85-7.16-40.28      c-2.58,13.29-5.15,26.59-7.73,39.88l-3.64,11.47c-37.75-2.96-64.41-19.01-74.58-25.8c6.97-33.76,12.78-74.86,13.87-121.77      c0.99-42.73-2.15-80.7-6.73-112.58c1.01-13.68,5.64-22.96,8.6-27.84c5.14-8.46,11.84-14.53,14.81-17.21      c0,0,1.65-1.49,13.8-11.34l0,0c2.26-1.76,4.55-3.34,6.84-4.74c20.41-12.46,41.43-11.29,47.21-10.73      c0.36,0.04,0.67,0.07,0.91,0.09c3.28,0.37,6.41,0.94,9.39,1.68c4.76,1.18,16.9,5.94,22.82,9.91      c11.7,7.86,23.24,28.88,25.4,56.41c3.45,36.93,6.83,73.86,10.15,110.8C1069.32,1308.07,1072.96,1349.44,1076.52,1390.82z"/><path fill="#ffcdad" d="M1145.1,1282.92c4.06,3.29,1.12,7.87,4.71,19.8c1.56,5.2,3.57,9.27,5.71,13.6      c4.46,9.05,6.2,9.71,7.38,14.62c0.51,2.09,1.8,8.61-0.94,15.74c-2.84,7.39-9.53,14.2-18.14,16.15      c-12.57,2.85-26.66-5.25-30.11-15.35c-4.54-13.29,12.5-20.24,12.55-44.63c0.02-8.83-2.25-14.94,1.94-19.13      C1132.25,1279.69,1140.6,1279.27,1145.1,1282.92z"/><path fill="#0d4391" d="M943,1149.67c8.02,14.62,43.82-3.96,80.24,6.53c32.59,9.39,69.85,43.26,99.83,141.6       c0.59,0.42,11.5,7.87,23.79,2.57c8.17-3.52,13.78-11.32,14.6-20.25c-0.43-18.54-4.65-111.02-73.78-161.66       c-9.2-6.74-60.18-44.09-104.48-24.91C955.97,1105.34,935.78,1136.51,943,1149.67z"/><path fill="#fff" d="M996.61,1213.2c-2.97,5.93-6.52,9.72-10.61,10.14c-4.09,0.42-8.49-2.56-12.81-7.84      c-11.17-13.64-21.8-42.62-25.15-68.03c-2.49-18.92-0.92-35.69,1.69-48.9c20.41-12.46,41.43-11.3,47.22-10.74      c9.51,20.35,10.61,52.87,10.72,56.98C1008.25,1167.52,1004.39,1197.69,996.61,1213.2z"/><path fill="#ffcdad" d="M946.27,1063.49c-2.43,17.21,1.13,31.48,4.03,39.88c2.58,10.81,12.55,18.17,23.22,17.48        c11.42-0.74,20.73-10.5,20.89-22.42c0.71-13.23,0.71-28.38-0.71-45.03c-1.65-19.34-4.86-36.43-8.45-50.85        C979.45,1006.57,951.43,1026.95,946.27,1063.49z"/><path fill="#ffcdad" d="M919.98,988.63c-6.83,6.82-8.65,14.88-10.61,23.59c-1.68,7.46-11.05,49,13.48,65.31         c16.99,11.29,42.14,5.1,56.98-7.49c22.17-18.81,29.01-58.4,7.53-79.55C969.15,972.55,935.69,972.94,919.98,988.63z"/><path fill="#060352" d="M913,1009.98c-0.79-0.42-11.2-6.11-14.92-17.7c-4.54-14.13,2.42-32.13,12.98-35.71         c5.33-1.81,7.59,1.41,18.36,3.37c15.82,2.88,22.65-1.93,35.11-1.65c2.41,0.05,25.13,1.26,37.22,15.52         c20.33,23.98-1.55,70.67-7.68,70.04c-4.74-0.49,2.43-29.03-12.32-38.61C964.3,993.91,937.58,1022.95,913,1009.98z"/><path fill="#fff" d="M925,1066.35c4.91,0.99,13.01,1.89,22.59-0.56c6.89-1.76,12.3-4.68,16.02-7.12         c-0.64,1.8-4.11,10.98-12.88,14.85C942.16,1077.3,931.97,1074.48,925,1066.35z"/><path fill="#66f" d="M987.33,1080.69"/><path fill="#fff" d="M981.93,1114.76c-3.66-2.57,7.71-30.82,15.84-29.96c2.99,0.32,5.12,4.52,5.58,7.54      c1.31,8.66-9.93,16.09-15.14,19.53C984.65,1114.23,982.87,1115.41,981.93,1114.76z"/><path fill="#fff" d="M973.27,1116.21c-2.38,4.17-26.54,0.6-29.95-11.96c-1.01-3.71-0.45-9.11,2.56-10.9      c5.68-3.36,18.18,7.27,24.6,16.53C972.72,1113.11,973.99,1114.97,973.27,1116.21z"/><path fill="#dd4a71" d="M996.61,1213.2c-2.97,5.93-6.52,9.72-10.61,10.14c-4.09,0.42-8.49-2.56-12.81-7.84      c-0.29-32.1-0.57-64.2-0.86-96.3c3.72-0.09,7.44-0.18,11.16-0.27C987.86,1150.35,992.23,1181.78,996.61,1213.2z"/><path fill="#db3a55" d="M975.63,1108.6c-2.64,2.59-5.28,5.19-7.92,7.78c1.6,3.46,3.19,6.92,4.79,10.38      c0.86,0.52,2.54,1.36,4.78,1.45c3.75,0.16,6.37-1.89,7.06-2.46c0.35-4.24,0.7-8.47,1.05-12.71      C982.14,1111.57,978.89,1110.08,975.63,1108.6z"/><path fill="#db3a55" d="M977.64,1118.2"/><path fill="#060352" d="M1094.56,1797.93"/><g><path fill="#153663" d="M490.94,1826.22c27.7,10.01,48.97-4.07,57.67,7.53c3.98,5.3,3.3,13.25,1.37,18.23      c-11.84,30.63-104.82,37.42-119.63,9.44c-9.05-17.1,9.33-50.53,27.3-52.83C468.91,1807.15,471.15,1819.06,490.94,1826.22z"/><path fill="#153663" d="M349.8,1822.46c27.7,10.01,48.97-4.07,57.67,7.53c3.98,5.3,3.3,13.25,1.37,18.23      c-11.84,30.63-104.82,37.42-119.63,9.44c-9.05-17.1,9.33-50.53,27.3-52.83C327.78,1803.39,330.01,1815.3,349.8,1822.46z"/><path fill="#ffcdad" d="M543.65,1415.66c2.26,5.38-3.04,8.35-5.78,22c-1.19,5.95-1.36,11.02-1.53,16.41      c-0.36,11.27,1,12.84-0.41,18.29c-0.6,2.33-2.76,9.43-9.21,15.02c-6.69,5.79-16.87,8.98-26.37,6.37      c-13.89-3.81-23.51-19.2-21.6-30.98c2.52-15.49,22.98-13.37,35.85-37.38c4.66-8.7,5.64-15.9,11.98-17.83      C532.69,1405.72,541.14,1409.69,543.65,1415.66z"/><path fill="#ffcdad" d="M614.91,1257.35c3.94,4.31,8.85,0.74,22.39,3.98c5.9,1.41,10.57,3.39,15.54,5.49      c10.38,4.4,11.24,6.29,16.78,7.29c2.37,0.43,9.72,1.45,17.5-2.06c8.06-3.64,15.22-11.55,16.84-21.27      c2.37-14.21-7.57-29.4-19.06-32.6c-15.12-4.21-21.77,15.25-48.97,16.87c-9.85,0.59-16.8-1.55-21.21,3.4      C610.48,1243.23,610.54,1252.57,614.91,1257.35z"/><path fill="#0643a3" d="M472.27,1357.96c13.86,57.27,26.1,128.85,28.88,211.65c3.35,99.67-8.04,184.97-21.69,250.23      c-2.04,1.85-10.74,9.29-24,9.32c-14.56,0.03-23.81-8.91-25.53-10.63c-0.45-106.11-7.29-189.3-13.67-246.72      c-5.11-46-10.42-79.83-18.17-80.08c-6.65-0.21-13.89,24.28-23.96,82.96c-9.75,56.81-20.81,137.78-25.42,240.11      c-5.89,2.28-17.34,5.75-31.53,3.78c-7.77-1.08-14.04-3.47-18.48-5.62c-9.26-66.47-15.1-150.69-7.7-247.45      c6.75-88.28,22.77-164.23,39.86-224.93C377.99,1346.38,425.13,1352.17,472.27,1357.96z"/><path fill="#f8cd12" d="M502.74,1115.18c19.3,35.32,46.71,96.55,53.61,177.15c4.94,57.72-2.28,106.15-10.17,139.92      c-0.51,0.53-12.2,12.39-27.3,8.62c-9.08-2.26-14.12-8.86-15.6-10.97c8.85-32.24,17.14-81.32,2.3-134.87      c-22.93-82.71-87.17-125.99-71.11-157.86C439.65,1126.89,454.65,1114.95,502.74,1115.18z"/><path fill="#f9ae4b" d="M503.75,1114.74c18.94,22.41,19.56,47.93,19.89,61.54c0.63,25.87-7.49,45.63-18.05,71.29      c-10.06,24.45-14.89,27.35-21.86,46.07c-10.31,27.67-11.38,52.59-10.8,68.79c-16.02,3.91-44.11,8.56-78.12,2.4      c-28.89-5.23-50.66-16.19-63.95-24.24c-9.08-67.43-0.35-119.67,7.62-151.31c13.95-55.38,32.05-73.44,42.55-81.88      c6.87-5.53,31.39-25.24,66.08-22C452.11,1085.87,482.14,1089.16,503.75,1114.74z"/><path fill="#ffcdad" d="M482.63,1065.73c2.37,18.19-1.55,33.21-4.71,42.04c-2.85,11.38-13.45,19.03-24.71,18.18      c-12.04-0.91-21.76-11.32-21.79-23.91c-0.6-13.97-0.43-29.96,1.27-47.52c1.96-20.39,5.55-38.39,9.5-53.58      C448.25,1005.27,477.59,1027.1,482.63,1065.73z"/><path fill="#ffcdad" d="M511.22,987.02c7.13,7.28,8.95,15.81,10.93,25.02c1.69,7.9,11.1,51.85-14.97,68.77      c-18.06,11.73-44.54,4.9-60.06-8.56c-23.18-20.1-29.95-61.96-7.04-84.05C459.52,969.49,494.82,970.27,511.22,987.02z"/><path fill="#060352" d="M518.35,1009.62c11.91-1.25,22.83-2.55,31.77-10.92c15.05-14.07,20.27-44.18,4.58-60.95      c-11.68-12.48-33.82-16.36-43.13-8.04c-8.37,7.47-1.48,20.43-9.98,26.91c-8.09,6.16-18.03-2.36-37.04-2.15      c-2.55,0.03-26.54,1.04-39.46,15.95c-21.73,25.08,0.82,74.61,7.3,74.01c5.01-0.46-2.23-30.67,13.45-40.6      C461.24,994.08,479.38,1013.73,518.35,1009.62z"/><path fill="#fff" d="M505.04,1068.98c-5.2,0.99-13.75,1.85-23.83-0.85c-7.26-1.94-12.93-5.08-16.83-7.7      c0.66,1.91,4.21,11.64,13.43,15.82C486.8,1080.34,497.59,1077.49,505.04,1068.98z"/><path fill="#66f" d="M439.09,1083.41"/><path fill="#f8ea14" d="M410.12,1100.18c18.42,2.78,12.73,47.49,37.76,81.64c22.4,30.56,72.29,56.6,186.98,50.16      c0.66,0.45,12.69,9.03,11.86,23.96c-0.55,9.93-6.56,18.82-15.62,23.12c-19.61,6.69-118.23,37.89-197.98-15.12      c-10.61-7.05-69.42-46.14-66.37-99.99C368.62,1130.86,393.54,1097.68,410.12,1100.18z"/></g></g><g><path fill="#f8cd12" d="M1785.36,1847.65c0,0.42-0.05,0.85-0.14,1.26v0.12h-0.03c-1.08,4.32-7.15,8.42-17.3,12.17      c-1.6,0.59-3.29,1.17-5.08,1.73c-5.51,1.75-11.94,3.42-19.18,4.97c-1.65,0.35-3.35,0.7-5.08,1.05      c-6.18,1.22-12.89,2.37-20.05,3.44c-1.67,0.25-3.36,0.49-5.08,0.73c-5.91,0.82-12.11,1.59-18.57,2.3      c-1.68,0.19-3.37,0.37-5.08,0.54c-6.11,0.63-12.43,1.2-18.95,1.73c-1.68,0.13-3.38,0.26-5.08,0.39      c-6.51,0.49-13.2,0.91-20.05,1.29c-1.68,0.09-3.38,0.18-5.08,0.26c-6.07,0.3-12.27,0.55-18.57,0.76      c-1.69,0.05-3.38,0.11-5.08,0.15c-6.87,0.2-13.86,0.34-20.94,0.42c-1.69,0.02-3.38,0.03-5.08,0.05      c-2.99,0.02-5.99,0.03-9.01,0.03c-3.7,0-7.39-0.02-11.04-0.05c-1.7-0.01-3.39-0.03-5.08-0.05c-6.28-0.08-12.47-0.21-18.57-0.38      c-1.7-0.05-3.4-0.1-5.08-0.15c-5.94-0.19-11.8-0.43-17.54-0.7c-1.7-0.08-3.4-0.17-5.08-0.26c-6.85-0.36-13.54-0.78-20.05-1.25      c-1.7-0.12-3.4-0.25-5.08-0.38c-6.38-0.5-12.58-1.05-18.57-1.66c-1.71-0.17-3.41-0.34-5.08-0.53      c-7.32-0.78-14.32-1.65-20.94-2.58c-1.72-0.24-3.42-0.49-5.08-0.74c-7.17-1.07-13.88-2.23-20.05-3.46      c-1.74-0.35-3.43-0.7-5.08-1.06c-6.99-1.51-13.22-3.13-18.57-4.84c-1.79-0.57-3.49-1.15-5.08-1.73      c-10.15-3.75-16.23-7.85-17.3-12.17h-0.03v-0.12c-0.09-0.42-0.14-0.84-0.14-1.26c0-0.42,0.05-0.85,0.14-1.26v-47.4      c135.56,1.4,271.11,2.79,406.67,4.19v43.21C1785.31,1846.8,1785.36,1847.22,1785.36,1847.65z"/><ellipse cx="1581.88" cy="1800.91" fill="#f8ea14" rx="203.48" ry="33.38"/><path fill="#f09c23" d="M1765.65,1797.13c0,0.64-0.3,1.27-0.89,1.89c-9.14,9.65-87.53,17.18-182.88,17.18      c-95.35,0-173.74-7.54-182.89-17.18c-0.59-0.62-0.89-1.25-0.89-1.89c0-10.53,82.28-19.07,183.78-19.07      C1683.37,1778.06,1765.65,1786.6,1765.65,1797.13z"/><path fill="#f8cd12" d="M1764.76,1799.02c-9.14,9.65-87.53,17.18-182.88,17.18c-95.35,0-173.74-7.54-182.89-17.18      c9.13-9.65,87.52-17.19,182.89-17.19C1677.24,1781.84,1755.63,1789.37,1764.76,1799.02z"/><path fill="#f09c23" d="M1400.95,1824.96v37.97c-1.79-0.57-3.49-1.15-5.08-1.73v-36.24c0-1.4,1.14-2.54,2.54-2.54       C1399.81,1822.42,1400.95,1823.56,1400.95,1824.96z"/><path fill="#f09c23" d="M1424.61,1831.61v37.22c-1.74-0.35-3.43-0.7-5.08-1.06v-36.16c0-1.4,1.14-2.54,2.54-2.54       S1424.61,1830.21,1424.61,1831.61z"/><path fill="#f09c23" d="M1449.74,1836.8v36.23c-1.72-0.24-3.42-0.49-5.08-0.74v-35.49c0-1.41,1.14-2.54,2.54-2.54       C1448.6,1834.26,1449.74,1835.39,1449.74,1836.8z"/><path fill="#f09c23" d="M1475.77,1840.48v35.65c-1.71-0.17-3.41-0.34-5.08-0.53v-35.12c0-1.4,1.14-2.54,2.54-2.54       C1474.63,1837.94,1475.77,1839.08,1475.77,1840.48z"/><path fill="#f09c23" d="M1499.42,1842.86v35.31c-1.7-0.12-3.4-0.24-5.08-0.36v-34.95c0-1.31,1.14-2.38,2.54-2.38       C1498.29,1840.48,1499.42,1841.55,1499.42,1842.86z"/><path fill="#f09c23" d="M1524.56,1845.11v34.57c-1.7-0.07-3.4-0.15-5.08-0.23v-34.34c0-1.24,1.14-2.24,2.54-2.24       C1523.42,1842.87,1524.56,1843.87,1524.56,1845.11z"/><path fill="#f09c23" d="M1547.18,1847.56v32.98c-1.7-0.04-3.4-0.09-5.08-0.14v-32.85c0-1.25,1.14-2.26,2.54-2.26       C1546.04,1845.29,1547.18,1846.31,1547.18,1847.56z"/><path fill="#f09c23" d="M1570.84,1847.56v33.42c-1.7-0.01-3.39-0.03-5.08-0.05v-33.37c0-1.25,1.14-2.27,2.54-2.27       C1569.7,1845.29,1570.84,1846.31,1570.84,1847.56z"/><path fill="#f09c23" d="M1595.97,1847.56v33.39c-1.69,0.02-3.38,0.03-5.08,0.04v-33.43c0-1.25,1.14-2.27,2.54-2.27       C1594.84,1845.29,1595.97,1846.31,1595.97,1847.56z"/><path fill="#f09c23" d="M1622,1847.39v33.01c-1.69,0.05-3.38,0.1-5.08,0.14v-33.15c0-1.26,1.14-2.28,2.54-2.28       C1620.86,1845.11,1622,1846.13,1622,1847.39z"/><path fill="#f09c23" d="M1645.66,1845.11v34.27c-1.68,0.08-3.38,0.16-5.08,0.23v-34.5c0-1.24,1.14-2.24,2.54-2.24       S1645.66,1843.87,1645.66,1845.11z"/><path fill="#f09c23" d="M1670.79,1842.86v34.84c-1.68,0.12-3.38,0.25-5.08,0.36v-35.2c0-1.31,1.14-2.38,2.54-2.38       C1669.65,1840.48,1670.79,1841.55,1670.79,1842.86z"/><path fill="#f09c23" d="M1694.82,1839.65v35.75c-1.68,0.19-3.37,0.37-5.08,0.55v-36.31c0-1.44,1.14-2.6,2.54-2.6       C1693.69,1837.04,1694.82,1838.21,1694.82,1839.65z"/><path fill="#f09c23" d="M1718.48,1836.8v35.59c-1.67,0.25-3.36,0.49-5.08,0.73v-36.32c0-1.41,1.14-2.54,2.54-2.54       C1717.34,1834.26,1718.48,1835.39,1718.48,1836.8z"/><path fill="#f09c23" d="M1743.62,1831.61v36.29c-1.65,0.35-3.35,0.7-5.08,1.05v-37.34c0-1.4,1.14-2.54,2.54-2.54       C1742.48,1829.07,1743.62,1830.21,1743.62,1831.61z"/><path fill="#f09c23" d="M1767.88,1824.96v36.24c-1.6,0.59-3.29,1.17-5.08,1.73v-37.97c0-1.4,1.14-2.54,2.54-2.54       C1766.74,1822.42,1767.88,1823.56,1767.88,1824.96z"/><g><path fill="#f8cd12" d="M1777,1792.06c0,0.42-0.05,0.85-0.14,1.26v0.12h-0.03c-1.08,4.32-7.15,8.42-17.3,12.17      c-1.6,0.59-3.29,1.17-5.08,1.73c-5.51,1.75-11.94,3.42-19.18,4.97c-1.65,0.35-3.35,0.7-5.08,1.05      c-6.18,1.22-12.89,2.37-20.05,3.44c-1.67,0.25-3.36,0.49-5.08,0.73c-5.91,0.82-12.11,1.59-18.57,2.3      c-1.68,0.19-3.37,0.36-5.08,0.54c-6.11,0.63-12.43,1.2-18.95,1.72c-1.68,0.13-3.38,0.26-5.08,0.39      c-6.51,0.49-13.2,0.91-20.05,1.29c-1.69,0.09-3.38,0.18-5.08,0.26c-6.07,0.3-12.27,0.55-18.57,0.76      c-1.69,0.05-3.38,0.11-5.08,0.15c-6.87,0.2-13.86,0.34-20.94,0.42c-1.69,0.02-3.38,0.03-5.08,0.05      c-2.99,0.02-5.99,0.03-9.01,0.03c-3.7,0-7.39-0.02-11.04-0.05c-1.7-0.01-3.39-0.03-5.08-0.05c-6.28-0.08-12.47-0.21-18.57-0.38      c-1.7-0.05-3.4-0.1-5.08-0.15c-5.94-0.19-11.8-0.43-17.54-0.7c-1.7-0.08-3.4-0.17-5.08-0.26c-6.85-0.36-13.54-0.78-20.05-1.25      c-1.7-0.12-3.4-0.25-5.08-0.38c-6.38-0.5-12.58-1.05-18.57-1.66c-1.71-0.17-3.41-0.34-5.08-0.53      c-7.32-0.78-14.32-1.65-20.94-2.58c-1.72-0.24-3.42-0.49-5.08-0.74c-7.17-1.07-13.88-2.23-20.05-3.46      c-1.74-0.35-3.43-0.7-5.08-1.06c-6.99-1.52-13.22-3.13-18.57-4.84c-1.79-0.57-3.49-1.15-5.08-1.73      c-10.15-3.75-16.23-7.85-17.3-12.17h-0.03v-0.12c-0.09-0.42-0.14-0.84-0.14-1.26c0-0.42,0.05-0.85,0.14-1.26v-47.4      c135.56,1.4,271.11,2.79,406.67,4.19v43.21C1776.95,1791.22,1777,1791.64,1777,1792.06z"/><ellipse cx="1573.52" cy="1745.32" fill="#f8ea14" rx="203.48" ry="33.38"/><path fill="#f09c23" d="M1757.3,1741.55c0,0.64-0.3,1.27-0.89,1.89c-9.14,9.65-87.53,17.18-182.88,17.18      c-95.35,0-173.74-7.53-182.89-17.18c-0.59-0.62-0.89-1.25-0.89-1.89c0-10.53,82.28-19.07,183.78-19.07      C1675.02,1722.48,1757.3,1731.02,1757.3,1741.55z"/><path fill="#f8cd12" d="M1756.4,1743.44c-9.14,9.65-87.53,17.18-182.88,17.18c-95.35,0-173.74-7.53-182.89-17.18      c9.13-9.65,87.52-17.19,182.89-17.19C1668.88,1726.25,1747.28,1733.79,1756.4,1743.44z"/><path fill="#f09c23" d="M1392.6,1769.38v37.97c-1.79-0.57-3.49-1.15-5.08-1.73v-36.24c0-1.4,1.14-2.54,2.54-2.54       C1391.46,1766.83,1392.6,1767.97,1392.6,1769.38z"/><path fill="#f09c23" d="M1416.25,1776.03v37.22c-1.74-0.35-3.43-0.7-5.08-1.06v-36.16c0-1.4,1.14-2.54,2.54-2.54       C1415.11,1773.49,1416.25,1774.62,1416.25,1776.03z"/><path fill="#f09c23" d="M1441.39,1781.21v36.23c-1.72-0.24-3.42-0.49-5.08-0.74v-35.49c0-1.41,1.14-2.54,2.54-2.54       C1440.25,1778.67,1441.39,1779.81,1441.39,1781.21z"/><path fill="#f09c23" d="M1467.41,1784.9v35.65c-1.71-0.17-3.41-0.34-5.08-0.53v-35.12c0-1.4,1.14-2.54,2.54-2.54       C1466.27,1782.36,1467.41,1783.5,1467.41,1784.9z"/><path fill="#f09c23" d="M1491.07,1787.28v35.31c-1.7-0.12-3.4-0.24-5.08-0.36v-34.95c0-1.31,1.14-2.38,2.54-2.38       C1489.93,1784.9,1491.07,1785.97,1491.07,1787.28z"/><path fill="#f09c23" d="M1516.2,1789.53v34.57c-1.7-0.07-3.4-0.15-5.08-0.23v-34.34c0-1.24,1.14-2.24,2.54-2.24       C1515.07,1787.29,1516.2,1788.29,1516.2,1789.53z"/><path fill="#f09c23" d="M1538.83,1791.97v32.98c-1.7-0.04-3.4-0.09-5.08-0.14v-32.85c0-1.25,1.14-2.26,2.54-2.26       S1538.83,1790.72,1538.83,1791.97z"/><path fill="#f09c23" d="M1562.48,1791.98v33.42c-1.7-0.01-3.39-0.03-5.08-0.05v-33.37c0-1.25,1.14-2.27,2.54-2.27       C1561.34,1789.71,1562.48,1790.72,1562.48,1791.98z"/><path fill="#f09c23" d="M1587.62,1791.98v33.39c-1.69,0.02-3.38,0.03-5.08,0.04v-33.43c0-1.25,1.14-2.27,2.54-2.27       C1586.48,1789.71,1587.62,1790.72,1587.62,1791.98z"/><path fill="#f09c23" d="M1613.64,1791.8v33.01c-1.69,0.05-3.38,0.1-5.08,0.14v-33.15c0-1.26,1.14-2.28,2.54-2.28       S1613.64,1790.54,1613.64,1791.8z"/><path fill="#f09c23" d="M1637.3,1789.53v34.27c-1.69,0.08-3.38,0.16-5.08,0.23v-34.5c0-1.24,1.14-2.24,2.54-2.24       C1636.16,1787.29,1637.3,1788.29,1637.3,1789.53z"/><path fill="#f09c23" d="M1662.43,1787.28v34.84c-1.68,0.12-3.38,0.25-5.08,0.36v-35.2c0-1.31,1.14-2.38,2.54-2.38       C1661.3,1784.9,1662.43,1785.97,1662.43,1787.28z"/><path fill="#f09c23" d="M1686.47,1784.06v35.76c-1.68,0.19-3.37,0.37-5.08,0.55v-36.31c0-1.44,1.14-2.6,2.54-2.6       C1685.33,1781.46,1686.47,1782.63,1686.47,1784.06z"/><path fill="#f09c23" d="M1710.12,1781.21v35.59c-1.67,0.25-3.36,0.49-5.08,0.73v-36.32c0-1.41,1.14-2.54,2.54-2.54       C1708.98,1778.67,1710.12,1779.81,1710.12,1781.21z"/><path fill="#f09c23" d="M1735.26,1776.03v36.29c-1.65,0.35-3.35,0.7-5.08,1.05v-37.34c0-1.4,1.14-2.54,2.54-2.54       C1734.12,1773.49,1735.26,1774.62,1735.26,1776.03z"/><path fill="#f09c23" d="M1759.53,1769.38v36.24c-1.6,0.59-3.29,1.17-5.08,1.73v-37.97c0-1.4,1.14-2.54,2.54-2.54       C1758.39,1766.83,1759.53,1767.97,1759.53,1769.38z"/></g><g><path fill="#f8cd12" d="M1788.55,1733.38c0,0.42-0.05,0.85-0.14,1.26v0.12h-0.03c-1.08,4.32-7.15,8.42-17.3,12.17      c-1.6,0.59-3.29,1.17-5.08,1.73c-5.51,1.75-11.94,3.42-19.18,4.97c-1.65,0.35-3.35,0.7-5.08,1.05      c-6.18,1.22-12.89,2.37-20.05,3.44c-1.67,0.25-3.36,0.49-5.08,0.73c-5.91,0.82-12.11,1.59-18.57,2.3      c-1.68,0.19-3.37,0.36-5.08,0.54c-6.11,0.63-12.43,1.2-18.95,1.72c-1.68,0.13-3.37,0.26-5.08,0.39      c-6.51,0.49-13.2,0.91-20.05,1.29c-1.68,0.09-3.38,0.18-5.08,0.26c-6.07,0.3-12.27,0.55-18.57,0.76      c-1.69,0.05-3.38,0.11-5.08,0.15c-6.87,0.2-13.86,0.34-20.94,0.42c-1.69,0.02-3.38,0.03-5.08,0.05      c-2.99,0.02-5.99,0.03-9.01,0.03c-3.7,0-7.39-0.02-11.04-0.05c-1.7-0.01-3.39-0.03-5.08-0.05c-6.28-0.08-12.47-0.21-18.57-0.38      c-1.7-0.05-3.4-0.1-5.08-0.15c-5.94-0.19-11.8-0.43-17.54-0.7c-1.7-0.08-3.4-0.17-5.08-0.26c-6.85-0.36-13.54-0.78-20.05-1.25      c-1.7-0.12-3.4-0.25-5.08-0.38c-6.38-0.5-12.58-1.05-18.57-1.66c-1.71-0.17-3.41-0.34-5.08-0.53      c-7.32-0.78-14.32-1.65-20.94-2.58c-1.72-0.24-3.42-0.49-5.08-0.74c-7.17-1.07-13.88-2.23-20.05-3.46      c-1.74-0.35-3.43-0.7-5.08-1.06c-6.99-1.52-13.22-3.13-18.57-4.84c-1.79-0.57-3.49-1.15-5.08-1.73      c-10.15-3.75-16.23-7.85-17.3-12.17h-0.03v-0.12c-0.09-0.42-0.14-0.84-0.14-1.26c0-0.42,0.05-0.85,0.14-1.26v-47.4      c135.56,1.4,271.11,2.79,406.67,4.19v43.21C1788.51,1732.53,1788.55,1732.96,1788.55,1733.38z"/><ellipse cx="1585.07" cy="1686.64" fill="#f8ea14" rx="203.48" ry="33.38"/><path fill="#f09c23" d="M1768.85,1682.87c0,0.64-0.3,1.27-0.89,1.89c-9.14,9.65-87.53,17.18-182.88,17.18      c-95.35,0-173.74-7.54-182.89-17.18c-0.59-0.62-0.89-1.25-0.89-1.89c0-10.53,82.28-19.07,183.78-19.07      C1686.57,1663.8,1768.85,1672.34,1768.85,1682.87z"/><path fill="#f8cd12" d="M1767.96,1684.76c-9.14,9.65-87.53,17.18-182.88,17.18c-95.35,0-173.74-7.54-182.89-17.18      c9.13-9.65,87.52-17.19,182.89-17.19C1680.44,1667.57,1758.83,1675.11,1767.96,1684.76z"/><path fill="#f09c23" d="M1404.15,1710.69v37.97c-1.79-0.57-3.49-1.15-5.08-1.73v-36.24c0-1.4,1.14-2.54,2.54-2.54       C1403.01,1708.15,1404.15,1709.29,1404.15,1710.69z"/><path fill="#f09c23" d="M1427.81,1717.35v37.22c-1.74-0.35-3.43-0.7-5.08-1.06v-36.16c0-1.4,1.14-2.54,2.54-2.54       C1426.67,1714.81,1427.81,1715.94,1427.81,1717.35z"/><path fill="#f09c23" d="M1452.94,1722.53v36.23c-1.72-0.24-3.42-0.49-5.08-0.74v-35.49c0-1.41,1.14-2.54,2.54-2.54       C1451.8,1719.99,1452.94,1721.13,1452.94,1722.53z"/><path fill="#f09c23" d="M1478.97,1726.22v35.65c-1.71-0.17-3.41-0.34-5.08-0.53v-35.12c0-1.4,1.14-2.54,2.54-2.54       S1478.97,1724.81,1478.97,1726.22z"/><path fill="#f09c23" d="M1502.62,1728.6v35.31c-1.7-0.12-3.4-0.24-5.08-0.36v-34.95c0-1.31,1.14-2.38,2.54-2.38       C1501.49,1726.22,1502.62,1727.28,1502.62,1728.6z"/><path fill="#f09c23" d="M1527.76,1730.85v34.57c-1.7-0.07-3.4-0.15-5.08-0.23v-34.34c0-1.24,1.14-2.24,2.54-2.24       C1526.62,1728.6,1527.76,1729.61,1527.76,1730.85z"/><path fill="#f09c23" d="M1550.38,1733.29v32.98c-1.7-0.04-3.4-0.09-5.08-0.14v-32.85c0-1.25,1.14-2.26,2.54-2.26       C1549.24,1731.02,1550.38,1732.04,1550.38,1733.29z"/><path fill="#f09c23" d="M1574.03,1733.29v33.42c-1.7-0.01-3.39-0.03-5.08-0.05v-33.37c0-1.25,1.14-2.27,2.54-2.27       C1572.9,1731.03,1574.03,1732.04,1574.03,1733.29z"/><path fill="#f09c23" d="M1599.17,1733.29v33.39c-1.69,0.02-3.38,0.03-5.08,0.04v-33.43c0-1.25,1.14-2.27,2.54-2.27       C1598.03,1731.03,1599.17,1732.04,1599.17,1733.29z"/><path fill="#f09c23" d="M1625.2,1733.12v33.01c-1.69,0.05-3.38,0.1-5.08,0.14v-33.15c0-1.26,1.14-2.28,2.54-2.28       C1624.06,1730.84,1625.2,1731.86,1625.2,1733.12z"/><path fill="#f09c23" d="M1648.85,1730.85v34.27c-1.68,0.08-3.38,0.16-5.08,0.23v-34.5c0-1.24,1.14-2.24,2.54-2.24       C1647.72,1728.6,1648.85,1729.61,1648.85,1730.85z"/><path fill="#f09c23" d="M1673.99,1728.6v34.84c-1.68,0.12-3.37,0.25-5.08,0.36v-35.2c0-1.31,1.14-2.38,2.54-2.38       C1672.85,1726.22,1673.99,1727.28,1673.99,1728.6z"/><path fill="#f09c23" d="M1698.02,1725.38v35.75c-1.68,0.19-3.37,0.37-5.08,0.55v-36.31c0-1.44,1.14-2.6,2.54-2.6       C1696.89,1722.78,1698.02,1723.94,1698.02,1725.38z"/><path fill="#f09c23" d="M1721.68,1722.53v35.59c-1.67,0.25-3.36,0.49-5.08,0.73v-36.32c0-1.41,1.14-2.54,2.54-2.54       C1720.54,1719.99,1721.68,1721.13,1721.68,1722.53z"/><path fill="#f09c23" d="M1746.81,1717.35v36.29c-1.65,0.35-3.35,0.7-5.08,1.05v-37.34c0-1.4,1.14-2.54,2.54-2.54       C1745.67,1714.81,1746.81,1715.94,1746.81,1717.35z"/><path fill="#f09c23" d="M1771.08,1710.69v36.24c-1.6,0.59-3.29,1.17-5.08,1.73v-37.97c0-1.4,1.14-2.54,2.54-2.54       C1769.94,1708.15,1771.08,1709.29,1771.08,1710.69z"/></g><g><path fill="#f8cd12" d="M1819.41,1676.01c0,0.42-0.05,0.85-0.14,1.26v0.12h-0.03c-1.08,4.32-7.15,8.42-17.3,12.17      c-1.6,0.59-3.29,1.17-5.08,1.73c-5.51,1.75-11.94,3.42-19.18,4.97c-1.65,0.35-3.35,0.7-5.08,1.05      c-6.18,1.22-12.89,2.37-20.05,3.44c-1.67,0.25-3.36,0.49-5.08,0.73c-5.91,0.82-12.11,1.59-18.57,2.3      c-1.68,0.19-3.37,0.37-5.08,0.54c-6.11,0.63-12.43,1.2-18.95,1.72c-1.68,0.13-3.38,0.26-5.08,0.39      c-6.51,0.49-13.2,0.91-20.05,1.29c-1.68,0.09-3.38,0.18-5.08,0.26c-6.07,0.3-12.27,0.56-18.57,0.76      c-1.69,0.05-3.38,0.11-5.08,0.15c-6.87,0.2-13.86,0.34-20.94,0.42c-1.69,0.02-3.38,0.03-5.08,0.05      c-2.99,0.02-5.99,0.03-9.01,0.03c-3.7,0-7.39-0.02-11.04-0.05c-1.7-0.01-3.39-0.03-5.08-0.05c-6.28-0.08-12.47-0.21-18.57-0.38      c-1.7-0.05-3.4-0.1-5.08-0.15c-5.94-0.19-11.8-0.43-17.54-0.7c-1.7-0.08-3.4-0.17-5.08-0.26c-6.85-0.36-13.54-0.78-20.05-1.25      c-1.7-0.12-3.4-0.25-5.08-0.38c-6.38-0.5-12.58-1.05-18.57-1.66c-1.71-0.17-3.41-0.34-5.08-0.53      c-7.32-0.79-14.32-1.65-20.94-2.58c-1.72-0.24-3.42-0.49-5.08-0.74c-7.17-1.07-13.88-2.23-20.05-3.46      c-1.74-0.35-3.43-0.7-5.08-1.06c-6.99-1.52-13.22-3.13-18.57-4.84c-1.79-0.57-3.49-1.15-5.08-1.73      c-10.15-3.75-16.23-7.85-17.3-12.17h-0.03v-0.12c-0.09-0.42-0.14-0.84-0.14-1.26s0.05-0.84,0.14-1.26v-47.4      c135.56,1.4,271.11,2.79,406.67,4.19v43.21C1819.36,1675.17,1819.41,1675.59,1819.41,1676.01z"/><ellipse cx="1615.93" cy="1629.27" fill="#f8ea14" rx="203.48" ry="33.38"/><path fill="#f09c23" d="M1799.7,1625.5c0,0.64-0.3,1.27-0.89,1.89c-9.14,9.65-87.54,17.18-182.88,17.18      c-95.35,0-173.74-7.54-182.89-17.18c-0.59-0.62-0.89-1.25-0.89-1.89c0-10.53,82.28-19.07,183.78-19.07      C1717.42,1606.43,1799.7,1614.97,1799.7,1625.5z"/><path fill="#f8cd12" d="M1798.81,1627.39c-9.14,9.65-87.53,17.18-182.88,17.18c-95.35,0-173.74-7.54-182.89-17.18      c9.13-9.65,87.52-17.19,182.89-17.19C1711.29,1610.2,1789.68,1617.74,1798.81,1627.39z"/><path fill="#f09c23" d="M1435,1653.33v37.97c-1.79-0.57-3.49-1.15-5.08-1.73v-36.24c0-1.4,1.14-2.54,2.54-2.54       C1433.86,1650.79,1435,1651.92,1435,1653.33z"/><path fill="#f09c23" d="M1458.66,1659.98v37.22c-1.74-0.35-3.43-0.7-5.08-1.06v-36.16c0-1.4,1.14-2.54,2.54-2.54       S1458.66,1658.58,1458.66,1659.98z"/><path fill="#f09c23" d="M1483.79,1665.17v36.23c-1.72-0.24-3.42-0.49-5.08-0.74v-35.49c0-1.41,1.14-2.54,2.54-2.54       C1482.65,1662.62,1483.79,1663.76,1483.79,1665.17z"/><path fill="#f09c23" d="M1509.82,1668.85v35.65c-1.71-0.17-3.41-0.34-5.08-0.53v-35.12c0-1.4,1.14-2.54,2.54-2.54       S1509.82,1667.45,1509.82,1668.85z"/><path fill="#f09c23" d="M1533.47,1671.23v35.31c-1.7-0.12-3.4-0.24-5.08-0.36v-34.95c0-1.31,1.14-2.38,2.54-2.38       C1532.34,1668.85,1533.47,1669.92,1533.47,1671.23z"/><path fill="#f09c23" d="M1558.61,1673.48v34.57c-1.7-0.07-3.4-0.15-5.08-0.23v-34.34c0-1.24,1.14-2.24,2.54-2.24       C1557.47,1671.24,1558.61,1672.24,1558.61,1673.48z"/><path fill="#f09c23" d="M1581.23,1675.92v32.98c-1.7-0.04-3.4-0.09-5.08-0.14v-32.85c0-1.25,1.14-2.26,2.54-2.26       C1580.09,1673.66,1581.23,1674.67,1581.23,1675.92z"/><path fill="#f09c23" d="M1604.89,1675.93v33.42c-1.7-0.01-3.39-0.03-5.08-0.05v-33.37c0-1.25,1.14-2.27,2.54-2.27       C1603.75,1673.66,1604.89,1674.68,1604.89,1675.93z"/><path fill="#f09c23" d="M1630.02,1675.93v33.39c-1.69,0.02-3.38,0.03-5.08,0.04v-33.43c0-1.25,1.14-2.27,2.54-2.27       C1628.89,1673.66,1630.02,1674.68,1630.02,1675.93z"/><path fill="#f09c23" d="M1656.05,1675.75v33.01c-1.69,0.05-3.38,0.1-5.08,0.14v-33.15c0-1.26,1.14-2.28,2.54-2.28       C1654.91,1673.48,1656.05,1674.5,1656.05,1675.75z"/><path fill="#f09c23" d="M1679.71,1673.48v34.27c-1.68,0.08-3.38,0.16-5.08,0.23v-34.5c0-1.24,1.14-2.24,2.54-2.24       C1678.57,1671.24,1679.71,1672.24,1679.71,1673.48z"/><path fill="#f09c23" d="M1704.84,1671.23v34.84c-1.68,0.12-3.38,0.25-5.08,0.36v-35.2c0-1.31,1.14-2.38,2.54-2.38       C1703.7,1668.85,1704.84,1669.92,1704.84,1671.23z"/><path fill="#f09c23" d="M1728.87,1668.01v35.75c-1.68,0.19-3.37,0.37-5.08,0.55v-36.31c0-1.44,1.14-2.6,2.54-2.6       C1727.74,1665.41,1728.87,1666.58,1728.87,1668.01z"/><path fill="#f09c23" d="M1752.53,1665.17v35.59c-1.67,0.25-3.36,0.49-5.08,0.73v-36.32c0-1.41,1.14-2.54,2.54-2.54       C1751.39,1662.62,1752.53,1663.76,1752.53,1665.17z"/><path fill="#f09c23" d="M1777.66,1659.98v36.29c-1.65,0.35-3.35,0.7-5.08,1.05v-37.34c0-1.4,1.14-2.54,2.54-2.54       C1776.53,1657.44,1777.66,1658.58,1777.66,1659.98z"/><path fill="#f09c23" d="M1801.93,1653.33v36.24c-1.6,0.59-3.29,1.17-5.08,1.73v-37.97c0-1.4,1.14-2.54,2.54-2.54       S1801.93,1651.92,1801.93,1653.33z"/></g><g><path fill="#f8cd12" d="M1781.93,1622.37c0,0.42-0.05,0.85-0.14,1.26v0.12h-0.03c-1.08,4.32-7.15,8.42-17.3,12.17      c-1.6,0.59-3.29,1.17-5.08,1.73c-5.51,1.75-11.94,3.42-19.18,4.97c-1.65,0.35-3.35,0.7-5.08,1.05      c-6.18,1.22-12.89,2.37-20.05,3.44c-1.67,0.25-3.36,0.49-5.08,0.73c-5.91,0.82-12.11,1.59-18.57,2.3      c-1.68,0.19-3.37,0.37-5.08,0.54c-6.11,0.63-12.43,1.2-18.95,1.73c-1.68,0.13-3.37,0.26-5.08,0.39      c-6.51,0.49-13.2,0.91-20.05,1.29c-1.68,0.09-3.38,0.18-5.08,0.26c-6.07,0.3-12.27,0.55-18.57,0.76      c-1.69,0.05-3.38,0.11-5.08,0.15c-6.87,0.2-13.86,0.34-20.94,0.42c-1.69,0.02-3.38,0.03-5.08,0.05      c-2.99,0.02-5.99,0.03-9.01,0.03c-3.7,0-7.39-0.02-11.04-0.05c-1.7-0.01-3.39-0.03-5.08-0.05c-6.28-0.08-12.47-0.21-18.57-0.38      c-1.7-0.05-3.4-0.1-5.08-0.15c-5.94-0.19-11.8-0.43-17.54-0.7c-1.7-0.08-3.4-0.17-5.08-0.26c-6.85-0.36-13.54-0.78-20.05-1.25      c-1.7-0.12-3.4-0.25-5.08-0.38c-6.38-0.5-12.58-1.05-18.58-1.66c-1.71-0.17-3.41-0.35-5.08-0.53      c-7.32-0.78-14.32-1.65-20.94-2.58c-1.72-0.24-3.42-0.49-5.08-0.74c-7.17-1.07-13.88-2.23-20.05-3.46      c-1.74-0.35-3.43-0.7-5.08-1.06c-6.99-1.51-13.22-3.13-18.57-4.84c-1.79-0.57-3.49-1.15-5.08-1.73      c-10.15-3.75-16.23-7.85-17.3-12.17h-0.03v-0.12c-0.09-0.42-0.14-0.84-0.14-1.26c0-0.42,0.05-0.84,0.14-1.26v-47.4      c135.56,1.4,271.11,2.79,406.67,4.19v43.21C1781.88,1621.52,1781.93,1621.94,1781.93,1622.37z"/><ellipse cx="1578.45" cy="1575.63" fill="#f8ea14" rx="203.48" ry="33.38"/><path fill="#f09c23" d="M1762.22,1571.85c0,0.64-0.3,1.27-0.89,1.89c-9.14,9.65-87.54,17.18-182.88,17.18      c-95.35,0-173.74-7.53-182.89-17.18c-0.59-0.62-0.89-1.25-0.89-1.89c0-10.53,82.28-19.07,183.78-19.07      C1679.94,1552.79,1762.22,1561.32,1762.22,1571.85z"/><path fill="#f8cd12" d="M1761.33,1573.74c-9.14,9.65-87.54,17.18-182.88,17.18c-95.35,0-173.74-7.53-182.89-17.18      c9.13-9.65,87.52-17.19,182.89-17.19C1673.81,1556.56,1752.21,1564.1,1761.33,1573.74z"/><path fill="#f09c23" d="M1397.53,1599.68v37.97c-1.79-0.57-3.49-1.15-5.08-1.73v-36.24c0-1.4,1.14-2.54,2.54-2.54       C1396.39,1597.14,1397.53,1598.28,1397.53,1599.68z"/><path fill="#f09c23" d="M1421.18,1606.33v37.22c-1.74-0.35-3.43-0.7-5.08-1.06v-36.16c0-1.4,1.14-2.54,2.54-2.54       C1420.04,1603.79,1421.18,1604.93,1421.18,1606.33z"/><path fill="#f09c23" d="M1446.31,1611.52v36.23c-1.72-0.24-3.42-0.49-5.08-0.74v-35.49c0-1.41,1.14-2.54,2.54-2.54       C1445.18,1608.98,1446.31,1610.11,1446.31,1611.52z"/><path fill="#f09c23" d="M1472.34,1615.21v35.65c-1.71-0.17-3.41-0.35-5.08-0.53v-35.12c0-1.4,1.14-2.54,2.54-2.54       C1471.2,1612.66,1472.34,1613.8,1472.34,1615.21z"/><path fill="#f09c23" d="M1496,1617.59v35.31c-1.7-0.12-3.4-0.24-5.08-0.36v-34.95c0-1.31,1.14-2.38,2.54-2.38       C1494.86,1615.21,1496,1616.27,1496,1617.59z"/><path fill="#f09c23" d="M1521.13,1619.83v34.57c-1.7-0.07-3.4-0.15-5.08-0.23v-34.34c0-1.24,1.14-2.24,2.54-2.24       C1520,1617.59,1521.13,1618.6,1521.13,1619.83z"/><path fill="#f09c23" d="M1543.75,1622.28v32.98c-1.7-0.04-3.4-0.09-5.08-0.14v-32.85c0-1.25,1.14-2.26,2.54-2.26       C1542.62,1620.01,1543.75,1621.03,1543.75,1622.28z"/><path fill="#f09c23" d="M1567.41,1622.28v33.42c-1.7-0.01-3.39-0.03-5.08-0.05v-33.37c0-1.25,1.14-2.27,2.54-2.27       C1566.27,1620.01,1567.41,1621.03,1567.41,1622.28z"/><path fill="#f09c23" d="M1592.54,1622.28v33.39c-1.69,0.02-3.38,0.03-5.08,0.04v-33.43c0-1.25,1.14-2.27,2.54-2.27       C1591.41,1620.01,1592.54,1621.03,1592.54,1622.28z"/><path fill="#f09c23" d="M1618.57,1622.11v33.01c-1.69,0.05-3.38,0.1-5.08,0.14v-33.15c0-1.26,1.14-2.28,2.54-2.28       C1617.43,1619.83,1618.57,1620.85,1618.57,1622.11z"/><path fill="#f09c23" d="M1642.23,1619.83v34.27c-1.68,0.08-3.38,0.16-5.08,0.23v-34.5c0-1.24,1.14-2.24,2.54-2.24       C1641.09,1617.59,1642.23,1618.6,1642.23,1619.83z"/><path fill="#f09c23" d="M1667.36,1617.59v34.84c-1.68,0.12-3.37,0.25-5.08,0.36v-35.2c0-1.31,1.14-2.38,2.54-2.38       C1666.22,1615.21,1667.36,1616.27,1667.36,1617.59z"/><path fill="#f09c23" d="M1691.39,1614.37v35.76c-1.68,0.19-3.37,0.37-5.08,0.55v-36.31c0-1.44,1.14-2.6,2.54-2.6       C1690.26,1611.77,1691.39,1612.93,1691.39,1614.37z"/><path fill="#f09c23" d="M1715.05,1611.52v35.59c-1.67,0.25-3.36,0.49-5.08,0.73v-36.32c0-1.41,1.14-2.54,2.54-2.54       C1713.91,1608.98,1715.05,1610.11,1715.05,1611.52z"/><path fill="#f09c23" d="M1740.19,1606.33v36.29c-1.65,0.35-3.35,0.7-5.08,1.05v-37.34c0-1.4,1.14-2.54,2.54-2.54       C1739.05,1603.79,1740.19,1604.93,1740.19,1606.33z"/><path fill="#f09c23" d="M1764.45,1599.68v36.24c-1.6,0.59-3.29,1.17-5.08,1.73v-37.97c0-1.4,1.14-2.54,2.54-2.54       C1763.32,1597.14,1764.45,1598.28,1764.45,1599.68z"/></g><path fill="#fff" d="M1766.54,1644.57c-45.29,2.93-47.67,5.31-50.6,50.6c-2.93-45.29-5.31-47.67-50.6-50.6     c45.29-2.93,47.67-5.31,50.6-50.6C1718.87,1639.26,1721.25,1641.64,1766.54,1644.57z"/><path fill="#fff" d="M1626.83,1784.29c-45.29,2.93-47.67,5.31-50.6,50.6c-2.93-45.29-5.31-47.67-50.6-50.6     c45.29-2.93,47.67-5.31,50.6-50.6C1579.16,1778.97,1581.54,1781.35,1626.83,1784.29z"/><path fill="#fff" d="M1504.52,1656.77c-45.29,2.93-47.67,5.31-50.6,50.6c-2.93-45.29-5.31-47.67-50.6-50.6     c45.29-2.93,47.67-5.31,50.6-50.6C1456.85,1651.46,1459.23,1653.84,1504.52,1656.77z"/></g><g><circle cx="1582.53" cy="1394.9" r="184.51" fill="#f8ea14"/><circle cx="1582.53" cy="1394.9" r="163.03" fill="#f09c23" transform="rotate(-45.001 1582.524 1394.921)"/><circle cx="1582.53" cy="1394.9" r="153.35" fill="#f8cd12"/><path fill="#e34f25" d="M1658.79,1439.87     c0.56,10.91-0.81,20.52-4.33,29.08c-3.52,8.56-8.74,15.8-15.87,21.99c-6.91,5.94-15.28,10.79-25.33,14.32     c-3.67,1.12-7.33,2.24-11.24,3.13l0.38,7.43c0.28,5.57-4.12,10.45-9.46,10.72l-7.66,0.39c-5.34,0.27-10.22-4.13-10.5-9.7     l-0.3-5.8c-5.34,0.27-10.48-0.16-15.63-0.83c-6.78-0.59-12.9-1.9-18.32-3.25c-5.44-1.59-9.94-3.22-13.75-4.88     c-4.04-1.66-6.69-3.38-8.39-4.69c-1.94-1.53-3.21-3.56-4.04-6.31c-1.07-2.74-1.74-6.66-1.97-11.3c-0.15-3.02-0.05-5.58,0.32-7.46     c0.13-2.1,0.51-3.75,0.68-4.92c0.39-1.42,1.04-2.38,1.95-2.89c0.91-0.51,1.82-0.79,2.75-0.84c1.86-0.09,4.46,0.7,7.81,2.63     c3.36,1.92,7.65,4.03,12.66,6.34c4.99,2.07,10.91,4.1,17.52,5.86c6.84,1.75,14.56,2.51,23.15,2.08c6.5-0.33,12.5-1.34,17.52-3.22     c5.28-1.43,9.82-3.76,13.39-6.73c3.8-2.99,6.64-6.62,8.52-10.91c1.88-4.28,2.54-9.44,2.25-15.24c-0.3-5.8-1.94-10.61-5.17-14.63     c-3.22-3.79-7.34-7.07-12.38-10.07c-5.26-2.76-10.97-5.26-17.36-7.26c-6.17-2.24-12.78-4.23-19.42-6.69     c-6.63-2.22-13.28-4.91-19.72-7.84c-6.44-3.16-12.22-6.82-17.34-11.45c-5.12-4.62-9.59-9.98-12.71-16.57     c-3.36-6.58-5.39-14.39-5.86-23.67c-0.43-8.36,0.8-16.33,3.67-23.93c2.64-7.58,7.17-14.56,13.15-20.45     c6.21-5.9,13.87-10.95,23.21-14.91c3.64-1.58,7.77-2.72,11.9-3.87l-0.5-9.75c-0.29-5.57,4.13-10.22,9.47-10.49l7.66-0.39     c5.34-0.27,10.21,3.9,10.49,9.47l0.41,8.12c3.49,0.06,7,0.34,10.51,0.63c5.62,0.64,10.8,1.78,15.28,2.94     c4.48,1.17,8.51,2.59,11.84,4.05c3.11,1.7,5.74,2.97,7.43,4.28c1.68,1.08,2.67,2.19,3.42,3.08c0.51,0.91,1.02,1.81,1.31,2.96     c0.29,1.15,0.6,2.53,0.92,4.37c0.31,1.61,0.42,3.7,0.55,6.26c0.13,2.55,0.25,4.88,0.11,6.74c-0.14,1.87-0.52,3.52-0.92,4.7     c-0.63,1.43-1.05,2.15-1.95,2.89c-0.67,0.5-1.59,0.78-2.52,0.83c-1.39,0.07-3.3-0.76-6.17-2.25c-2.64-1.49-6.21-3.17-10.5-5.05     c-4.27-1.64-9.24-3.25-15.13-4.58c-5.66-1.57-12.21-2.17-19.41-1.8c-6.73,0.34-12.25,1.56-17.29,3.21     c-4.8,1.64-8.88,3.94-11.75,6.88c-3.12,2.72-5.51,6.1-6.71,9.88c-1.67,3.81-2.16,7.79-1.94,12.2c0.31,6.03,2.19,11.06,5.41,14.85     c3.23,4.03,7.59,7.29,12.63,10.3c5.03,2.77,10.97,5.26,17.37,7.49c6.63,2.22,13.03,4.45,19.89,6.67     c6.63,2.22,13.28,4.91,19.95,7.83c6.43,2.93,12.44,6.58,17.55,10.97c5.34,4.38,9.57,9.75,12.92,16.1     C1656.55,1423.23,1658.34,1431.05,1658.79,1439.87L1658.79,1439.87z"/><path fill="#fff" d="M1728.15,1275.05c-44.88,2.91-47.23,5.26-50.14,50.14c-2.91-44.88-5.26-47.23-50.14-50.14     c44.88-2.91,47.23-5.26,50.14-50.14C1680.91,1269.79,1683.27,1272.15,1728.15,1275.05z"/></g></svg>