<svg xmlns="http://www.w3.org/2000/svg" enable-background="new 0 0 2000 2000" viewBox="0 0 2000 2000"><rect width="2000" height="2000" fill="#fff" fill-rule="evenodd" clip-rule="evenodd" display="none"/><path fill="#d5f0ff" d="M307.58,1359.79c19.22,29.67,207.5,255.11,359.27,257.85c136.87,2.47,181.26-195.94,325.02-181.25  c107.05,10.94,120.67,124.87,244.7,164.42c121.91,38.87,283.1-8.02,364.25-95.77c422.15-456.43,199.57-1136.24-156.86-1327.9  C1283.01,90.6,1185.1,329.93,847.07,287.13C643.8,261.4,681.66,139.61,506.53,220.41C303.32,314.16-25.45,845.69,307.58,1359.79z" display="none" opacity=".5"/><path fill="#d5f0ff" d="M1511.98,837.31c25.94,90.6,131.23,67.81,195.44,172.03c66.7,108.26,53.39,289.64-46.47,397.75     c-101.33,109.71-251.31,100.17-324.43,95.52c-120.17-7.64-161.38-50.81-254.55-78.6c-326.15-97.28-538.93,217.61-743.61,105.39     c-111.37-61.06-176.74-224.83-144.13-339.07c55.81-195.54,406.92-222.57,400.48-321.73c-5.4-83.32-254.01-74.81-285.65-199.11     c-28.36-111.44,136.97-253.8,249.3-315.34c51.77-28.36,203.55-114.5,318.7-49.72c91.1,51.25,80.49,145.74,162.24,170.49     c98.56,29.84,148.51-97.05,292.9-104.46c106.39-5.46,235.86,55.39,259.17,153.71C1618.77,639.76,1480.7,728.04,1511.98,837.31z" opacity=".43"/><path fill="#d5f0ff" d="M1602.75,799.89c25.94,90.6,131.23,67.81,195.44,172.03c66.7,108.26,53.39,289.64-46.47,397.75     c-101.33,109.71-251.31,100.17-324.43,95.52c-120.17-7.64-161.38-50.81-254.55-78.6c-326.15-97.28-538.93,217.61-743.61,105.39     c-111.37-61.06-176.74-224.83-144.13-339.07c55.81-195.54,406.92-222.57,400.48-321.73c-5.4-83.32-254.01-74.81-285.65-199.11     c-28.36-111.44,136.97-253.8,249.3-315.34c51.77-28.36,203.55-114.5,318.7-49.72c91.1,51.25,80.49,145.74,162.24,170.49     c98.56,29.84,148.51-97.05,292.9-104.46c106.39-5.46,235.86,55.39,259.17,153.71C1709.54,602.33,1571.46,690.61,1602.75,799.89z" opacity=".5"/><ellipse cx="1055.42" cy="1857.11" fill="#dfe6ff" rx="825.41" ry="78.24"/><path fill="#62cbec" d="M530.7,1633.12c68.08-27.65,48.88-321.36-68.36-380.13c-7.63-3.83-50.34-25.23-93.14-9.48      c-46.12,16.97-63.54,66.49-65.54,72.17C261.13,1436.55,462.11,1660.98,530.7,1633.12z"/><path fill="#bbe6f9" d="M524.39,1644.5c68.08-27.65,48.88-321.36-68.36-380.13c-7.63-3.83-50.34-25.23-93.14-9.48      c-46.12,16.97-63.55,66.49-65.54,72.17C254.82,1447.93,455.8,1672.36,524.39,1644.5z"/><path fill="#84b2fe" d="M581.72,1725.03c0.04-0.02,0.07-0.05,0.1-0.08c1.51-1.14,1.78-3.31,0.61-4.84        c-54.36-71.1-98.67-148.99-131.72-231.51c-26.42-65.98-45.59-134.97-56.99-205.05c-0.31-1.89-2.08-3.21-3.97-2.94        c-1.88,0.27-3.16,2.02-2.85,3.91c11.48,70.58,30.8,140.07,57.41,206.53c33.28,83.12,77.92,161.58,132.67,233.19        C578.12,1725.74,580.22,1726.08,581.72,1725.03z"/><path fill="#84b2fe" d="M415.15,1396.02c0.58-0.41,1.04-1,1.27-1.74c0.57-1.81-0.44-3.77-2.26-4.39        c-16.78-5.65-32.15-14.34-45.69-25.83c-13.12-11.14-23.96-24.44-32.22-39.53c-0.92-1.69-3.03-2.34-4.7-1.45        c-1.67,0.89-2.27,2.98-1.35,4.67c8.68,15.86,20.07,29.84,33.86,41.54c14.23,12.08,30.38,21.21,48.02,27.15        C413.17,1396.82,414.29,1396.62,415.15,1396.02z"/><path fill="#84b2fe" d="M462.56,1533.19c0.83-0.58,1.39-1.53,1.44-2.63c0.08-1.91-1.4-3.55-3.3-3.67        c-17.58-1.12-34.59-5.56-50.58-13.2c-15.49-7.4-29.35-17.5-41.2-30.01c-1.33-1.4-3.51-1.49-4.89-0.18        c-1.37,1.3-1.41,3.49-0.08,4.89c12.45,13.15,27.02,23.76,43.3,31.54c16.8,8.03,34.68,12.7,53.15,13.88        C461.2,1533.84,461.96,1533.61,462.56,1533.19z"/><path fill="#84b2fe" d="M448.24,1445.82c11.72-8.19,22.02-18.1,30.74-29.56c10.73-14.11,18.59-29.97,23.36-47.15        c0.51-1.83-0.57-3.76-2.41-4.3c-1.84-0.55-3.74,0.49-4.25,2.32c-4.54,16.35-12.02,31.45-22.23,44.87        c-10.54,13.85-23.53,25.32-38.6,34.09c-1.63,0.96-2.16,3.07-1.18,4.72c0.99,1.66,3.11,2.23,4.74,1.28        C441.79,1450.13,445.06,1448.04,448.24,1445.82z"/><path fill="#84b2fe" d="M501.85,1603.16c0.15-0.11,0.3-0.23,0.43-0.36c13.06-12.83,23.31-27.9,30.48-44.78        c6.95-16.36,10.69-33.74,11.13-51.65c0.05-1.91-1.46-3.53-3.37-3.61c-1.91-0.09-3.49,1.39-3.54,3.3        c-0.42,17.05-3.99,33.58-10.59,49.15c-6.82,16.07-16.58,30.4-29,42.61c-1.35,1.32-1.35,3.51,0.01,4.89        C498.61,1603.95,500.5,1604.11,501.85,1603.16z"/><path fill="#75d9ef" d="M491.05,1679c-20.33,63.4-285.84,65.65-346.54-36.43c-3.95-6.65-26.06-43.83-14.75-83.58      c12.19-42.84,55.57-61.89,60.55-64.08C296.22,1448.39,511.53,1615.13,491.05,1679z"/><path fill="#cdecf7" d="M500.87,1672.55c-20.33,63.4-285.84,65.65-346.54-36.43c-3.95-6.65-26.06-43.83-14.75-83.58      c12.19-42.84,55.57-61.89,60.55-64.08C306.03,1441.94,521.34,1608.67,500.87,1672.55z"/><path fill="#9dc2f9" d="M577.14,1719c-0.02,0.03-0.04,0.07-0.06,0.1c-0.93,1.44-2.86,1.83-4.31,0.87        c-67.59-44.4-140.62-79.27-217.07-103.64c-61.12-19.48-124.47-32.21-188.27-37.84c-1.72-0.15-3.02-1.67-2.91-3.39        c0.12-1.72,1.61-2.99,3.33-2.84c64.27,5.67,128.07,18.49,189.63,38.12c77,24.54,150.56,59.66,218.64,104.38        C577.54,1715.7,577.98,1717.57,577.14,1719z"/><path fill="#9dc2f9" d="M270.04,1590.36c-0.33,0.55-0.83,1.01-1.48,1.27c-1.59,0.64-3.42-0.14-4.1-1.75        c-6.2-14.79-15.05-28.11-26.29-39.59c-10.89-11.12-23.58-20.03-37.71-26.49c-1.58-0.72-2.31-2.58-1.62-4.15        c0.69-1.57,2.53-2.26,4.11-1.53c14.85,6.79,28.19,16.16,39.63,27.84c11.82,12.06,21.11,26.06,27.63,41.6        C270.62,1588.52,270.52,1589.55,270.04,1590.36z"/><path fill="#9dc2f9" d="M396.6,1624.07c-0.47,0.79-1.28,1.36-2.27,1.47c-1.71,0.2-3.29-1.03-3.52-2.74        c-2.18-15.82-7.32-30.91-15.26-44.85c-7.69-13.51-17.7-25.37-29.75-35.25c-1.35-1.11-1.57-3.08-0.49-4.41        c1.08-1.33,3.04-1.51,4.39-0.4c12.66,10.38,23.18,22.84,31.26,37.04c8.34,14.65,13.74,30.51,16.03,47.13        C397.09,1622.8,396.94,1623.5,396.6,1624.07z"/><path fill="#9dc2f9" d="M317.05,1616.95c-6.59,11.14-14.81,21.12-24.54,29.77c-11.97,10.65-25.72,18.81-40.86,24.27        c-1.61,0.58-3.42-0.27-4.03-1.89c-0.61-1.63,0.2-3.42,1.81-4c14.41-5.19,27.49-12.96,38.88-23.09        c11.76-10.45,21.21-22.96,28.09-37.17c0.75-1.54,2.61-2.16,4.17-1.38c1.56,0.78,2.21,2.66,1.47,4.2        C320.49,1610.83,318.83,1613.94,317.05,1616.95z"/><path fill="#9dc2f9" d="M462.17,1654.92c-0.08,0.14-0.18,0.28-0.29,0.41c-10.67,12.66-23.54,22.94-38.25,30.54        c-14.25,7.37-29.64,11.92-45.72,13.51c-1.71,0.17-3.27-1.09-3.48-2.81c-0.21-1.72,1.02-3.25,2.73-3.42        c15.31-1.52,29.95-5.85,43.51-12.86c14-7.24,26.24-17.02,36.4-29.07c1.1-1.31,3.07-1.45,4.4-0.32        C462.66,1651.94,462.93,1653.64,462.17,1654.92z"/><g><path fill="#84b2fe" d="M1220.64,565.82V145.7c0-44.77-33.08-81.06-73.89-81.06l0,0H893.11H758.46     c35.23,12.3,60.75,48.47,60.75,91.2v420.11c0,44.77,33.08,81.06,73.89,81.06h0h253.65h134.64     C1246.17,644.71,1220.64,608.54,1220.64,565.82z"/><line x1="861.93" x2="1177.93" y1="198.11" y2="198.11" fill="#fff"/><path fill="#fff" d="M1177.93,201.49h-316c-1.86,0-3.37-1.52-3.37-3.39s1.51-3.39,3.37-3.39h316c1.86,0,3.37,1.52,3.37,3.39       S1179.79,201.49,1177.93,201.49z"/><line x1="861.93" x2="1177.93" y1="223.21" y2="223.21" fill="#fff"/><path fill="#fff" d="M1177.93,226.6h-316c-1.86,0-3.37-1.52-3.37-3.39c0-1.87,1.51-3.39,3.37-3.39h316       c1.86,0,3.37,1.52,3.37,3.39C1181.3,225.08,1179.79,226.6,1177.93,226.6z"/><line x1="861.93" x2="1177.93" y1="246.83" y2="246.83" fill="#fff"/><path fill="#fff" d="M1177.93,250.22h-316c-1.86,0-3.37-1.52-3.37-3.39c0-1.87,1.51-3.39,3.37-3.39h316       c1.86,0,3.37,1.52,3.37,3.39C1181.3,248.7,1179.79,250.22,1177.93,250.22z"/><path fill="#fff" d="M919.69,345.74h-56.96c-2.31,0-4.18-1.87-4.18-4.18v-56.95c0-2.31,1.87-4.18,4.18-4.18h56.96       c2.31,0,4.18,1.87,4.18,4.18v56.95C923.87,343.87,922,345.74,919.69,345.74z M866.91,337.39h48.6v-48.6h-48.6V337.39z"/><path fill="#fff" d="M890.4,334.6c-1.11,0-2.17-0.44-2.96-1.22l-15.31-15.31c-1.63-1.63-1.63-4.28,0-5.91       c1.63-1.63,4.28-1.63,5.91,0l12.08,12.08c6.12-7.03,13.12-13.24,20.84-18.49c8.92-6.07,18.67-10.77,28.97-13.97       c2.2-0.68,4.55,0.55,5.23,2.75c0.68,2.2-0.55,4.55-2.75,5.23c-9.51,2.95-18.51,7.29-26.75,12.9       c-8.32,5.66-15.72,12.51-22,20.38c-0.74,0.93-1.85,1.5-3.03,1.56C890.56,334.59,890.48,334.6,890.4,334.6z"/><path fill="#fff" d="M919.69,455.38h-56.96c-2.31,0-4.18-1.87-4.18-4.18v-56.95c0-2.31,1.87-4.18,4.18-4.18h56.96       c2.31,0,4.18,1.87,4.18,4.18v56.95C923.87,453.51,922,455.38,919.69,455.38z M866.91,447.02h48.6v-48.6h-48.6V447.02z"/><path fill="#fff" d="M890.4,444.23c-1.11,0-2.17-0.44-2.96-1.22l-15.31-15.31c-1.63-1.63-1.63-4.28,0-5.91       c1.63-1.63,4.28-1.63,5.91,0l12.08,12.08c6.12-7.03,13.12-13.24,20.84-18.49c8.92-6.07,18.67-10.77,28.97-13.97       c2.2-0.69,4.55,0.55,5.23,2.75c0.68,2.2-0.55,4.55-2.75,5.23c-9.51,2.95-18.51,7.29-26.75,12.9       c-8.32,5.66-15.72,12.52-22,20.38c-0.74,0.93-1.85,1.5-3.03,1.56C890.56,444.23,890.48,444.23,890.4,444.23z"/><path fill="#fff" d="M919.69,564.28h-56.96c-2.31,0-4.18-1.87-4.18-4.18v-56.95c0-2.31,1.87-4.18,4.18-4.18h56.96       c2.31,0,4.18,1.87,4.18,4.18v56.95C923.87,562.4,922,564.28,919.69,564.28z M866.91,555.92h48.6v-48.6h-48.6V555.92z"/><path fill="#fff" d="M890.4,553.13c-1.11,0-2.17-0.44-2.96-1.22l-15.31-15.31c-1.63-1.63-1.63-4.28,0-5.91       c1.63-1.63,4.28-1.63,5.91,0l12.08,12.08c6.12-7.03,13.12-13.24,20.84-18.49c8.92-6.07,18.67-10.77,28.97-13.97       c2.2-0.68,4.55,0.55,5.23,2.75c0.68,2.2-0.55,4.55-2.75,5.23c-9.51,2.95-18.51,7.29-26.75,12.9       c-8.32,5.66-15.72,12.51-22,20.38c-0.74,0.93-1.85,1.5-3.03,1.56C890.56,553.12,890.48,553.13,890.4,553.13z"/><path fill="#fff" d="M1100.6,303.58c25.51,0,51.02,0,76.53,0"/><path fill="#fff" d="M1177.13,307.25h-76.54c-2.3,0-4.17-1.64-4.17-3.67c0-2.03,1.87-3.67,4.17-3.67h76.54        c2.3,0,4.17,1.64,4.17,3.67C1181.3,305.6,1179.44,307.25,1177.13,307.25z"/><path fill="#fff" d="M1000.06,303.58c28.68,0,57.36,0,86.04,0"/><path fill="#fff" d="M1086.11,307.25h-86.05c-2.3,0-4.17-1.64-4.17-3.67c0-2.03,1.87-3.67,4.17-3.67h86.05        c2.3,0,4.17,1.64,4.17,3.67C1090.28,305.6,1088.41,307.25,1086.11,307.25z"/><path fill="#fff" d="M1000.06,284.1c59.02,0,118.04,0,177.07,0"/><path fill="#fff" d="M1177.13,287.77h-177.07c-2.3,0-4.17-1.64-4.17-3.67c0-2.03,1.87-3.67,4.17-3.67h177.07        c2.3,0,4.17,1.64,4.17,3.67C1181.3,286.13,1179.44,287.77,1177.13,287.77z"/><g><path fill="#fff" d="M1143.52,323.05c11.2,0,22.41,0,33.61,0"/><path fill="#fff" d="M1177.13,326.72h-33.61c-2.3,0-4.17-1.64-4.17-3.67c0-2.03,1.87-3.67,4.17-3.67h33.61        c2.3,0,4.17,1.64,4.17,3.67C1181.3,325.08,1179.44,326.72,1177.13,326.72z"/></g><g><path fill="#fff" d="M1000.06,323.05c43.35,0,86.7,0,130.05,0"/><path fill="#fff" d="M1130.11,326.72h-130.05c-2.3,0-4.17-1.64-4.17-3.67c0-2.03,1.87-3.67,4.17-3.67h130.05        c2.3,0,4.17,1.64,4.17,3.67C1134.28,325.08,1132.41,326.72,1130.11,326.72z"/></g><g><path fill="#fff" d="M1000.06,522.11c59.02,0,118.04,0,177.07,0"/><path fill="#fff" d="M1177.13,525.78h-177.07c-2.3,0-4.17-1.64-4.17-3.67c0-2.03,1.87-3.67,4.17-3.67h177.07        c2.3,0,4.17,1.64,4.17,3.67C1181.3,524.13,1179.44,525.78,1177.13,525.78z"/><path fill="#fff" d="M1000.06,502.63c59.02,0,118.04,0,177.07,0"/><path fill="#fff" d="M1177.13,506.31h-177.07c-2.3,0-4.17-1.64-4.17-3.67c0-2.03,1.87-3.67,4.17-3.67h177.07        c2.3,0,4.17,1.64,4.17,3.67C1181.3,504.66,1179.44,506.31,1177.13,506.31z"/><g><path fill="#fff" d="M1143.52,541.58c11.2,0,22.41,0,33.61,0"/><path fill="#fff" d="M1177.13,545.25h-33.61c-2.3,0-4.17-1.64-4.17-3.67c0-2.03,1.87-3.67,4.17-3.67h33.61        c2.3,0,4.17,1.64,4.17,3.67C1181.3,543.61,1179.44,545.25,1177.13,545.25z"/></g><g><path fill="#fff" d="M1000.06,541.58c43.35,0,86.7,0,130.05,0"/><path fill="#fff" d="M1130.11,545.25h-130.05c-2.3,0-4.17-1.64-4.17-3.67c0-2.03,1.87-3.67,4.17-3.67h130.05        c2.3,0,4.17,1.64,4.17,3.67C1134.28,543.61,1132.41,545.25,1130.11,545.25z"/></g></g><g><path fill="#fff" d="M1060.35,413.21c38.93,0,77.85,0,116.78,0"/><path fill="#fff" d="M1177.13,416.88h-116.78c-2.3,0-4.17-1.64-4.17-3.67c0-2.03,1.87-3.67,4.17-3.67h116.78        c2.3,0,4.17,1.64,4.17,3.67C1181.3,415.24,1179.44,416.88,1177.13,416.88z"/><path fill="#fff" d="M1000.06,413.21c14.34,0,28.68,0,43.02,0"/><path fill="#fff" d="M1043.09,416.88h-43.02c-2.3,0-4.17-1.64-4.17-3.67c0-2.03,1.87-3.67,4.17-3.67h43.02        c2.31,0,4.17,1.64,4.17,3.67C1047.26,415.24,1045.39,416.88,1043.09,416.88z"/><g><path fill="#fff" d="M1000.06,393.74c59.02,0,118.04,0,177.07,0"/><path fill="#fff" d="M1177.13,397.41h-177.07c-2.3,0-4.17-1.64-4.17-3.67c0-2.03,1.87-3.67,4.17-3.67h177.07        c2.3,0,4.17,1.64,4.17,3.67C1181.3,395.76,1179.44,397.41,1177.13,397.41z"/></g><g><path fill="#fff" d="M1000.06,432.68c43.35,0,86.7,0,130.05,0"/><path fill="#fff" d="M1130.11,436.35h-130.05c-2.3,0-4.17-1.64-4.17-3.67c0-2.03,1.87-3.67,4.17-3.67h130.05        c2.3,0,4.17,1.64,4.17,3.67C1134.28,434.71,1132.41,436.35,1130.11,436.35z"/></g></g><g><path fill="#fff" d="M958.65,160.82v-31.09h7.19v25.22h15.59v5.86H958.65z"/><path fill="#fff" d="M1000.04,161.35c-2.46,0-4.73-0.4-6.82-1.2c-2.09-0.8-3.89-1.92-5.42-3.38       c-1.53-1.45-2.71-3.15-3.55-5.11c-0.84-1.95-1.27-4.09-1.27-6.39c0-2.31,0.42-4.44,1.27-6.39c0.84-1.95,2.04-3.66,3.57-5.11       c1.54-1.45,3.35-2.58,5.42-3.38c2.07-0.8,4.32-1.2,6.75-1.2c2.46,0,4.71,0.4,6.77,1.2c2.06,0.8,3.85,1.92,5.37,3.38       c1.52,1.45,2.72,3.15,3.57,5.09c0.86,1.94,1.29,4.08,1.29,6.42c0,2.31-0.43,4.45-1.29,6.42c-0.86,1.97-2.05,3.67-3.57,5.11       c-1.53,1.44-3.32,2.55-5.37,3.35C1004.71,160.95,1002.46,161.35,1000.04,161.35z M999.99,155.23c1.39,0,2.67-0.24,3.84-0.71       c1.17-0.47,2.2-1.15,3.09-2.04c0.89-0.89,1.58-1.94,2.06-3.15s0.73-2.56,0.73-4.04c0-1.48-0.24-2.83-0.73-4.04       c-0.49-1.21-1.17-2.26-2.04-3.15c-0.87-0.89-1.9-1.57-3.09-2.04c-1.18-0.47-2.47-0.71-3.86-0.71c-1.39,0-2.67,0.24-3.84,0.71       c-1.17,0.47-2.2,1.15-3.09,2.04c-0.89,0.89-1.58,1.94-2.06,3.15c-0.49,1.21-0.73,2.56-0.73,4.04c0,1.45,0.24,2.79,0.73,4.02       c0.49,1.23,1.17,2.29,2.04,3.17c0.87,0.89,1.9,1.57,3.09,2.04C997.31,154.99,998.6,155.23,999.99,155.23z"/><path fill="#fff" d="M1017.89,160.82l13.86-31.09h7.11l13.9,31.09h-7.55l-11.37-27.44h2.84l-11.41,27.44H1017.89z        M1024.82,154.16l1.91-5.46h15.99l1.95,5.46H1024.82z"/><path fill="#fff" d="M1055.99,160.82v-31.09h5.95l18.34,22.38h-2.89v-22.38h7.11v31.09h-5.91l-18.39-22.38h2.89v22.38H1055.99       z"/></g><g><path fill="#fff" d="M1168.95,638.69c-0.49,0-0.96-0.09-1.39-0.28c-2.76-1.18-2.5-4.98-2.23-9c0.09-1.37,0.23-3.48,0.1-4.66      c-1.29,0.94-3.44,3.43-4.82,5.03c-3.99,4.62-7.45,8.62-10.98,7.18c-2.5-1.01-2.87-3.99-3.17-6.39c-0.05-0.41-0.12-0.96-0.2-1.45      c-0.46,0.6-0.98,1.38-1.38,1.98c-1.84,2.76-3.93,5.88-7.13,6.47c-6.43,1.19-14.81-8.54-20.79-18.32      c-1.34,0.15-2.7,0.31-4.1,0.48c-4.89,4.75-10.62,10.02-17.3,15.87c-0.92,0.81-2.33,0.71-3.13-0.21      c-0.81-0.92-0.71-2.33,0.21-3.13c4.77-4.17,9.02-8.03,12.82-11.6c-5.24,0.68-10.85,1.46-16.87,2.35      c-1.2,0.18-2.34-0.66-2.52-1.87c-0.18-1.21,0.66-2.34,1.87-2.52c8.34-1.23,15.96-2.26,22.9-3.12c0.89-0.88,1.75-1.73,2.59-2.57      c-6.84-13.39-11.63-30.34-4.46-38.31c4.21-4.68,11.67-5.64,17.25-4.97c5.95,0.71,10.66,3.27,12.6,6.86      c2.64,4.89,2.67,13.93-19.93,37.21c0.05,0.09,0.09,0.17,0.14,0.25c0.1,0.18,0.2,0.35,0.3,0.53c51.66-5.7,61.08-0.2,62.91,5.64      c1.7,5.46-3.94,12.41-7.16,15.31C1172.68,637.61,1170.64,638.69,1168.95,638.69z M1165.96,619.94c0.46,0,0.92,0.09,1.38,0.28      c2.98,1.23,2.71,5.24,2.42,9.49c-0.08,1.25-0.21,3.16-0.12,4.27c1.44-0.76,4.18-3.09,6.32-6.33c1.67-2.53,2.43-4.84,2.01-6.17      c-0.87-2.8-8.54-7.83-56.13-2.76c6.2,9.65,12.39,14.99,15.09,14.5c1.36-0.25,3.03-2.75,4.24-4.57c1.8-2.7,3.67-5.48,6.53-4.6      c2.5,0.78,2.86,3.67,3.15,5.99c0.09,0.76,0.26,2.07,0.49,2.69c1.37-0.6,4.28-3.97,5.9-5.84      C1160.54,623.07,1163.24,619.94,1165.96,619.94z M1123,573.91c-4.53,0-8.65,1.37-10.74,3.7c-5.13,5.7-1.55,19.76,4.44,31.98      c18.93-19.74,19.93-27.75,18.2-30.95c-1.23-2.29-4.77-4.03-9.22-4.56C1124.78,573.96,1123.88,573.91,1123,573.91z"/></g></g><g><circle cx="300.12" cy="520.72" r="180.95" fill="#f8ea14" transform="rotate(-45.001 300.115 520.722)"/><circle cx="300.12" cy="520.72" r="159.89" fill="#f09c23" transform="rotate(-45.001 300.115 520.722)"/><circle cx="300.12" cy="520.72" r="150.39" fill="#f8cd12" transform="rotate(-45.001 300.115 520.722)"/><path fill="#e34f25" d="M374.91,564.82     c0.55,10.7-0.8,20.13-4.25,28.52c-3.45,8.39-8.57,15.5-15.56,21.56c-6.78,5.82-14.98,10.58-24.85,14.05     c-3.6,1.1-7.19,2.19-11.03,3.07l0.37,7.29c0.28,5.46-4.04,10.25-9.28,10.52l-7.51,0.38c-5.24,0.27-10.02-4.05-10.3-9.52     l-0.29-5.69c-5.24,0.27-10.28-0.16-15.33-0.82c-6.65-0.57-12.65-1.87-17.96-3.19c-5.33-1.55-9.75-3.16-13.48-4.79     c-3.96-1.62-6.56-3.32-8.22-4.6c-1.9-1.5-3.14-3.49-3.97-6.19c-1.05-2.69-1.7-6.53-1.94-11.09c-0.15-2.96-0.05-5.47,0.31-7.32     c0.12-2.06,0.5-3.68,0.67-4.83c0.38-1.39,1.02-2.33,1.91-2.84c0.89-0.5,1.79-0.78,2.7-0.82c1.82-0.09,4.37,0.69,7.66,2.58     c3.29,1.89,7.5,3.95,12.41,6.21c4.9,2.03,10.7,4.02,17.18,5.74c6.71,1.71,14.28,2.47,22.7,2.04c6.37-0.32,12.26-1.31,17.18-3.16     c5.18-1.4,9.63-3.69,13.13-6.6c3.73-2.93,6.52-6.5,8.35-10.7c1.84-4.2,2.49-9.26,2.2-14.95c-0.29-5.69-1.9-10.4-5.07-14.35     c-3.16-3.72-7.2-6.94-12.14-9.88c-5.16-2.7-10.76-5.16-17.02-7.12c-6.05-2.2-12.54-4.15-19.05-6.56     c-6.5-2.18-13.03-4.81-19.34-7.69c-6.32-3.1-11.98-6.69-17.01-11.23c-5.02-4.54-9.4-9.79-12.47-16.25     c-3.3-6.45-5.28-14.11-5.75-23.21c-0.42-8.19,0.78-16.02,3.6-23.46c2.59-7.43,7.03-14.28,12.9-20.06     c6.09-5.79,13.6-10.74,22.76-14.63c3.57-1.55,7.62-2.67,11.67-3.79l-0.49-9.56c-0.28-5.46,4.05-10.02,9.29-10.29l7.51-0.38     c5.24-0.27,10.01,3.83,10.29,9.29l0.41,7.97c3.43,0.05,6.86,0.33,10.3,0.62c5.51,0.63,10.59,1.74,14.98,2.89     c4.4,1.15,8.35,2.54,11.62,3.97c3.05,1.67,5.63,2.91,7.29,4.19c1.65,1.06,2.62,2.15,3.35,3.02c0.5,0.89,1,1.77,1.29,2.9     c0.29,1.13,0.58,2.48,0.9,4.29c0.31,1.58,0.41,3.63,0.54,6.13c0.13,2.5,0.24,4.78,0.11,6.61c-0.14,1.83-0.51,3.45-0.91,4.61     c-0.61,1.4-1.03,2.11-1.91,2.84c-0.66,0.49-1.56,0.76-2.47,0.81c-1.37,0.07-3.23-0.75-6.05-2.2c-2.58-1.47-6.09-3.11-10.29-4.95     c-4.19-1.61-9.06-3.19-14.84-4.49c-5.56-1.54-11.98-2.13-19.03-1.77c-6.6,0.34-12.02,1.53-16.96,3.15     c-4.71,1.61-8.7,3.87-11.52,6.75c-3.06,2.67-5.4,5.98-6.58,9.69c-1.63,3.73-2.12,7.64-1.9,11.96c0.3,5.92,2.15,10.84,5.31,14.56     c3.17,3.95,7.44,7.15,12.38,10.1c4.93,2.71,10.76,5.16,17.04,7.35c6.5,2.18,12.78,4.37,19.51,6.54     c6.5,2.18,13.03,4.81,19.56,7.67c6.31,2.87,12.2,6.45,17.21,10.76c5.24,4.3,9.39,9.56,12.67,15.79     C372.7,548.5,374.46,556.17,374.91,564.82L374.91,564.82z"/><path fill="#fff" d="M442.92,403.19c-44.01,2.85-46.32,5.16-49.17,49.17c-2.85-44.01-5.16-46.32-49.17-49.17     c44.01-2.85,46.32-5.16,49.17-49.17C396.6,398.03,398.91,400.34,442.92,403.19z"/></g><g><circle cx="297.8" cy="913.01" r="117.53" fill="#f8ea14"/><circle cx="297.8" cy="913.01" r="103.85" fill="#f09c23"/><circle cx="297.8" cy="913.01" r="97.68" fill="#f8cd12" transform="rotate(-45.001 297.794 913.015)"/><path fill="#e34f25" d="M346.38,941.65     c0.35,6.95-0.52,13.07-2.76,18.52c-2.24,5.45-5.56,10.07-10.11,14c-4.4,3.78-9.73,6.87-16.14,9.12c-2.34,0.71-4.67,1.42-7.16,2     l0.24,4.73c0.18,3.55-2.62,6.66-6.03,6.83l-4.88,0.25c-3.4,0.17-6.51-2.63-6.69-6.18l-0.19-3.7c-3.4,0.17-6.68-0.1-9.96-0.53     c-4.32-0.37-8.21-1.21-11.67-2.07c-3.46-1.01-6.33-2.05-8.76-3.11c-2.57-1.05-4.26-2.15-5.34-2.99     c-1.23-0.97-2.04-2.27-2.58-4.02c-0.68-1.74-1.11-4.24-1.26-7.2c-0.1-1.92-0.03-3.56,0.2-4.75c0.08-1.34,0.32-2.39,0.43-3.14     c0.25-0.9,0.66-1.52,1.24-1.84c0.58-0.33,1.16-0.5,1.75-0.53c1.18-0.06,2.84,0.45,4.98,1.67c2.14,1.22,4.87,2.57,8.06,4.04     c3.18,1.32,6.95,2.61,11.16,3.73c4.36,1.11,9.27,1.6,14.74,1.32c4.14-0.21,7.96-0.85,11.16-2.05c3.36-0.91,6.25-2.39,8.53-4.29     c2.42-1.9,4.23-4.22,5.43-6.95c1.19-2.73,1.62-6.01,1.43-9.71c-0.19-3.7-1.23-6.76-3.29-9.32c-2.05-2.42-4.68-4.51-7.89-6.42     c-3.35-1.76-6.99-3.35-11.06-4.62c-3.93-1.43-8.14-2.7-12.37-4.26c-4.22-1.41-8.46-3.13-12.56-4.99     c-4.11-2.01-7.78-4.35-11.05-7.29c-3.26-2.95-6.11-6.36-8.1-10.56c-2.14-4.19-3.43-9.16-3.73-15.08     c-0.27-5.32,0.51-10.4,2.33-15.24c1.68-4.83,4.57-9.28,8.38-13.03c3.96-3.76,8.84-6.97,14.78-9.5c2.32-1.01,4.95-1.73,7.58-2.46     l-0.32-6.21c-0.18-3.55,2.63-6.51,6.03-6.68l4.88-0.25c3.4-0.17,6.5,2.48,6.68,6.03l0.26,5.17c2.23,0.04,4.46,0.22,6.69,0.4     c3.58,0.41,6.88,1.13,9.73,1.88c2.85,0.74,5.42,1.65,7.54,2.58c1.98,1.09,3.65,1.89,4.73,2.72c1.07,0.69,1.7,1.4,2.18,1.96     c0.33,0.58,0.65,1.15,0.84,1.88c0.19,0.73,0.38,1.61,0.59,2.79c0.2,1.03,0.27,2.36,0.35,3.98c0.08,1.63,0.16,3.11,0.07,4.3     c-0.09,1.19-0.33,2.24-0.59,2.99c-0.4,0.91-0.67,1.37-1.24,1.84c-0.43,0.32-1.01,0.5-1.6,0.53c-0.89,0.05-2.1-0.49-3.93-1.43     c-1.68-0.95-3.96-2.02-6.69-3.22c-2.72-1.05-5.89-2.07-9.64-2.92c-3.61-1-7.78-1.38-12.36-1.15c-4.29,0.22-7.81,0.99-11.01,2.04     c-3.06,1.05-5.65,2.51-7.49,4.38c-1.99,1.73-3.51,3.89-4.27,6.3c-1.06,2.43-1.38,4.96-1.23,7.77c0.2,3.84,1.4,7.04,3.45,9.46     c2.06,2.56,4.83,4.65,8.04,6.56c3.2,1.76,6.99,3.35,11.07,4.77c4.22,1.42,8.3,2.84,12.67,4.25c4.22,1.42,8.46,3.13,12.71,4.98     c4.1,1.87,7.92,4.19,11.18,6.99c3.4,2.79,6.1,6.21,8.23,10.25C344.95,931.05,346.09,936.03,346.38,941.65L346.38,941.65z"/><path fill="#fff" d="M390.55,836.67c-28.58,1.85-30.09,3.35-31.94,31.94c-1.85-28.58-3.35-30.09-31.94-31.94     c28.58-1.85,30.09-3.35,31.94-31.94C360.47,833.32,361.97,834.82,390.55,836.67z"/></g><g><circle cx="582.44" cy="742.74" r="76.34" fill="#f8ea14"/><circle cx="582.44" cy="742.74" r="67.45" fill="#f09c23" transform="rotate(-9.416 582.496 742.81)"/><circle cx="582.44" cy="742.74" r="63.44" fill="#f8cd12"/><path fill="#e34f25" d="M613.98,761.35     c0.23,4.51-0.34,8.49-1.79,12.03c-1.46,3.54-3.61,6.54-6.56,9.1c-2.86,2.46-6.32,4.46-10.48,5.93c-1.52,0.46-3.03,0.93-4.65,1.3     l0.16,3.07c0.12,2.3-1.7,4.32-3.91,4.44l-3.17,0.16c-2.21,0.11-4.23-1.71-4.34-4.01l-0.12-2.4c-2.21,0.11-4.34-0.07-6.47-0.34     c-2.8-0.24-5.34-0.79-7.58-1.35c-2.25-0.66-4.11-1.33-5.69-2.02c-1.67-0.68-2.77-1.4-3.47-1.94c-0.8-0.63-1.33-1.47-1.67-2.61     c-0.44-1.13-0.72-2.76-0.82-4.68c-0.06-1.25-0.02-2.31,0.13-3.09c0.05-0.87,0.21-1.55,0.28-2.04c0.16-0.59,0.43-0.98,0.81-1.2     c0.37-0.21,0.75-0.33,1.14-0.35c0.77-0.04,1.84,0.29,3.23,1.09c1.39,0.8,3.17,1.67,5.24,2.62c2.07,0.86,4.52,1.7,7.25,2.42     c2.83,0.72,6.02,1.04,9.58,0.86c2.69-0.14,5.17-0.55,7.25-1.33c2.18-0.59,4.06-1.55,5.54-2.79c1.57-1.24,2.75-2.74,3.52-4.51     c0.78-1.77,1.05-3.9,0.93-6.31c-0.12-2.4-0.8-4.39-2.14-6.05c-1.33-1.57-3.04-2.93-5.12-4.17c-2.18-1.14-4.54-2.18-7.18-3     c-2.55-0.93-5.29-1.75-8.04-2.77c-2.74-0.92-5.5-2.03-8.16-3.24c-2.67-1.31-5.05-2.82-7.17-4.74c-2.12-1.91-3.97-4.13-5.26-6.86     c-1.39-2.72-2.23-5.95-2.43-9.79c-0.18-3.46,0.33-6.76,1.52-9.9c1.09-3.14,2.97-6.02,5.44-8.46c2.57-2.44,5.74-4.53,9.6-6.17     c1.51-0.66,3.22-1.13,4.92-1.6l-0.21-4.03c-0.12-2.3,1.71-4.23,3.92-4.34l3.17-0.16c2.21-0.11,4.22,1.61,4.34,3.92l0.17,3.36     c1.45,0.02,2.9,0.14,4.35,0.26c2.32,0.27,4.47,0.73,6.32,1.22c1.85,0.48,3.52,1.07,4.9,1.68c1.29,0.7,2.37,1.23,3.07,1.77     c0.7,0.45,1.11,0.91,1.41,1.28c0.21,0.37,0.42,0.75,0.54,1.22c0.12,0.48,0.25,1.05,0.38,1.81c0.13,0.67,0.17,1.53,0.23,2.59     c0.05,1.06,0.1,2.02,0.05,2.79c-0.06,0.77-0.21,1.46-0.38,1.95c-0.26,0.59-0.44,0.89-0.81,1.2c-0.28,0.21-0.66,0.32-1.04,0.34     c-0.58,0.03-1.36-0.32-2.55-0.93c-1.09-0.62-2.57-1.31-4.34-2.09c-1.77-0.68-3.82-1.35-6.26-1.89c-2.34-0.65-5.05-0.9-8.03-0.75     c-2.78,0.14-5.07,0.64-7.15,1.33c-1.99,0.68-3.67,1.63-4.86,2.85c-1.29,1.12-2.28,2.52-2.78,4.09c-0.69,1.58-0.89,3.22-0.8,5.05     c0.13,2.5,0.91,4.57,2.24,6.14c1.34,1.67,3.14,3.02,5.22,4.26c2.08,1.14,4.54,2.17,7.19,3.1c2.74,0.92,5.39,1.84,8.23,2.76     c2.74,0.92,5.49,2.03,8.25,3.24c2.66,1.21,5.15,2.72,7.26,4.54c2.21,1.81,3.96,4.03,5.35,6.66     C613.06,754.46,613.8,757.7,613.98,761.35L613.98,761.35z"/><path fill="#fff" d="M642.68,693.16c-18.57,1.2-19.54,2.18-20.74,20.74c-1.2-18.57-2.18-19.54-20.74-20.74     c18.57-1.2,19.54-2.18,20.74-20.74C623.14,690.98,624.11,691.96,642.68,693.16z"/></g><g><path fill="#d2ddf9" d="M1461.73,375.04h259.82c15.38,0,27.85,12.47,27.85,27.85v36.59v46.83v71.81     c-13.09-14.65-26.17-29.31-39.26-43.96h-248.41c-15.38,0-27.85-12.47-27.85-27.85v-83.42     C1433.88,387.51,1446.35,375.04,1461.73,375.04z"/><circle cx="1669.33" cy="443.7" r="19.87" fill="#fff" transform="rotate(-45.001 1669.332 443.72)"/><circle cx="1590.74" cy="443.7" r="19.87" fill="#fff" transform="rotate(-45.001 1590.74 443.719)"/><circle cx="1513.95" cy="443.7" r="19.87" fill="#fff" transform="rotate(-67.5 1513.925 443.684)"/></g><g><path fill="#0ebaa0" d="M457.6,905.62c50.26,81.14,101.85,170.5,152.96,268.04c61.81,117.95,113.78,230.41,157.52,334.65      c41.82,4.09,120.58,5.59,206.44-33.46c83.53-37.99,134.4-96.46,159.6-130.42c-43.17-94.73-93.05-195.82-150.66-301.33      C924.4,934.95,865.09,836.55,807.75,747.92c-32.37,33.35-83.3,77.36-155.09,110.67C575.71,894.29,505.12,903.63,457.6,905.62z"/><path fill="#8be8d9" d="M515.58,938.86c42.96,70.39,87.12,147.87,130.97,232.39c53.02,102.2,97.75,199.57,135.5,289.78      c35.07,3.97,101.04,6.11,172.51-26.59c69.54-31.81,111.52-81.6,132.25-110.56c-37.17-82.01-80.02-169.57-129.4-261.02      c-50.61-93.74-101.34-179.09-150.31-256c-26.75,28.36-68.92,65.71-128.68,93.61C614.37,930.37,555.35,937.65,515.58,938.86z"/><path fill="#0ebaa0" d="M923.78,1119.74c12.37,61.21-27.35,121.07-88.56,133.44c-61.21,12.37-121.07-27.35-133.44-88.56        c-12.37-61.21,27.35-121.07,88.56-133.44C851.54,1018.8,911.4,1058.53,923.78,1119.74z M723.42,1160.24        c9.96,49.27,58.15,81.25,107.42,71.29c49.27-9.96,81.25-58.15,71.29-107.42c-9.96-49.27-58.15-81.26-107.43-71.29        C745.44,1062.78,713.45,1110.97,723.42,1160.24z"/><path fill="#0ebaa0" d="M819.08,1086.87       c6.2-2.94,12.12-4.45,17.93-4.45c5.81-0.01,11.27,1.29,16.57,3.95c5.1,2.59,9.93,6.29,14.39,11.28       c1.53,1.86,3.06,3.72,4.52,5.78l4.22-2c3.17-1.5,7.06-0.11,8.5,2.93l2.06,4.36c1.44,3.04,0.05,6.93-3.12,8.43l-3.3,1.56       c1.44,3.03,2.42,6.13,3.26,9.28c1.28,4.08,1.99,7.95,2.5,11.42c0.38,3.54,0.51,6.54,0.46,9.16c0.01,2.74-0.36,4.7-0.72,6       c-0.42,1.49-1.3,2.72-2.69,3.86c-1.33,1.28-3.45,2.61-6.09,3.86c-1.72,0.81-3.23,1.37-4.41,1.6c-1.25,0.43-2.3,0.6-3.02,0.78       c-0.92,0.11-1.63-0.03-2.14-0.44c-0.52-0.4-0.9-0.87-1.15-1.4c-0.5-1.06-0.66-2.76-0.35-5.17c0.31-2.41,0.51-5.41,0.65-8.87       c0.01-3.4-0.24-7.32-0.8-11.58c-0.63-4.39-2.03-9.06-4.34-13.94c-1.75-3.7-3.77-6.94-6.07-9.41c-2.1-2.72-4.53-4.8-7.12-6.16       c-2.65-1.49-5.44-2.27-8.38-2.33c-2.94-0.06-6.09,0.78-9.39,2.35c-3.3,1.56-5.7,3.67-7.26,6.51c-1.43,2.78-2.35,5.96-2.88,9.61       c-0.34,3.71-0.42,7.63-0.06,11.82c0.17,4.12,0.6,8.44,0.77,12.89c0.3,4.38,0.33,8.89,0.17,13.33       c-0.29,4.5-1.03,8.73-2.49,12.82c-1.46,4.08-3.5,7.96-6.58,11.36c-3.02,3.53-7.07,6.58-12.34,9.08       c-4.75,2.25-9.68,3.45-14.78,3.61c-5.04,0.28-10.18-0.68-15.03-2.74c-4.92-2.2-9.68-5.43-14.23-9.91       c-1.79-1.74-3.45-3.86-5.1-5.99l-5.54,2.62c-3.17,1.5-6.93,0.05-8.36-2.99l-2.06-4.36c-1.44-3.04-0.18-6.86,2.99-8.36       l4.62-2.19c-0.8-2.04-1.48-4.15-2.15-6.25c-0.97-3.42-1.56-6.7-1.95-9.58c-0.4-2.88-0.54-5.56-0.49-7.85       c0.24-2.22,0.35-4.04,0.7-5.34c0.22-1.24,0.63-2.08,0.97-2.72c0.4-0.51,0.8-1.03,1.4-1.47c0.6-0.44,1.33-0.95,2.32-1.58       c0.86-0.57,2.05-1.13,3.5-1.82c1.45-0.69,2.77-1.31,3.89-1.68c1.12-0.37,2.17-0.54,2.95-0.59c0.98,0.02,1.5,0.1,2.15,0.44       c0.45,0.27,0.83,0.74,1.08,1.26c0.38,0.79,0.35,2.1,0.17,4.12c-0.24,1.89-0.36,4.37-0.42,7.31c0.07,2.88,0.33,6.15,0.97,9.89       c0.44,3.67,1.67,7.61,3.6,11.71c1.81,3.83,3.84,6.75,6.01,9.27c2.1,2.4,4.42,4.21,6.81,5.18c2.33,1.16,4.86,1.74,7.35,1.53       c2.61,0.05,5.04-0.61,7.55-1.8c3.43-1.62,5.9-3.92,7.33-6.7c1.56-2.84,2.42-6.15,2.95-9.8c0.4-3.58,0.42-7.64,0.19-11.89       c-0.3-4.38-0.53-8.63-0.89-13.15c-0.3-4.38-0.33-8.89-0.23-13.46c0.16-4.44,0.84-8.8,2.17-12.82c1.27-4.15,3.37-7.9,6.25-11.36       C809.95,1092.17,814.07,1089.25,819.08,1086.87L819.08,1086.87z"/><circle cx="794.76" cy="825.14" r="42.61" fill="#0ebaa0" transform="rotate(-69.824 794.786 825.174)"/><circle cx="793.5" cy="1442.82" r="42.61" fill="#0ebaa0" transform="rotate(-65.706 793.498 1442.866)"/><circle cx="1067.54" cy="1336.29" r="42.61" fill="#0ebaa0" transform="rotate(-33.112 1067.692 1336.365)"/><circle cx="541.99" cy="955.63" r="42.61" fill="#0ebaa0" transform="rotate(-8.36 542.004 955.64)"/><g><path fill="#0ebaa0" d="M1019.85,691.79c-18.2,93.7-41,194.32-69.71,300.64c-34.71,128.56-72.92,246.41-111.59,352.64      c27.93,31.4,84.73,85.98,174.27,115.61c87.12,28.83,164.17,20.44,205.72,12.62c32.63-98.86,64.65-206.94,94-323.51      c30.08-119.5,53.36-232.01,71.45-336.02c-46.41,2.51-113.68,0.24-189-24.06C1114.26,763.67,1056.09,722.59,1019.85,691.79z"/><path fill="#8be8d9" d="M1039.85,755.56c-16.26,80.85-36.45,167.71-61.65,259.53c-30.47,111.03-63.75,212.89-97.29,304.74      c23.05,26.72,70.03,73.09,144.7,97.62c72.65,23.87,137.27,15.82,172.16,8.63c28.4-85.45,56.39-178.82,82.24-279.48      c26.49-103.18,47.2-200.28,63.48-290c-38.89,2.66-95.21,1.44-158.03-18.66C1118.13,816.4,1069.86,781.67,1039.85,755.56z"/><path fill="#0ebaa0" d="M1216.71,1165.51c-32.48,53.34-102.29,70.31-155.63,37.83c-53.34-32.47-70.31-102.29-37.83-155.63        c32.48-53.34,102.29-70.31,155.63-37.83C1232.21,1042.36,1249.18,1112.18,1216.71,1165.51z M1042.11,1059.2        c-26.14,42.94-12.48,99.14,30.45,125.28c42.94,26.14,99.14,12.48,125.28-30.46c26.14-42.94,12.48-99.14-30.46-125.28        C1124.45,1002.6,1068.25,1016.27,1042.11,1059.2z"/><path fill="#0ebaa0" d="M1162.16,1070.3       c6.55,2.06,11.91,4.96,16.19,8.91c4.27,3.94,7.4,8.6,9.49,14.15c1.99,5.37,3.02,11.36,2.9,18.05       c-0.14,2.41-0.28,4.81-0.61,7.31l4.46,1.4c3.34,1.05,5.26,4.71,4.25,7.92l-1.44,4.6c-1.01,3.21-4.67,5.12-8.01,4.07l-3.48-1.09       c-1.01,3.2-2.39,6.14-3.9,9.03c-1.83,3.87-3.94,7.18-5.92,10.08c-2.12,2.86-4.07,5.15-5.88,7.03c-1.86,2.02-3.45,3.2-4.6,3.91       c-1.33,0.81-2.8,1.11-4.6,1.01c-1.85,0.03-4.3-0.43-7.09-1.31c-1.81-0.57-3.3-1.19-4.33-1.82c-1.21-0.53-2.1-1.12-2.75-1.48       c-0.75-0.54-1.17-1.13-1.28-1.78c-0.1-0.65-0.07-1.25,0.11-1.81c0.35-1.11,1.39-2.47,3.25-4.03c1.87-1.56,4.05-3.63,6.5-6.07       c2.31-2.49,4.8-5.54,7.28-9.04c2.52-3.65,4.66-8.03,6.28-13.18c1.22-3.9,1.94-7.66,1.93-11.03c0.31-3.42-0.07-6.6-1.04-9.36       c-0.93-2.89-2.45-5.36-4.57-7.4c-2.11-2.04-5-3.56-8.49-4.65c-3.48-1.09-6.67-1.17-9.75-0.15c-2.94,1.07-5.77,2.78-8.64,5.1       c-2.77,2.5-5.49,5.32-8.07,8.64c-2.67,3.14-5.29,6.61-8.18,9.98c-2.76,3.42-5.79,6.75-8.93,9.9       c-3.27,3.11-6.69,5.71-10.53,7.72c-3.84,2.01-7.98,3.47-12.54,3.87c-4.61,0.54-9.65,0.03-15.23-1.72       c-5.02-1.58-9.45-4.04-13.3-7.39c-3.89-3.21-7.01-7.41-9.18-12.22c-2.12-4.95-3.42-10.56-3.72-16.93       c-0.14-2.49,0.09-5.17,0.32-7.86l-5.85-1.84c-3.34-1.05-5.12-4.67-4.11-7.87l1.44-4.6c1.01-3.21,4.53-5.16,7.87-4.11l4.88,1.53       c0.8-2.05,1.73-4.05,2.66-6.05c1.61-3.17,3.41-5.97,5.07-8.36c1.67-2.39,3.39-4.45,4.97-6.09c1.68-1.46,3-2.73,4.14-3.44       c1-0.76,1.88-1.1,2.56-1.34c0.64-0.1,1.29-0.21,2.03-0.13c0.74,0.08,1.62,0.2,2.78,0.41c1.02,0.17,2.27,0.56,3.81,1.04       c1.53,0.48,2.93,0.92,4,1.41c1.07,0.49,1.96,1.07,2.57,1.57c0.7,0.68,1.04,1.09,1.28,1.78c0.15,0.51,0.11,1.11-0.06,1.66       c-0.26,0.84-1.17,1.78-2.67,3.14c-1.46,1.23-3.23,2.97-5.27,5.08c-1.9,2.16-3.93,4.74-6,7.91c-2.17,2.99-3.95,6.72-5.3,11.04       c-1.27,4.04-1.76,7.56-1.89,10.89c-0.08,3.19,0.38,6.09,1.49,8.43c0.92,2.43,2.39,4.58,4.36,6.11       c1.88,1.81,4.12,2.98,6.77,3.81c3.62,1.14,6.99,1.12,9.93,0.05c3.08-1.02,5.95-2.88,8.82-5.19c2.73-2.36,5.5-5.32,8.21-8.6       c2.76-3.42,5.47-6.7,8.27-10.26c2.76-3.42,5.79-6.75,8.97-10.04c3.13-3.15,6.59-5.89,10.3-7.94c3.75-2.19,7.84-3.51,12.31-4.1       C1151.86,1067.98,1156.86,1068.63,1162.16,1070.3L1162.16,1070.3z"/><circle cx="1322.02" cy="861.64" r="42.61" fill="#0ebaa0" transform="rotate(-61.439 1322.037 861.649)"/><circle cx="901.69" cy="1314.24" r="42.61" fill="#0ebaa0" transform="rotate(-17.465 901.757 1314.364)"/><circle cx="1175.2" cy="1422.11" r="42.61" fill="#0ebaa0"/><circle cx="1047.85" cy="785.8" r="42.61" fill="#0ebaa0" transform="rotate(-70.634 1047.844 785.825)"/></g><g><path fill="#0643a3" d="M1409.01,1270.86v509.01c0,2.37-0.15,4.7-0.43,6.99c-0.02,0.15-0.03,0.29-0.06,0.43      c-3.63,26.96-26.73,47.75-54.68,47.75h-800.2c-30.47,0-55.17-24.7-55.17-55.17v-509.01c0-28.1,21.01-51.3,48.19-54.75      c2.29-0.28,4.62-0.43,6.98-0.43h800.2C1384.31,1215.68,1409.01,1240.39,1409.01,1270.86z"/><path fill="#2c7efe" d="M1409.01,1270.86v509.01c0,2.37-0.15,4.7-0.43,6.99c-0.02,0.15-0.03,0.29-0.06,0.43H616.89      c-30.47,0-55.17-24.7-55.17-55.18v-509c0-2.37,0.15-4.71,0.44-7c2.29-0.28,4.62-0.43,6.98-0.43h784.7      C1384.31,1215.68,1409.01,1240.39,1409.01,1270.86z"/><path fill="#fff" d="M1284.03,1807.62c-2.55,0-4.61-2.07-4.61-4.61c0-2.55,2.07-4.61,4.61-4.61l28.01,0       c2.55,0,4.61,2.07,4.61,4.61c0,2.55-2.07,4.61-4.61,4.61l-0.15,0H1284.03z M1256.23,1807.62h-27.8c-2.55,0-4.61-2.07-4.61-4.61       c0-2.55,2.07-4.61,4.61-4.61h27.8c2.55,0,4.61,2.07,4.61,4.61C1260.84,1805.55,1258.78,1807.62,1256.23,1807.62z        M1200.63,1807.62h-27.8c-2.55,0-4.61-2.07-4.61-4.61c0-2.55,2.07-4.61,4.61-4.61h27.8c2.55,0,4.61,2.07,4.61,4.61       C1205.24,1805.55,1203.18,1807.62,1200.63,1807.62z M1145.03,1807.62h-27.8c-2.55,0-4.61-2.07-4.61-4.61       c0-2.55,2.07-4.61,4.61-4.61h27.8c2.55,0,4.61,2.07,4.61,4.61C1149.64,1805.55,1147.58,1807.62,1145.03,1807.62z        M1089.43,1807.62h-27.8c-2.55,0-4.61-2.07-4.61-4.61c0-2.55,2.07-4.61,4.61-4.61h27.8c2.55,0,4.61,2.07,4.61,4.61       C1094.04,1805.55,1091.98,1807.62,1089.43,1807.62z M1033.83,1807.62h-27.8c-2.55,0-4.61-2.07-4.61-4.61       c0-2.55,2.07-4.61,4.61-4.61h27.8c2.55,0,4.61,2.07,4.61,4.61C1038.44,1805.55,1036.38,1807.62,1033.83,1807.62z        M978.23,1807.62h-27.8c-2.55,0-4.61-2.07-4.61-4.61c0-2.55,2.07-4.61,4.61-4.61h27.8c2.55,0,4.61,2.07,4.61,4.61       C982.84,1805.55,980.78,1807.62,978.23,1807.62z M922.63,1807.62h-27.8c-2.55,0-4.61-2.07-4.61-4.61       c0-2.55,2.07-4.61,4.61-4.61h27.8c2.55,0,4.61,2.07,4.61,4.61C927.24,1805.55,925.18,1807.62,922.63,1807.62z M867.03,1807.62       h-27.8c-2.55,0-4.61-2.07-4.61-4.61c0-2.55,2.07-4.61,4.61-4.61h27.8c2.55,0,4.61,2.07,4.61,4.61       C871.64,1805.55,869.58,1807.62,867.03,1807.62z M811.43,1807.62h-27.8c-2.55,0-4.61-2.07-4.61-4.61       c0-2.55,2.07-4.61,4.61-4.61h27.8c2.55,0,4.61,2.07,4.61,4.61C816.04,1805.55,813.98,1807.62,811.43,1807.62z M755.83,1807.62       h-27.8c-2.55,0-4.61-2.07-4.61-4.61c0-2.55,2.07-4.61,4.61-4.61h27.8c2.55,0,4.61,2.07,4.61,4.61       C760.44,1805.55,758.38,1807.62,755.83,1807.62z M700.23,1807.62h-27.8c-2.55,0-4.61-2.07-4.61-4.61       c0-2.55,2.07-4.61,4.61-4.61h27.8c2.55,0,4.61,2.07,4.61,4.61C704.84,1805.55,702.78,1807.62,700.23,1807.62z M644.63,1807.62       h-27.8c-2.55,0-4.61-2.07-4.61-4.61c0-2.55,2.07-4.61,4.61-4.61h27.8c2.55,0,4.61,2.07,4.61,4.61       C649.24,1805.55,647.18,1807.62,644.63,1807.62z M589.05,1807.22c-0.18,0-0.37-0.01-0.55-0.03       c-9.99-1.19-19.59-4.94-27.77-10.84c-2.07-1.49-2.53-4.37-1.04-6.44c1.49-2.07,4.37-2.54,6.44-1.04       c6.91,4.98,15.02,8.15,23.46,9.16c2.53,0.3,4.34,2.6,4.03,5.13C593.35,1805.5,591.36,1807.22,589.05,1807.22z M1338.65,1800.67       c-1.62,0-3.19-0.85-4.04-2.37c-1.24-2.23-0.44-5.04,1.79-6.28c7.43-4.14,13.76-10.14,18.29-17.36c1.35-2.16,4.2-2.81,6.36-1.45       c2.16,1.35,2.81,4.2,1.45,6.36c-5.35,8.52-12.82,15.62-21.61,20.51C1340.18,1800.49,1339.41,1800.67,1338.65,1800.67z        M545.81,1776.11c-1.73,0-3.38-0.97-4.17-2.63c-3.83-8.05-5.77-16.68-5.77-25.65v-3.33c0-2.55,2.07-4.61,4.61-4.61       c2.55,0,4.61,2.07,4.61,4.61v3.33c0,7.59,1.64,14.89,4.87,21.69c1.09,2.3,0.12,5.05-2.18,6.15       C547.15,1775.97,546.48,1776.11,545.81,1776.11z M1366.92,1755.53c-0.09,0-0.17,0-0.26-0.01c-2.54-0.14-4.49-2.31-4.36-4.86       c0.05-0.95,0.08-1.9,0.08-2.84v-24.71c0-2.55,2.07-4.61,4.61-4.61c2.55,0,4.61,2.07,4.61,4.61v24.71c0,1.1-0.03,2.23-0.09,3.34       C1371.39,1753.63,1369.35,1755.53,1366.92,1755.53z M540.49,1721.31c-2.55,0-4.61-2.07-4.61-4.61v-27.8       c0-2.55,2.07-4.61,4.61-4.61c2.55,0,4.61,2.07,4.61,4.61v27.8C545.1,1719.25,543.04,1721.31,540.49,1721.31z M1367,1699.94       c-2.55,0-4.61-2.07-4.61-4.61v-27.8c0-2.55,2.07-4.61,4.61-4.61c2.55,0,4.61,2.07,4.61,4.61v27.8       C1371.62,1697.87,1369.55,1699.94,1367,1699.94z M540.49,1665.71c-2.55,0-4.61-2.07-4.61-4.61v-27.8       c0-2.55,2.07-4.61,4.61-4.61c2.55,0,4.61,2.07,4.61,4.61v27.8C545.1,1663.65,543.04,1665.71,540.49,1665.71z M1367,1644.34       c-2.55,0-4.61-2.07-4.61-4.61v-27.8c0-2.55,2.07-4.61,4.61-4.61c2.55,0,4.61,2.07,4.61,4.61v27.8       C1371.62,1642.27,1369.55,1644.34,1367,1644.34z M540.49,1610.11c-2.55,0-4.61-2.07-4.61-4.61v-27.8       c0-2.55,2.07-4.61,4.61-4.61c2.55,0,4.61,2.07,4.61,4.61v27.8C545.1,1608.05,543.04,1610.11,540.49,1610.11z M1367,1588.74       c-2.55,0-4.61-2.07-4.61-4.61v-27.8c0-2.55,2.07-4.61,4.61-4.61c2.55,0,4.61,2.07,4.61,4.61v27.8       C1371.62,1586.67,1369.55,1588.74,1367,1588.74z M540.49,1554.51c-2.55,0-4.61-2.07-4.61-4.61v-27.8       c0-2.55,2.07-4.61,4.61-4.61c2.55,0,4.61,2.07,4.61,4.61v27.8C545.1,1552.45,543.04,1554.51,540.49,1554.51z M1367,1533.14       c-2.55,0-4.61-2.07-4.61-4.61v-27.8c0-2.55,2.07-4.61,4.61-4.61c2.55,0,4.61,2.07,4.61,4.61v27.8       C1371.62,1531.07,1369.55,1533.14,1367,1533.14z M540.49,1498.91c-2.55,0-4.61-2.07-4.61-4.61v-27.8       c0-2.55,2.07-4.61,4.61-4.61c2.55,0,4.61,2.07,4.61,4.61v27.8C545.1,1496.85,543.04,1498.91,540.49,1498.91z M1367,1477.54       c-2.55,0-4.61-2.07-4.61-4.61v-27.8c0-2.55,2.07-4.61,4.61-4.61c2.55,0,4.61,2.07,4.61,4.61v27.8       C1371.62,1475.47,1369.55,1477.54,1367,1477.54z M540.49,1443.31c-2.55,0-4.61-2.07-4.61-4.61v-27.8       c0-2.55,2.07-4.61,4.61-4.61c2.55,0,4.61,2.07,4.61,4.61v27.8C545.1,1441.25,543.04,1443.31,540.49,1443.31z M1367,1421.94       c-2.55,0-4.61-2.07-4.61-4.61v-27.8c0-2.55,2.07-4.61,4.61-4.61c2.55,0,4.61,2.07,4.61,4.61v27.8       C1371.62,1419.87,1369.55,1421.94,1367,1421.94z M540.49,1387.71c-2.55,0-4.61-2.07-4.61-4.61v-27.8       c0-2.55,2.07-4.61,4.61-4.61c2.55,0,4.61,2.07,4.61,4.61v27.8C545.1,1385.65,543.04,1387.71,540.49,1387.71z M1367,1366.34       c-2.55,0-4.61-2.07-4.61-4.61v-27.8c0-2.55,2.07-4.61,4.61-4.61c2.55,0,4.61,2.07,4.61,4.61v27.8       C1371.62,1364.27,1369.55,1366.34,1367,1366.34z M540.49,1332.11c-2.55,0-4.61-2.07-4.61-4.61v-24.6c0-1.15,0.03-2.31,0.1-3.45       c0.15-2.54,2.33-4.48,4.87-4.35c2.54,0.14,4.49,2.32,4.35,4.87c-0.06,0.97-0.08,1.96-0.08,2.93v24.6       C545.1,1330.05,543.04,1332.11,540.49,1332.11z M1367,1310.74c-2.55,0-4.61-2.07-4.61-4.61v-3.23c0-7.62-1.65-14.95-4.91-21.77       c-1.1-2.3-0.12-5.05,2.17-6.15c2.3-1.1,5.06-0.13,6.15,2.17c3.86,8.08,5.82,16.74,5.82,25.75v3.23       C1371.62,1308.67,1369.55,1310.74,1367,1310.74z M548.95,1278.13c-0.84,0-1.69-0.23-2.46-0.71c-2.16-1.36-2.8-4.21-1.44-6.36       c5.37-8.51,12.85-15.59,21.65-20.47c2.23-1.24,5.04-0.43,6.27,1.8c1.24,2.23,0.43,5.04-1.8,6.27       c-7.44,4.13-13.78,10.12-18.32,17.32C551.98,1277.36,550.48,1278.13,548.95,1278.13z M1343.97,1262.66       c-0.93,0-1.87-0.28-2.69-0.87c-6.92-4.97-15.04-8.12-23.48-9.11c-2.53-0.3-4.34-2.59-4.04-5.12c0.3-2.53,2.59-4.34,5.12-4.04       c9.99,1.17,19.6,4.9,27.79,10.78c2.07,1.49,2.54,4.37,1.06,6.44C1346.82,1262,1345.41,1262.66,1343.97,1262.66z        M1290.56,1252.34h-27.8c-2.55,0-4.61-2.07-4.61-4.61c0-2.55,2.07-4.61,4.61-4.61h27.8c2.55,0,4.61,2.07,4.61,4.61       C1295.17,1250.27,1293.11,1252.34,1290.56,1252.34z M1234.96,1252.34h-27.8c-2.55,0-4.61-2.07-4.61-4.61       c0-2.55,2.07-4.61,4.61-4.61h27.8c2.55,0,4.61,2.07,4.61,4.61C1239.57,1250.27,1237.51,1252.34,1234.96,1252.34z        M1179.36,1252.34h-27.8c-2.55,0-4.61-2.07-4.61-4.61c0-2.55,2.07-4.61,4.61-4.61h27.8c2.55,0,4.61,2.07,4.61,4.61       C1183.97,1250.27,1181.91,1252.34,1179.36,1252.34z M1123.76,1252.34h-27.8c-2.55,0-4.61-2.07-4.61-4.61       c0-2.55,2.07-4.61,4.61-4.61h27.8c2.55,0,4.61,2.07,4.61,4.61C1128.37,1250.27,1126.31,1252.34,1123.76,1252.34z        M1068.16,1252.34h-27.8c-2.55,0-4.61-2.07-4.61-4.61c0-2.55,2.07-4.61,4.61-4.61h27.8c2.55,0,4.61,2.07,4.61,4.61       C1072.77,1250.27,1070.71,1252.34,1068.16,1252.34z M1012.56,1252.34h-27.8c-2.55,0-4.61-2.07-4.61-4.61       c0-2.55,2.07-4.61,4.61-4.61h27.8c2.55,0,4.61,2.07,4.61,4.61C1017.17,1250.27,1015.11,1252.34,1012.56,1252.34z        M956.96,1252.34h-27.8c-2.55,0-4.61-2.07-4.61-4.61c0-2.55,2.07-4.61,4.61-4.61h27.8c2.55,0,4.61,2.07,4.61,4.61       C961.57,1250.27,959.51,1252.34,956.96,1252.34z M901.36,1252.34h-27.8c-2.55,0-4.61-2.07-4.61-4.61       c0-2.55,2.07-4.61,4.61-4.61h27.8c2.55,0,4.61,2.07,4.61,4.61C905.97,1250.27,903.91,1252.34,901.36,1252.34z M845.76,1252.34       h-27.8c-2.55,0-4.61-2.07-4.61-4.61c0-2.55,2.07-4.61,4.61-4.61h27.8c2.55,0,4.61,2.07,4.61,4.61       C850.37,1250.27,848.31,1252.34,845.76,1252.34z M790.16,1252.34h-27.8c-2.55,0-4.61-2.07-4.61-4.61       c0-2.55,2.07-4.61,4.61-4.61h27.8c2.55,0,4.61,2.07,4.61,4.61C794.77,1250.27,792.71,1252.34,790.16,1252.34z M734.56,1252.34       h-27.8c-2.55,0-4.61-2.07-4.61-4.61c0-2.55,2.07-4.61,4.61-4.61h27.8c2.55,0,4.61,2.07,4.61,4.61       C739.17,1250.27,737.11,1252.34,734.56,1252.34z M678.96,1252.34h-27.8c-2.55,0-4.61-2.07-4.61-4.61       c0-2.55,2.07-4.61,4.61-4.61h27.8c2.55,0,4.61,2.07,4.61,4.61C683.57,1250.27,681.51,1252.34,678.96,1252.34z M623.36,1252.34       l-27.81,0c-2.55,0-4.61-2.07-4.61-4.61c0-2.55,2.07-4.61,4.62-4.61l0.1,0h27.7c2.55,0,4.61,2.07,4.61,4.61       C627.97,1250.27,625.91,1252.34,623.36,1252.34z"/><path fill="#0643a3" d="M1409.02,1432.68v185.37h-245.79c-51.19,0-92.68-41.5-92.68-92.69c0-25.59,10.37-48.76,27.14-65.53      c16.78-16.78,39.94-27.15,65.54-27.15H1409.02z"/><circle cx="1173.82" cy="1525.36" r="55.6" fill="#84b2fe" transform="rotate(-80.781 1173.849 1525.344)"/></g></g><g><path fill="#cdd9fc" d="M955.38,1493.49v404.13H631.3v-404.13c0-13.17,10.68-23.85,23.84-23.85h276.39      C944.7,1469.64,955.38,1480.31,955.38,1493.49z"/><path fill="#fcbb97" d="M955.38,1493.49v42.67H631.3v-42.67c0-13.17,10.68-23.85,23.84-23.85h276.39      C944.7,1469.64,955.38,1480.31,955.38,1493.49z"/><path fill="#fff" d="M977.12,1493.49v404.13H653.04v-404.13c0-13.17,10.68-23.85,23.84-23.85h276.39       C966.45,1469.64,977.12,1480.31,977.12,1493.49z"/><path fill="#ffcdad" d="M977.12,1493.49v42.67H653.04v-42.67c0-13.17,10.68-23.85,23.84-23.85h276.39       C966.45,1469.64,977.12,1480.31,977.12,1493.49z"/><circle cx="705.3" cy="1501.88" r="13.46" fill="#2c7efe" transform="rotate(-45.001 705.283 1501.897)"/><circle cx="705.3" cy="1501.88" r="7.35" fill="#fff" transform="rotate(-45.001 705.283 1501.897)"/><path fill="#fff" d="M709.8,1466.68v34.12c0,2.47-2.02,4.47-4.52,4.47c-2.5,0-4.52-2-4.52-4.47v-34.12c0-5.29-3.99-9.6-8.89-9.6     s-8.89,4.31-8.89,9.6v2.92h-9.04v-2.92c0-10.68,8.05-19.36,17.94-19.36S709.8,1456.01,709.8,1466.68z"/><path fill="#84b2fe" d="M704.39,1463.07c-0.52,0-0.99-0.36-1.11-0.89c-0.27-1.21-1.21-4.25-4.17-6.44      c-3.12-2.32-6.48-2.23-7.77-2.08c-0.63,0.07-1.19-0.38-1.26-1c-0.07-0.62,0.38-1.19,1-1.26c1.56-0.18,5.61-0.28,9.38,2.52      c3.58,2.65,4.71,6.32,5.04,7.78c0.14,0.61-0.25,1.22-0.87,1.36C704.55,1463.06,704.47,1463.07,704.39,1463.07z"/><circle cx="780.61" cy="1501.56" r="13.46" fill="#2c7efe" transform="rotate(-22.308 780.515 1501.411)"/><circle cx="780.61" cy="1501.56" r="7.35" fill="#fff" transform="rotate(-25.525 780.604 1501.545)"/><path fill="#fff" d="M785.11,1466.36v34.12c0,2.47-2.02,4.47-4.52,4.47c-2.5,0-4.52-2-4.52-4.47v-34.12     c0-5.29-3.99-9.6-8.89-9.6c-4.9,0-8.89,4.31-8.89,9.6v2.92h-9.04v-2.92c0-10.68,8.05-19.36,17.94-19.36     S785.11,1455.68,785.11,1466.36z"/><path fill="#84b2fe" d="M779.7,1462.74c-0.52,0-0.99-0.36-1.11-0.89c-0.27-1.21-1.21-4.25-4.17-6.44      c-3.12-2.32-6.47-2.23-7.77-2.08c-0.63,0.07-1.19-0.38-1.26-1c-0.07-0.62,0.38-1.19,1-1.26c1.56-0.18,5.61-0.28,9.38,2.52      c3.58,2.65,4.71,6.32,5.04,7.78c0.14,0.61-0.25,1.22-0.87,1.36C779.87,1462.73,779.78,1462.74,779.7,1462.74z"/><circle cx="855.92" cy="1501.56" r="13.46" fill="#2c7efe" transform="rotate(-45.001 855.911 1501.573)"/><circle cx="855.92" cy="1501.56" r="7.35" fill="#fff" transform="rotate(-45.001 855.911 1501.573)"/><path fill="#fff" d="M860.42,1466.36v34.12c0,2.47-2.02,4.47-4.52,4.47c-2.5,0-4.52-2-4.52-4.47v-34.12     c0-5.29-3.99-9.6-8.89-9.6c-4.9,0-8.89,4.31-8.89,9.6v2.92h-9.04v-2.92c0-10.68,8.05-19.36,17.94-19.36     S860.42,1455.68,860.42,1466.36z"/><path fill="#84b2fe" d="M855.01,1462.74c-0.52,0-0.99-0.36-1.11-0.89c-0.27-1.21-1.21-4.25-4.17-6.44      c-3.12-2.32-6.47-2.23-7.77-2.08c-0.63,0.07-1.19-0.38-1.26-1c-0.07-0.62,0.38-1.19,1-1.26c1.56-0.18,5.61-0.28,9.38,2.52      c3.58,2.65,4.71,6.32,5.03,7.78c0.14,0.61-0.25,1.22-0.87,1.36C855.18,1462.73,855.1,1462.74,855.01,1462.74z"/><circle cx="931.24" cy="1501.56" r="13.46" fill="#2c7efe" transform="rotate(-22.308 931.127 1501.413)"/><circle cx="931.24" cy="1501.56" r="7.35" fill="#fff" transform="rotate(-22.392 931.259 1501.424)"/><path fill="#fff" d="M935.74,1466.36v34.12c0,2.47-2.02,4.47-4.52,4.47c-2.5,0-4.52-2-4.52-4.47v-34.12     c0-5.29-3.99-9.6-8.89-9.6c-4.9,0-8.89,4.31-8.89,9.6v2.92h-9.04v-2.92c0-10.68,8.05-19.36,17.94-19.36     C927.69,1446.99,935.74,1455.68,935.74,1466.36z"/><path fill="#84b2fe" d="M930.33,1462.74c-0.52,0-0.99-0.36-1.11-0.89c-0.27-1.21-1.21-4.25-4.17-6.44      c-3.12-2.32-6.47-2.23-7.77-2.08c-0.63,0.07-1.19-0.38-1.26-1c-0.07-0.62,0.38-1.19,1-1.26c1.56-0.18,5.61-0.28,9.38,2.52      c3.58,2.65,4.71,6.32,5.04,7.78c0.14,0.61-0.25,1.22-0.87,1.36C930.49,1462.73,930.41,1462.74,930.33,1462.74z"/><path fill="#ffcdad" d="M805.59,1596.24h-44.29c-1.79,0-3.25-1.28-3.25-2.87v-39.08c0-1.58,1.45-2.87,3.25-2.87h44.29      c1.79,0,3.25,1.28,3.25,2.87v39.08C808.84,1594.96,807.39,1596.24,805.59,1596.24z M764.55,1590.51h37.79v-33.34h-37.79V1590.51      z"/><path fill="#ffcdad" d="M867.83,1596.24h-44.29c-1.79,0-3.25-1.28-3.25-2.87v-39.08c0-1.58,1.45-2.87,3.25-2.87h44.29      c1.79,0,3.25,1.28,3.25,2.87v39.08C871.08,1594.96,869.62,1596.24,867.83,1596.24z M826.79,1590.51h37.79v-33.34h-37.79V1590.51      z"/><path fill="#ffcdad" d="M930.06,1596.24h-44.29c-1.79,0-3.25-1.28-3.25-2.87v-39.08c0-1.58,1.45-2.87,3.25-2.87h44.29      c1.79,0,3.25,1.28,3.25,2.87v39.08C933.31,1594.96,931.85,1596.24,930.06,1596.24z M889.02,1590.51h37.79v-33.34h-37.79V1590.51      z"/><path fill="#ea718b" d="M743.36,1652.35h-44.29c-1.79,0-3.25-1.28-3.25-2.87v-39.08c0-1.58,1.45-2.87,3.25-2.87h44.29      c1.79,0,3.25,1.28,3.25,2.87v39.08C746.61,1651.06,745.16,1652.35,743.36,1652.35z M702.32,1646.61h37.79v-33.34h-37.79V1646.61      z"/><path fill="#ffcdad" d="M805.59,1652.35h-44.29c-1.79,0-3.25-1.28-3.25-2.87v-39.08c0-1.58,1.45-2.87,3.25-2.87h44.29      c1.79,0,3.25,1.28,3.25,2.87v39.08C808.84,1651.06,807.39,1652.35,805.59,1652.35z M764.55,1646.61h37.79v-33.34h-37.79V1646.61      z"/><path fill="#ffcdad" d="M867.83,1652.35h-44.29c-1.79,0-3.25-1.28-3.25-2.87v-39.08c0-1.58,1.45-2.87,3.25-2.87h44.29      c1.79,0,3.25,1.28,3.25,2.87v39.08C871.08,1651.06,869.62,1652.35,867.83,1652.35z M826.79,1646.61h37.79v-33.34h-37.79V1646.61      z"/><path fill="#ffcdad" d="M930.06,1652.35h-44.29c-1.79,0-3.25-1.28-3.25-2.87v-39.08c0-1.58,1.45-2.87,3.25-2.87h44.29      c1.79,0,3.25,1.28,3.25,2.87v39.08C933.31,1651.06,931.85,1652.35,930.06,1652.35z M889.02,1646.61h37.79v-33.34h-37.79V1646.61      z"/><path fill="#ea718b" d="M743.36,1708.45h-44.29c-1.79,0-3.25-1.28-3.25-2.87v-39.08c0-1.58,1.45-2.87,3.25-2.87h44.29      c1.79,0,3.25,1.28,3.25,2.87v39.08C746.61,1707.17,745.16,1708.45,743.36,1708.45z M702.32,1702.72h37.79v-33.34h-37.79V1702.72      z"/><path fill="#ffcdad" d="M805.59,1708.45h-44.29c-1.79,0-3.25-1.28-3.25-2.87v-39.08c0-1.58,1.45-2.87,3.25-2.87h44.29      c1.79,0,3.25,1.28,3.25,2.87v39.08C808.84,1707.17,807.39,1708.45,805.59,1708.45z M764.55,1702.72h37.79v-33.34h-37.79V1702.72      z"/><path fill="#ffcdad" d="M867.83,1708.45h-44.29c-1.79,0-3.25-1.28-3.25-2.87v-39.08c0-1.58,1.45-2.87,3.25-2.87h44.29      c1.79,0,3.25,1.28,3.25,2.87v39.08C871.08,1707.17,869.62,1708.45,867.83,1708.45z M826.79,1702.72h37.79v-33.34h-37.79V1702.72      z"/><path fill="#ffcdad" d="M930.06,1708.45h-44.29c-1.79,0-3.25-1.28-3.25-2.87v-39.08c0-1.58,1.45-2.87,3.25-2.87h44.29      c1.79,0,3.25,1.28,3.25,2.87v39.08C933.31,1707.17,931.85,1708.45,930.06,1708.45z M889.02,1702.72h37.79v-33.34h-37.79V1702.72      z"/><path fill="#ea718b" d="M743.36,1764.56h-44.29c-1.79,0-3.25-1.28-3.25-2.87v-39.08c0-1.58,1.45-2.87,3.25-2.87h44.29      c1.79,0,3.25,1.28,3.25,2.87v39.08C746.61,1763.27,745.16,1764.56,743.36,1764.56z M702.32,1758.82h37.79v-33.34h-37.79V1758.82      z"/><path fill="#ffcdad" d="M805.59,1764.56h-44.29c-1.79,0-3.25-1.28-3.25-2.87v-39.08c0-1.58,1.45-2.87,3.25-2.87h44.29      c1.79,0,3.25,1.28,3.25,2.87v39.08C808.84,1763.27,807.39,1764.56,805.59,1764.56z M764.55,1758.82h37.79v-33.34h-37.79V1758.82      z"/><path fill="#ffcdad" d="M867.83,1764.56h-44.29c-1.79,0-3.25-1.28-3.25-2.87v-39.08c0-1.58,1.45-2.87,3.25-2.87h44.29      c1.79,0,3.25,1.28,3.25,2.87v39.08C871.08,1763.27,869.62,1764.56,867.83,1764.56z M826.79,1758.82h37.79v-33.34h-37.79V1758.82      z"/><path fill="#ffcdad" d="M930.06,1764.56h-44.29c-1.79,0-3.25-1.28-3.25-2.87v-39.08c0-1.58,1.45-2.87,3.25-2.87h44.29      c1.79,0,3.25,1.28,3.25,2.87v39.08C933.31,1763.27,931.85,1764.56,930.06,1764.56z M889.02,1758.82h37.79v-33.34h-37.79V1758.82      z"/><path fill="#ea718b" d="M743.36,1820.66h-44.29c-1.79,0-3.25-1.28-3.25-2.87v-39.08c0-1.58,1.45-2.87,3.25-2.87h44.29      c1.79,0,3.25,1.28,3.25,2.87v39.08C746.61,1819.38,745.16,1820.66,743.36,1820.66z M702.32,1814.93h37.79v-33.34h-37.79V1814.93      z"/><path fill="#ffcdad" d="M805.59,1820.66h-44.29c-1.79,0-3.25-1.28-3.25-2.87v-39.08c0-1.58,1.45-2.87,3.25-2.87h44.29      c1.79,0,3.25,1.28,3.25,2.87v39.08C808.84,1819.38,807.39,1820.66,805.59,1820.66z M764.55,1814.93h37.79v-33.34h-37.79V1814.93      z"/><path fill="#ffcdad" d="M867.83,1820.66h-44.29c-1.79,0-3.25-1.28-3.25-2.87v-39.08c0-1.58,1.45-2.87,3.25-2.87h44.29      c1.79,0,3.25,1.28,3.25,2.87v39.08C871.08,1819.38,869.62,1820.66,867.83,1820.66z M826.79,1814.93h37.79v-33.34h-37.79V1814.93      z"/><path fill="#ffcdad" d="M930.06,1820.66h-44.29c-1.79,0-3.25-1.28-3.25-2.87v-39.08c0-1.58,1.45-2.87,3.25-2.87h44.29      c1.79,0,3.25,1.28,3.25,2.87v39.08C933.31,1819.38,931.85,1820.66,930.06,1820.66z M889.02,1814.93h37.79v-33.34h-37.79V1814.93      z"/><g><path fill="#ea718b" d="M743.36,1876.76h-44.29c-1.79,0-3.25-1.28-3.25-2.87v-39.08c0-1.58,1.45-2.87,3.25-2.87h44.29      c1.79,0,3.25,1.28,3.25,2.87v39.08C746.61,1875.48,745.16,1876.76,743.36,1876.76z M702.32,1871.03h37.79v-33.34h-37.79V1871.03      z"/></g><g><path fill="#ffcdad" d="M805.59,1876.76h-44.29c-1.79,0-3.25-1.28-3.25-2.87v-39.08c0-1.58,1.45-2.87,3.25-2.87h44.29      c1.79,0,3.25,1.28,3.25,2.87v39.08C808.84,1875.48,807.39,1876.76,805.59,1876.76z M764.55,1871.03h37.79v-33.34h-37.79V1871.03      z"/></g><g><path fill="#ffcdad" d="M867.83,1876.76h-44.29c-1.79,0-3.25-1.28-3.25-2.87v-39.08c0-1.58,1.45-2.87,3.25-2.87h44.29      c1.79,0,3.25,1.28,3.25,2.87v39.08C871.08,1875.48,869.62,1876.76,867.83,1876.76z M826.79,1871.03h37.79v-33.34h-37.79V1871.03      z"/></g></g><g><path fill="#f8cd12" d="M1811.19,1850.96c0,0.52-0.06,1.03-0.18,1.54v0.15h-0.04c-1.31,5.27-8.73,10.29-21.13,14.86      c-1.95,0.72-4.02,1.43-6.21,2.12c-6.73,2.14-14.59,4.17-23.43,6.07c-2.02,0.43-4.09,0.86-6.21,1.28      c-7.55,1.49-15.74,2.9-24.49,4.2c-2.04,0.31-4.11,0.6-6.21,0.9c-7.22,1-14.79,1.94-22.69,2.81c-2.05,0.23-4.12,0.45-6.21,0.66      c-7.46,0.77-15.18,1.47-23.14,2.11c-2.05,0.16-4.12,0.32-6.21,0.47c-7.95,0.59-16.12,1.12-24.49,1.57      c-2.06,0.11-4.13,0.22-6.21,0.32c-7.42,0.37-14.99,0.68-22.69,0.93c-2.06,0.06-4.13,0.13-6.21,0.19      c-8.39,0.24-16.92,0.41-25.58,0.51c-2.06,0.02-4.13,0.04-6.21,0.06c-3.65,0.02-7.32,0.04-11.01,0.04      c-4.52,0-9.02-0.02-13.48-0.06c-2.08-0.02-4.14-0.04-6.2-0.07c-7.67-0.1-15.23-0.25-22.69-0.47c-2.08-0.06-4.15-0.12-6.21-0.19      c-7.26-0.24-14.41-0.52-21.42-0.86c-2.08-0.1-4.15-0.21-6.21-0.32c-8.37-0.44-16.54-0.95-24.49-1.53      c-2.08-0.15-4.15-0.31-6.2-0.47c-7.8-0.61-15.37-1.28-22.69-2.02c-2.09-0.21-4.16-0.42-6.21-0.64      c-8.94-0.96-17.49-2.01-25.58-3.15c-2.1-0.29-4.17-0.59-6.21-0.9c-8.76-1.31-16.95-2.72-24.49-4.23      c-2.12-0.42-4.19-0.85-6.21-1.29c-8.54-1.85-16.14-3.82-22.68-5.91c-2.19-0.69-4.26-1.4-6.21-2.12      c-12.4-4.58-19.82-9.59-21.13-14.86h-0.04v-0.15c-0.12-0.51-0.18-1.03-0.18-1.54c0-0.52,0.06-1.03,0.18-1.54v-57.89      c165.57,1.71,331.14,3.41,496.71,5.12v52.78C1811.13,1849.93,1811.19,1850.44,1811.19,1850.96z"/><ellipse cx="1562.67" cy="1793.87" fill="#f8ea14" rx="248.53" ry="40.77"/><path fill="#f09c23" d="M1787.13,1789.26c0,0.78-0.37,1.55-1.09,2.31c-11.17,11.78-106.91,20.99-223.37,20.99      c-116.46,0-212.21-9.2-223.38-20.99c-0.72-0.76-1.09-1.53-1.09-2.31c0-12.86,100.5-23.29,224.46-23.29      C1686.63,1765.97,1787.13,1776.4,1787.13,1789.26z"/><path fill="#f8cd12" d="M1786.04,1791.57c-11.17,11.78-106.91,20.99-223.37,20.99c-116.46,0-212.21-9.2-223.37-20.99      c11.15-11.78,106.9-20.99,223.37-20.99C1679.14,1770.58,1774.89,1779.79,1786.04,1791.57z"/><path fill="#f09c23" d="M1341.69,1823.25v46.38c-2.19-0.69-4.26-1.4-6.21-2.12v-44.26c0-1.71,1.39-3.1,3.1-3.1       C1340.3,1820.15,1341.69,1821.54,1341.69,1823.25z"/><path fill="#f09c23" d="M1370.58,1831.37v45.45c-2.12-0.42-4.19-0.85-6.21-1.29v-44.16c0-1.71,1.39-3.1,3.1-3.1       C1369.19,1828.27,1370.58,1829.66,1370.58,1831.37z"/><path fill="#f09c23" d="M1401.28,1837.71v44.25c-2.1-0.29-4.17-0.59-6.21-0.9v-43.35c0-1.72,1.39-3.1,3.1-3.1       C1399.89,1834.61,1401.28,1835.99,1401.28,1837.71z"/><path fill="#f09c23" d="M1433.07,1842.21v43.54c-2.09-0.21-4.16-0.42-6.21-0.64v-42.9c0-1.71,1.39-3.1,3.1-3.1       C1431.68,1839.11,1433.07,1840.5,1433.07,1842.21z"/><path fill="#f09c23" d="M1461.96,1845.12v43.12c-2.08-0.14-4.15-0.29-6.2-0.44v-42.68c0-1.61,1.39-2.91,3.1-2.91       C1460.57,1842.21,1461.96,1843.51,1461.96,1845.12z"/><path fill="#f09c23" d="M1492.66,1847.86v42.22c-2.08-0.09-4.15-0.18-6.21-0.28v-41.95c0-1.51,1.39-2.74,3.1-2.74       C1491.27,1845.13,1492.66,1846.35,1492.66,1847.86z"/><path fill="#f09c23" d="M1520.29,1850.85v40.29c-2.08-0.05-4.15-0.11-6.21-0.17v-40.12c0-1.53,1.39-2.77,3.1-2.77       C1518.9,1848.08,1520.29,1849.32,1520.29,1850.85z"/><path fill="#f09c23" d="M1549.18,1850.85v40.82c-2.08-0.02-4.14-0.03-6.2-0.06v-40.76c0-1.53,1.39-2.77,3.1-2.77       C1547.8,1848.08,1549.18,1849.32,1549.18,1850.85z"/><path fill="#f09c23" d="M1579.88,1850.85v40.79c-2.06,0.02-4.13,0.04-6.21,0.05v-40.84c0-1.53,1.39-2.77,3.1-2.77       C1578.5,1848.08,1579.88,1849.32,1579.88,1850.85z"/><path fill="#f09c23" d="M1611.67,1850.64v40.32c-2.06,0.06-4.13,0.12-6.21,0.17v-40.48c0-1.54,1.39-2.78,3.1-2.78       S1611.67,1849.1,1611.67,1850.64z"/><path fill="#f09c23" d="M1640.57,1847.86v41.86c-2.06,0.1-4.13,0.19-6.21,0.28v-42.14c0-1.51,1.39-2.74,3.1-2.74       C1639.18,1845.13,1640.57,1846.35,1640.57,1847.86z"/><path fill="#f09c23" d="M1671.27,1845.12v42.55c-2.05,0.15-4.12,0.3-6.21,0.44v-43c0-1.6,1.39-2.91,3.1-2.91       C1669.88,1842.21,1671.27,1843.51,1671.27,1845.12z"/><path fill="#f09c23" d="M1700.62,1841.19v43.67c-2.05,0.23-4.12,0.46-6.21,0.68v-44.35c0-1.75,1.39-3.18,3.1-3.18       C1699.23,1838.01,1700.62,1839.43,1700.62,1841.19z"/><path fill="#f09c23" d="M1729.51,1837.71v43.46c-2.04,0.31-4.11,0.6-6.21,0.9v-44.36c0-1.72,1.39-3.1,3.1-3.1       C1728.12,1834.61,1729.51,1835.99,1729.51,1837.71z"/><path fill="#f09c23" d="M1760.21,1831.37v44.32c-2.02,0.43-4.09,0.86-6.21,1.28v-45.6c0-1.71,1.39-3.1,3.1-3.1       C1758.82,1828.27,1760.21,1829.66,1760.21,1831.37z"/><path fill="#f09c23" d="M1789.85,1823.25v44.26c-1.95,0.72-4.02,1.43-6.21,2.12v-46.38c0-1.71,1.39-3.1,3.1-3.1       C1788.46,1820.15,1789.85,1821.54,1789.85,1823.25z"/><g><path fill="#f8cd12" d="M1800.99,1783.07c0,0.52-0.06,1.03-0.18,1.54v0.15h-0.04c-1.31,5.27-8.73,10.29-21.13,14.86      c-1.95,0.72-4.02,1.43-6.21,2.12c-6.73,2.14-14.59,4.17-23.43,6.07c-2.02,0.43-4.09,0.86-6.21,1.28      c-7.55,1.49-15.74,2.9-24.49,4.2c-2.04,0.31-4.11,0.6-6.21,0.9c-7.22,1-14.79,1.94-22.69,2.81c-2.05,0.23-4.12,0.45-6.21,0.66      c-7.46,0.77-15.18,1.47-23.14,2.11c-2.05,0.16-4.12,0.32-6.21,0.47c-7.95,0.59-16.12,1.12-24.49,1.57      c-2.06,0.11-4.13,0.22-6.21,0.32c-7.42,0.37-14.99,0.68-22.69,0.93c-2.06,0.06-4.13,0.13-6.21,0.19      c-8.39,0.24-16.92,0.41-25.58,0.51c-2.06,0.02-4.13,0.04-6.21,0.06c-3.65,0.02-7.32,0.04-11.01,0.04      c-4.52,0-9.02-0.02-13.48-0.06c-2.08-0.02-4.14-0.04-6.2-0.07c-7.67-0.1-15.23-0.25-22.69-0.47c-2.08-0.06-4.15-0.12-6.21-0.19      c-7.26-0.24-14.41-0.52-21.42-0.86c-2.08-0.1-4.15-0.21-6.21-0.32c-8.37-0.44-16.54-0.95-24.49-1.53      c-2.08-0.15-4.15-0.31-6.2-0.47c-7.8-0.61-15.37-1.29-22.69-2.02c-2.09-0.21-4.16-0.42-6.21-0.64      c-8.94-0.96-17.49-2.01-25.58-3.15c-2.1-0.29-4.17-0.59-6.21-0.9c-8.76-1.31-16.95-2.72-24.49-4.23      c-2.12-0.42-4.19-0.85-6.21-1.29c-8.54-1.85-16.14-3.82-22.68-5.91c-2.19-0.69-4.26-1.4-6.21-2.12      c-12.4-4.58-19.82-9.59-21.13-14.86h-0.04v-0.15c-0.12-0.51-0.18-1.03-0.18-1.54c0-0.52,0.06-1.03,0.18-1.54v-57.89      c165.57,1.71,331.14,3.41,496.71,5.12v52.78C1800.93,1782.04,1800.99,1782.55,1800.99,1783.07z"/><ellipse cx="1552.46" cy="1725.98" fill="#f8ea14" rx="248.53" ry="40.77"/><path fill="#f09c23" d="M1776.92,1721.37c0,0.78-0.37,1.55-1.09,2.31c-11.17,11.78-106.91,20.99-223.37,20.99      c-116.46,0-212.21-9.2-223.38-20.99c-0.72-0.76-1.09-1.53-1.09-2.31c0-12.86,100.5-23.29,224.46-23.29      C1676.43,1698.08,1776.92,1708.51,1776.92,1721.37z"/><path fill="#f8cd12" d="M1775.83,1723.68c-11.17,11.78-106.91,20.99-223.37,20.99c-116.46,0-212.21-9.2-223.38-20.99      c11.15-11.78,106.9-20.99,223.38-20.99C1668.93,1702.69,1764.68,1711.9,1775.83,1723.68z"/><path fill="#f09c23" d="M1331.48,1755.36v46.38c-2.19-0.69-4.26-1.4-6.21-2.12v-44.26c0-1.71,1.39-3.1,3.1-3.1       C1330.09,1752.26,1331.48,1753.65,1331.48,1755.36z"/><path fill="#f09c23" d="M1360.37,1763.49v45.45c-2.12-0.42-4.19-0.85-6.21-1.29v-44.16c0-1.71,1.39-3.1,3.1-3.1       C1358.98,1760.38,1360.37,1761.77,1360.37,1763.49z"/><path fill="#f09c23" d="M1391.07,1769.82v44.25c-2.1-0.29-4.17-0.59-6.21-0.9v-43.35c0-1.72,1.39-3.1,3.1-3.1       C1389.68,1766.72,1391.07,1768.1,1391.07,1769.82z"/><path fill="#f09c23" d="M1422.86,1774.32v43.54c-2.09-0.21-4.16-0.42-6.21-0.64v-42.9c0-1.71,1.39-3.1,3.1-3.1       S1422.86,1772.61,1422.86,1774.32z"/><path fill="#f09c23" d="M1451.75,1777.23v43.12c-2.08-0.14-4.15-0.29-6.2-0.44v-42.69c0-1.61,1.39-2.91,3.1-2.91       C1450.37,1774.32,1451.75,1775.62,1451.75,1777.23z"/><path fill="#f09c23" d="M1482.45,1779.97v42.22c-2.08-0.09-4.15-0.18-6.21-0.28v-41.95c0-1.51,1.39-2.74,3.1-2.74       C1481.07,1777.24,1482.45,1778.46,1482.45,1779.97z"/><path fill="#f09c23" d="M1510.08,1782.96v40.29c-2.08-0.05-4.15-0.11-6.21-0.17v-40.12c0-1.53,1.39-2.77,3.1-2.77       S1510.08,1781.43,1510.08,1782.96z"/><path fill="#f09c23" d="M1538.98,1782.96v40.81c-2.08-0.02-4.14-0.03-6.2-0.06v-40.76c0-1.53,1.39-2.77,3.1-2.77       C1537.59,1780.19,1538.98,1781.43,1538.98,1782.96z"/><path fill="#f09c23" d="M1569.68,1782.96v40.79c-2.06,0.02-4.13,0.04-6.21,0.05v-40.84c0-1.53,1.39-2.77,3.1-2.77       C1568.29,1780.19,1569.68,1781.43,1569.68,1782.96z"/><path fill="#f09c23" d="M1601.46,1782.75v40.32c-2.06,0.06-4.13,0.12-6.21,0.17v-40.48c0-1.53,1.39-2.78,3.1-2.78       S1601.46,1781.22,1601.46,1782.75z"/><path fill="#f09c23" d="M1630.36,1779.97v41.86c-2.06,0.1-4.13,0.19-6.21,0.28v-42.14c0-1.51,1.39-2.74,3.1-2.74       C1628.97,1777.24,1630.36,1778.46,1630.36,1779.97z"/><path fill="#f09c23" d="M1661.06,1777.23v42.55c-2.05,0.15-4.12,0.3-6.21,0.44v-43c0-1.6,1.39-2.91,3.1-2.91       C1659.67,1774.32,1661.06,1775.62,1661.06,1777.23z"/><path fill="#f09c23" d="M1690.41,1773.3v43.67c-2.05,0.23-4.12,0.46-6.21,0.68v-44.35c0-1.75,1.39-3.18,3.1-3.18       C1689.02,1770.12,1690.41,1771.54,1690.41,1773.3z"/><path fill="#f09c23" d="M1719.31,1769.82v43.46c-2.04,0.31-4.11,0.6-6.21,0.9v-44.36c0-1.72,1.39-3.1,3.1-3.1       C1717.91,1766.72,1719.31,1768.1,1719.31,1769.82z"/><path fill="#f09c23" d="M1750.01,1763.49v44.32c-2.02,0.43-4.09,0.86-6.21,1.28v-45.6c0-1.71,1.39-3.1,3.1-3.1       C1748.61,1760.38,1750.01,1761.77,1750.01,1763.49z"/><path fill="#f09c23" d="M1779.64,1755.36v44.26c-1.95,0.72-4.02,1.43-6.21,2.12v-46.38c0-1.71,1.39-3.1,3.1-3.1       C1778.25,1752.26,1779.64,1753.65,1779.64,1755.36z"/></g><g><path fill="#f8cd12" d="M1815.1,1711.39c0,0.52-0.06,1.03-0.18,1.54v0.15h-0.04c-1.31,5.27-8.73,10.29-21.13,14.86      c-1.95,0.72-4.02,1.43-6.21,2.12c-6.73,2.14-14.59,4.17-23.43,6.07c-2.02,0.43-4.09,0.86-6.21,1.28      c-7.55,1.49-15.74,2.9-24.49,4.2c-2.04,0.31-4.11,0.6-6.21,0.9c-7.22,1-14.79,1.94-22.69,2.81c-2.05,0.23-4.12,0.45-6.21,0.66      c-7.46,0.77-15.18,1.47-23.14,2.11c-2.05,0.16-4.12,0.32-6.21,0.47c-7.95,0.59-16.12,1.12-24.49,1.57      c-2.06,0.11-4.13,0.22-6.21,0.32c-7.42,0.37-14.99,0.68-22.69,0.93c-2.06,0.06-4.13,0.13-6.21,0.19      c-8.39,0.24-16.92,0.41-25.58,0.51c-2.06,0.02-4.13,0.04-6.21,0.06c-3.65,0.02-7.32,0.04-11.01,0.04      c-4.52,0-9.02-0.02-13.48-0.06c-2.08-0.02-4.14-0.04-6.2-0.07c-7.67-0.1-15.23-0.25-22.69-0.47c-2.08-0.06-4.15-0.12-6.21-0.19      c-7.26-0.24-14.41-0.52-21.42-0.86c-2.08-0.1-4.15-0.21-6.21-0.32c-8.37-0.44-16.54-0.95-24.49-1.53      c-2.08-0.15-4.15-0.31-6.2-0.47c-7.79-0.61-15.37-1.28-22.69-2.02c-2.09-0.21-4.16-0.42-6.21-0.64      c-8.94-0.96-17.49-2.01-25.58-3.15c-2.1-0.3-4.17-0.59-6.21-0.9c-8.76-1.31-16.95-2.72-24.49-4.23      c-2.12-0.43-4.19-0.85-6.21-1.29c-8.54-1.85-16.14-3.82-22.68-5.91c-2.19-0.69-4.26-1.4-6.21-2.12      c-12.4-4.58-19.82-9.59-21.13-14.86h-0.04v-0.15c-0.12-0.51-0.18-1.03-0.18-1.54c0-0.52,0.06-1.03,0.18-1.54v-57.89      c165.57,1.71,331.14,3.41,496.71,5.12v52.78C1815.04,1710.36,1815.1,1710.88,1815.1,1711.39z"/><ellipse cx="1566.57" cy="1654.31" fill="#f8ea14" rx="248.53" ry="40.77"/><path fill="#f09c23" d="M1791.03,1649.7c0,0.78-0.37,1.55-1.09,2.31c-11.17,11.78-106.91,20.99-223.37,20.99      c-116.46,0-212.21-9.2-223.38-20.99c-0.72-0.76-1.09-1.53-1.09-2.31c0-12.86,100.5-23.29,224.46-23.29      C1690.54,1626.41,1791.03,1636.84,1791.03,1649.7z"/><path fill="#f8cd12" d="M1789.95,1652.01c-11.17,11.78-106.91,20.99-223.37,20.99c-116.46,0-212.21-9.2-223.38-20.99      c11.15-11.78,106.9-20.99,223.38-20.99C1683.05,1631.02,1778.8,1640.22,1789.95,1652.01z"/><path fill="#f09c23" d="M1345.6,1683.69v46.38c-2.19-0.69-4.26-1.4-6.21-2.12v-44.26c0-1.71,1.39-3.1,3.1-3.1       C1344.21,1680.58,1345.6,1681.97,1345.6,1683.69z"/><path fill="#f09c23" d="M1374.49,1691.81v45.45c-2.12-0.43-4.19-0.85-6.21-1.29v-44.16c0-1.71,1.39-3.1,3.1-3.1       C1373.1,1688.71,1374.49,1690.1,1374.49,1691.81z"/><path fill="#f09c23" d="M1405.19,1698.15v44.25c-2.1-0.3-4.17-0.59-6.21-0.9v-43.35c0-1.72,1.39-3.1,3.1-3.1       C1403.8,1695.04,1405.19,1696.43,1405.19,1698.15z"/><path fill="#f09c23" d="M1436.98,1702.65v43.54c-2.09-0.21-4.16-0.42-6.21-0.64v-42.9c0-1.71,1.39-3.1,3.1-3.1       C1435.59,1699.54,1436.98,1700.93,1436.98,1702.65z"/><path fill="#f09c23" d="M1465.87,1705.56v43.12c-2.08-0.14-4.15-0.29-6.2-0.44v-42.68c0-1.61,1.39-2.91,3.1-2.91       C1464.48,1702.65,1465.87,1703.95,1465.87,1705.56z"/><path fill="#f09c23" d="M1496.57,1708.3v42.22c-2.08-0.09-4.15-0.18-6.21-0.28v-41.95c0-1.51,1.39-2.74,3.1-2.74       C1495.18,1705.56,1496.57,1706.79,1496.57,1708.3z"/><path fill="#f09c23" d="M1524.2,1711.28v40.29c-2.08-0.05-4.15-0.11-6.21-0.17v-40.12c0-1.53,1.39-2.77,3.1-2.77       C1522.81,1708.52,1524.2,1709.76,1524.2,1711.28z"/><path fill="#f09c23" d="M1553.09,1711.29v40.82c-2.08-0.02-4.14-0.03-6.2-0.06v-40.76c0-1.53,1.39-2.77,3.1-2.77       C1551.7,1708.52,1553.09,1709.76,1553.09,1711.29z"/><path fill="#f09c23" d="M1583.79,1711.29v40.79c-2.06,0.02-4.13,0.04-6.21,0.05v-40.84c0-1.53,1.39-2.77,3.1-2.77       C1582.4,1708.52,1583.79,1709.76,1583.79,1711.29z"/><path fill="#f09c23" d="M1615.58,1711.08v40.32c-2.06,0.06-4.13,0.12-6.21,0.17v-40.48c0-1.54,1.39-2.78,3.1-2.78       C1614.19,1708.3,1615.58,1709.54,1615.58,1711.08z"/><path fill="#f09c23" d="M1644.47,1708.3v41.86c-2.06,0.1-4.13,0.19-6.21,0.28v-42.14c0-1.51,1.39-2.74,3.1-2.74       C1643.08,1705.56,1644.47,1706.79,1644.47,1708.3z"/><path fill="#f09c23" d="M1675.17,1705.56v42.55c-2.05,0.15-4.12,0.3-6.21,0.44v-43c0-1.6,1.39-2.91,3.1-2.91       C1673.78,1702.65,1675.17,1703.95,1675.17,1705.56z"/><path fill="#f09c23" d="M1704.52,1701.62v43.67c-2.05,0.23-4.12,0.46-6.21,0.68v-44.35c0-1.75,1.39-3.18,3.1-3.18       C1703.14,1698.45,1704.52,1699.87,1704.52,1701.62z"/><path fill="#f09c23" d="M1733.42,1698.15v43.46c-2.04,0.31-4.11,0.6-6.21,0.9v-44.36c0-1.72,1.39-3.1,3.1-3.1       C1732.03,1695.04,1733.42,1696.43,1733.42,1698.15z"/><path fill="#f09c23" d="M1764.12,1691.81v44.32c-2.02,0.43-4.09,0.86-6.21,1.28v-45.6c0-1.71,1.39-3.1,3.1-3.1       C1762.73,1688.71,1764.12,1690.1,1764.12,1691.81z"/><path fill="#f09c23" d="M1793.76,1683.69v44.26c-1.95,0.72-4.02,1.43-6.21,2.12v-46.38c0-1.71,1.39-3.1,3.1-3.1       C1792.37,1680.58,1793.76,1681.97,1793.76,1683.69z"/></g><g><path fill="#f8cd12" d="M1852.78,1641.33c0,0.52-0.06,1.03-0.18,1.54v0.15h-0.04c-1.31,5.27-8.73,10.29-21.13,14.86      c-1.95,0.72-4.02,1.43-6.21,2.12c-6.73,2.14-14.59,4.17-23.43,6.07c-2.02,0.43-4.09,0.86-6.21,1.28      c-7.55,1.49-15.74,2.9-24.49,4.2c-2.04,0.31-4.11,0.6-6.21,0.9c-7.22,1-14.79,1.94-22.69,2.81c-2.05,0.23-4.12,0.45-6.21,0.66      c-7.46,0.77-15.18,1.47-23.14,2.11c-2.05,0.16-4.12,0.32-6.21,0.47c-7.95,0.59-16.12,1.12-24.49,1.57      c-2.06,0.11-4.13,0.22-6.21,0.32c-7.42,0.37-14.99,0.68-22.69,0.93c-2.06,0.06-4.13,0.13-6.21,0.19      c-8.39,0.24-16.92,0.41-25.58,0.51c-2.06,0.02-4.13,0.04-6.21,0.06c-3.65,0.02-7.32,0.04-11.01,0.04      c-4.52,0-9.02-0.02-13.48-0.06c-2.08-0.02-4.14-0.04-6.2-0.07c-7.67-0.1-15.23-0.25-22.69-0.47c-2.08-0.06-4.15-0.12-6.21-0.19      c-7.26-0.23-14.41-0.52-21.42-0.86c-2.08-0.1-4.15-0.21-6.21-0.32c-8.37-0.44-16.54-0.95-24.49-1.53      c-2.08-0.15-4.15-0.31-6.2-0.47c-7.8-0.61-15.37-1.29-22.69-2.02c-2.09-0.21-4.16-0.42-6.21-0.64      c-8.94-0.96-17.49-2.01-25.58-3.15c-2.1-0.29-4.17-0.59-6.21-0.9c-8.76-1.31-16.95-2.72-24.49-4.23      c-2.12-0.42-4.19-0.85-6.21-1.29c-8.54-1.85-16.14-3.82-22.68-5.91c-2.19-0.69-4.26-1.4-6.21-2.12      c-12.4-4.58-19.82-9.59-21.13-14.86h-0.04v-0.15c-0.12-0.51-0.18-1.03-0.18-1.54c0-0.52,0.06-1.03,0.18-1.54v-57.89      c165.57,1.71,331.14,3.41,496.71,5.12v52.78C1852.72,1640.3,1852.78,1640.81,1852.78,1641.33z"/><ellipse cx="1604.25" cy="1584.24" fill="#f8ea14" rx="248.53" ry="40.77"/><path fill="#f09c23" d="M1828.72,1579.63c0,0.78-0.37,1.55-1.09,2.31c-11.17,11.78-106.91,20.99-223.37,20.99      c-116.46,0-212.21-9.2-223.38-20.99c-0.72-0.76-1.09-1.53-1.09-2.31c0-12.86,100.5-23.29,224.46-23.29      C1728.22,1556.34,1828.72,1566.77,1828.72,1579.63z"/><path fill="#f8cd12" d="M1827.63,1581.94c-11.17,11.78-106.91,20.99-223.37,20.99c-116.46,0-212.21-9.2-223.38-20.99      c11.15-11.78,106.9-20.99,223.38-20.99C1720.73,1560.95,1816.48,1570.16,1827.63,1581.94z"/><path fill="#f09c23" d="M1383.28,1613.62V1660c-2.19-0.69-4.26-1.4-6.21-2.12v-44.26c0-1.71,1.39-3.1,3.1-3.1       C1381.89,1610.52,1383.28,1611.91,1383.28,1613.62z"/><path fill="#f09c23" d="M1412.17,1621.74v45.45c-2.12-0.42-4.19-0.85-6.21-1.29v-44.16c0-1.71,1.39-3.1,3.1-3.1       S1412.17,1620.03,1412.17,1621.74z"/><path fill="#f09c23" d="M1442.87,1628.08v44.25c-2.1-0.29-4.17-0.59-6.21-0.9v-43.35c0-1.72,1.39-3.1,3.1-3.1       C1441.48,1624.98,1442.87,1626.36,1442.87,1628.08z"/><path fill="#f09c23" d="M1474.66,1632.58v43.54c-2.09-0.21-4.16-0.42-6.21-0.64v-42.9c0-1.71,1.39-3.1,3.1-3.1       C1473.27,1629.48,1474.66,1630.87,1474.66,1632.58z"/><path fill="#f09c23" d="M1503.55,1635.49v43.12c-2.08-0.14-4.15-0.29-6.2-0.44v-42.68c0-1.61,1.39-2.91,3.1-2.91       C1502.16,1632.58,1503.55,1633.88,1503.55,1635.49z"/><path fill="#f09c23" d="M1534.25,1638.23v42.22c-2.08-0.09-4.15-0.18-6.21-0.28v-41.95c0-1.51,1.39-2.74,3.1-2.74       C1532.86,1635.5,1534.25,1636.72,1534.25,1638.23z"/><path fill="#f09c23" d="M1561.88,1641.22v40.29c-2.08-0.05-4.15-0.11-6.21-0.17v-40.12c0-1.53,1.39-2.77,3.1-2.77       C1560.49,1638.45,1561.88,1639.69,1561.88,1641.22z"/><path fill="#f09c23" d="M1590.77,1641.22v40.82c-2.08-0.02-4.14-0.03-6.2-0.06v-40.76c0-1.53,1.39-2.77,3.1-2.77       C1589.38,1638.45,1590.77,1639.69,1590.77,1641.22z"/><path fill="#f09c23" d="M1621.47,1641.22v40.79c-2.06,0.02-4.13,0.04-6.21,0.05v-40.84c0-1.53,1.39-2.77,3.1-2.77       C1620.08,1638.45,1621.47,1639.69,1621.47,1641.22z"/><path fill="#f09c23" d="M1653.26,1641.01v40.32c-2.06,0.06-4.13,0.12-6.21,0.17v-40.48c0-1.53,1.39-2.78,3.1-2.78       C1651.87,1638.23,1653.26,1639.47,1653.26,1641.01z"/><path fill="#f09c23" d="M1682.15,1638.23v41.86c-2.06,0.1-4.13,0.19-6.21,0.28v-42.14c0-1.51,1.39-2.74,3.1-2.74       C1680.76,1635.5,1682.15,1636.72,1682.15,1638.23z"/><path fill="#f09c23" d="M1712.85,1635.49v42.55c-2.05,0.15-4.12,0.3-6.21,0.44v-43c0-1.6,1.39-2.91,3.1-2.91       C1711.46,1632.58,1712.85,1633.88,1712.85,1635.49z"/><path fill="#f09c23" d="M1742.2,1631.56v43.67c-2.05,0.23-4.12,0.46-6.21,0.68v-44.35c0-1.75,1.39-3.18,3.1-3.18       C1740.82,1628.38,1742.2,1629.8,1742.2,1631.56z"/><path fill="#f09c23" d="M1771.1,1628.08v43.46c-2.04,0.31-4.11,0.6-6.21,0.9v-44.36c0-1.72,1.39-3.1,3.1-3.1       C1769.71,1624.98,1771.1,1626.36,1771.1,1628.08z"/><path fill="#f09c23" d="M1801.8,1621.74v44.32c-2.02,0.43-4.09,0.86-6.21,1.28v-45.6c0-1.71,1.39-3.1,3.1-3.1       C1800.41,1618.64,1801.8,1620.03,1801.8,1621.74z"/><path fill="#f09c23" d="M1831.44,1613.62v44.26c-1.95,0.72-4.02,1.43-6.21,2.12v-46.38c0-1.71,1.39-3.1,3.1-3.1       S1831.44,1611.91,1831.44,1613.62z"/></g><g><path fill="#f8cd12" d="M1807.01,1575.81c0,0.52-0.06,1.03-0.18,1.54v0.15h-0.04c-1.31,5.27-8.73,10.29-21.13,14.86      c-1.95,0.72-4.02,1.43-6.21,2.12c-6.73,2.14-14.59,4.17-23.43,6.07c-2.02,0.43-4.09,0.86-6.21,1.28      c-7.55,1.49-15.74,2.9-24.49,4.2c-2.04,0.31-4.11,0.6-6.21,0.9c-7.22,1-14.79,1.94-22.69,2.81c-2.05,0.23-4.12,0.45-6.21,0.66      c-7.46,0.77-15.18,1.47-23.14,2.11c-2.05,0.16-4.12,0.32-6.21,0.47c-7.95,0.59-16.12,1.12-24.49,1.57      c-2.06,0.11-4.13,0.22-6.21,0.32c-7.42,0.37-14.99,0.68-22.69,0.93c-2.06,0.06-4.13,0.13-6.21,0.19      c-8.39,0.24-16.92,0.41-25.58,0.51c-2.06,0.02-4.13,0.04-6.21,0.06c-3.65,0.02-7.32,0.04-11.01,0.04      c-4.52,0-9.02-0.02-13.48-0.06c-2.08-0.02-4.14-0.04-6.2-0.07c-7.66-0.1-15.23-0.25-22.69-0.47c-2.08-0.06-4.15-0.12-6.21-0.19      c-7.26-0.24-14.41-0.52-21.42-0.86c-2.08-0.1-4.15-0.21-6.21-0.32c-8.37-0.44-16.54-0.95-24.49-1.53      c-2.08-0.15-4.15-0.31-6.2-0.47c-7.8-0.61-15.37-1.29-22.69-2.02c-2.09-0.21-4.16-0.42-6.21-0.64      c-8.94-0.96-17.49-2.01-25.58-3.15c-2.1-0.29-4.17-0.59-6.21-0.9c-8.76-1.31-16.95-2.72-24.49-4.23      c-2.12-0.42-4.19-0.85-6.21-1.29c-8.54-1.85-16.14-3.82-22.68-5.91c-2.19-0.69-4.26-1.4-6.21-2.12      c-12.4-4.58-19.82-9.59-21.13-14.86h-0.04v-0.15c-0.12-0.51-0.18-1.03-0.18-1.54c0-0.52,0.06-1.03,0.18-1.54v-57.89      c165.57,1.71,331.14,3.41,496.71,5.12v52.78C1806.95,1574.77,1807.01,1575.29,1807.01,1575.81z"/><ellipse cx="1558.48" cy="1518.72" fill="#f8ea14" rx="248.53" ry="40.77"/><path fill="#f09c23" d="M1782.94,1514.11c0,0.78-0.37,1.55-1.09,2.31c-11.17,11.78-106.91,20.99-223.37,20.99      c-116.46,0-212.21-9.2-223.38-20.99c-0.72-0.76-1.09-1.53-1.09-2.31c0-12.86,100.5-23.29,224.46-23.29      C1682.45,1490.82,1782.94,1501.25,1782.94,1514.11z"/><path fill="#f8cd12" d="M1781.85,1516.42c-11.17,11.78-106.91,20.99-223.37,20.99c-116.46,0-212.21-9.2-223.38-20.99      c11.15-11.78,106.9-20.99,223.38-20.99C1674.95,1495.43,1770.7,1504.63,1781.85,1516.42z"/><path fill="#f09c23" d="M1337.5,1548.1v46.38c-2.19-0.69-4.26-1.4-6.21-2.12v-44.26c0-1.71,1.39-3.1,3.1-3.1       C1336.11,1544.99,1337.5,1546.38,1337.5,1548.1z"/><path fill="#f09c23" d="M1366.39,1556.22v45.45c-2.12-0.42-4.19-0.85-6.21-1.29v-44.16c0-1.71,1.39-3.1,3.1-3.1       C1365,1553.12,1366.39,1554.51,1366.39,1556.22z"/><path fill="#f09c23" d="M1397.09,1562.56v44.25c-2.1-0.29-4.17-0.59-6.21-0.9v-43.35c0-1.72,1.39-3.1,3.1-3.1       C1395.7,1559.45,1397.09,1560.84,1397.09,1562.56z"/><path fill="#f09c23" d="M1428.88,1567.06v43.54c-2.09-0.21-4.16-0.42-6.21-0.64v-42.9c0-1.71,1.39-3.1,3.1-3.1       C1427.49,1563.95,1428.88,1565.35,1428.88,1567.06z"/><path fill="#f09c23" d="M1457.77,1569.97v43.12c-2.08-0.14-4.15-0.29-6.2-0.44v-42.69c0-1.61,1.39-2.91,3.1-2.91       C1456.39,1567.06,1457.77,1568.36,1457.77,1569.97z"/><path fill="#f09c23" d="M1488.47,1572.71v42.22c-2.08-0.09-4.15-0.18-6.21-0.28v-41.95c0-1.51,1.39-2.74,3.1-2.74       C1487.09,1569.97,1488.47,1571.2,1488.47,1572.71z"/><path fill="#f09c23" d="M1516.1,1575.7v40.29c-2.08-0.05-4.15-0.11-6.21-0.17v-40.12c0-1.53,1.39-2.77,3.1-2.77       C1514.71,1572.93,1516.1,1574.17,1516.1,1575.7z"/><path fill="#f09c23" d="M1545,1575.7v40.82c-2.08-0.02-4.14-0.03-6.2-0.06v-40.76c0-1.53,1.39-2.77,3.1-2.77       C1543.61,1572.93,1545,1574.17,1545,1575.7z"/><path fill="#f09c23" d="M1575.7,1575.7v40.79c-2.06,0.02-4.13,0.04-6.21,0.05v-40.84c0-1.53,1.39-2.77,3.1-2.77       C1574.31,1572.93,1575.7,1574.17,1575.7,1575.7z"/><path fill="#f09c23" d="M1607.48,1575.49v40.32c-2.06,0.06-4.13,0.12-6.21,0.17v-40.48c0-1.53,1.39-2.78,3.1-2.78       C1606.09,1572.71,1607.48,1573.95,1607.48,1575.49z"/><path fill="#f09c23" d="M1636.38,1572.71v41.86c-2.06,0.1-4.13,0.19-6.21,0.28v-42.14c0-1.51,1.39-2.74,3.1-2.74       C1634.99,1569.97,1636.38,1571.2,1636.38,1572.71z"/><path fill="#f09c23" d="M1667.08,1569.97v42.55c-2.05,0.15-4.12,0.3-6.21,0.44v-43c0-1.61,1.39-2.91,3.1-2.91       C1665.69,1567.06,1667.08,1568.36,1667.08,1569.97z"/><path fill="#f09c23" d="M1696.43,1566.04v43.67c-2.05,0.23-4.12,0.46-6.21,0.68v-44.35c0-1.75,1.39-3.18,3.1-3.18       C1695.04,1562.86,1696.43,1564.28,1696.43,1566.04z"/><path fill="#f09c23" d="M1725.33,1562.56v43.46c-2.04,0.31-4.11,0.6-6.21,0.9v-44.36c0-1.72,1.39-3.1,3.1-3.1       C1723.93,1559.45,1725.33,1560.84,1725.33,1562.56z"/><path fill="#f09c23" d="M1756.03,1556.22v44.32c-2.02,0.43-4.09,0.86-6.21,1.28v-45.6c0-1.71,1.39-3.1,3.1-3.1       C1754.63,1553.12,1756.03,1554.51,1756.03,1556.22z"/><path fill="#f09c23" d="M1785.66,1548.1v44.26c-1.95,0.72-4.02,1.43-6.21,2.12v-46.38c0-1.71,1.39-3.1,3.1-3.1       C1784.27,1544.99,1785.66,1546.38,1785.66,1548.1z"/></g><path fill="#fff" d="M1788.21,1602.93c-55.32,3.58-58.22,6.49-61.8,61.8c-3.58-55.32-6.49-58.22-61.8-61.8     c55.32-3.58,58.22-6.49,61.8-61.8C1729.99,1596.44,1732.9,1599.34,1788.21,1602.93z"/><path fill="#fff" d="M1617.57,1773.57c-55.32,3.58-58.22,6.49-61.8,61.8c-3.58-55.32-6.49-58.22-61.8-61.8     c55.32-3.58,58.22-6.49,61.8-61.8C1559.35,1767.08,1562.25,1769.99,1617.57,1773.57z"/><path fill="#fff" d="M1468.18,1617.83c-55.32,3.58-58.22,6.49-61.8,61.8c-3.58-55.32-6.49-58.22-61.8-61.8     c55.32-3.58,58.22-6.49,61.8-61.8C1409.96,1611.34,1412.87,1614.24,1468.18,1617.83z"/></g><g><path fill="#153663" d="M1181.29,623.52L1181.29,623.52c-0.13,1.83,1.25,3.42,3.08,3.55l9.89,0.71c1.83,0.13,3.42-1.25,3.55-3.08      l0,0c0.13-1.83-1.25-3.42-3.08-3.55l-9.88-0.71C1183.01,620.31,1181.42,621.69,1181.29,623.52z"/><path fill="#fee7ed" d="M1189.34,621.14l-0.45,6.25c1.89,2.23,4.56,4.93,8.13,7.39c4.95,3.41,9.65,4.98,12.91,5.76       c0.42-5.94,0.85-11.88,1.27-17.82L1189.34,621.14z"/><path fill="#fee7ed" d="M1188.93,626.87l0.45-6.25c2.19-1.94,5.21-4.23,9.1-6.15c5.39-2.67,10.26-3.56,13.6-3.86       c-0.42,5.94-0.85,11.88-1.27,17.82L1188.93,626.87z"/><path fill="#f4629d" d="M1285.85,615.88l17.24,1.23c8.95,0.64,15.87,5.89,15.45,11.72l-0.63,8.8c-0.42,5.83-8.01,10.04-16.96,9.4       l-17.24-1.23c-8.95-0.64-15.87-5.89-15.45-11.72l0.63-8.8C1269.31,619.45,1276.9,615.24,1285.85,615.88z"/><path fill="#f8ea14" d="M1205.73,635.19L1205.73,635.19c-0.2,2.76,1.88,5.17,4.65,5.36l76.39,5.46c2.76,0.2,5.17-1.88,5.36-4.65      l0,0c0.2-2.76-1.88-5.17-4.65-5.36l-76.39-5.46C1208.33,630.35,1205.93,632.43,1205.73,635.19z"/><path fill="#f8cd12" d="M1206.44,625.18L1206.44,625.18c-0.2,2.76,1.88,5.17,4.65,5.36l76.39,5.46c2.76,0.2,5.17-1.88,5.36-4.65      l0,0c0.2-2.76-1.88-5.17-4.65-5.36l-76.39-5.46C1209.04,620.34,1206.64,622.42,1206.44,625.18z"/><path fill="#f09c23" d="M1207.15,615.29L1207.15,615.29c-0.2,2.76,1.88,5.17,4.65,5.36l76.39,5.46c2.76,0.2,5.17-1.88,5.36-4.65      l0,0c0.2-2.76-1.88-5.17-4.65-5.36l-76.39-5.46C1209.75,610.44,1207.35,612.52,1207.15,615.29z"/><rect width="30" height="10.75" x="1277.87" y="626.04" fill="#fff" transform="rotate(-85.912 1292.782 631.399)"/><linearGradient id="a" x1="3276.234" x2="3306.227" y1="1806.79" y2="1806.79" gradientTransform="rotate(-85.912 1657.924 2294.963)" gradientUnits="userSpaceOnUse"><stop offset="0" stop-color="#dfe6ff"/><stop offset="1" stop-color="#84b2fe"/></linearGradient><polygon fill="url(#a)" points="1286.94 615.96 1290.2 616.19 1288.06 646.11 1284.8 645.88"/><linearGradient id="b" x1="3276.234" x2="3306.227" y1="1812.139" y2="1812.139" gradientTransform="rotate(-85.912 1657.924 2294.963)" gradientUnits="userSpaceOnUse"><stop offset="0" stop-color="#dfe6ff"/><stop offset="1" stop-color="#84b2fe"/></linearGradient><polygon fill="url(#b)" points="1292.22 616.34 1295.59 616.58 1293.45 646.5 1290.08 646.26"/><linearGradient id="c" x1="3276.233" x2="3306.227" y1="1817.544" y2="1817.544" gradientTransform="rotate(-85.912 1657.924 2294.963)" gradientUnits="userSpaceOnUse"><stop offset="0" stop-color="#dfe6ff"/><stop offset="1" stop-color="#84b2fe"/></linearGradient><polygon fill="url(#c)" points="1297.61 616.72 1300.98 616.96 1298.84 646.88 1295.47 646.64"/><g><path fill="#ffcdad" d="M1456.1,1015.21c-11.26,6.7-14.24,2.98-26.2,9.57c-6.23,3.43-21.06,11.51-24.6,26.79      c-3.82,16.46,5.96,36.31,15.48,37.32c2.21,0.24,4.01-0.59,4.43-0.79c7.07-3.42,3.56-14.55,10.06-24.71      c5.3-8.28,15.29-12.83,18.18-10.68c2.95,2.2-2.91,10.46,1.72,18.55c1.16,2.02,4.18,6.21,6.75,5.7      c5.6-1.12-1.27-22.53,9.61-38.87c9.98-14.99,26.98-12.78,28.4-22.98c1.21-8.68-9.61-20.06-18.9-19.84      C1472.17,995.49,1471.44,1006.09,1456.1,1015.21z"/><path fill="#8bdcef" d="M1586.52,906.71c-15.58,32.29-31.39,55.85-48.85,75.92c-17.44,20.05-34.76,35.02-48.18,45.46      c-3.43,0.18-9.06,0.04-15.38-2.36c-9.65-3.66-15.13-10.35-17.29-13.32c21.42-19.02,62.19-60.33,87.4-126.73      c25.09-66.09,22.14-123.79,18.79-152.23c0.19-3.2,1.11-11.14,6.9-18.71c0.79-1.03,9.03-11.48,22.44-12.95      c0,0,14.63-1.61,28.41,10.42C1654.09,741.29,1612.58,852.7,1586.52,906.71z"/></g><g><path fill="#ffcdad" d="M1569.43,1414.83c3.82,14.99,9.65,20.1,10.69,31.65c1.39,15.5-7.16,28.03-11.69,34.68      c-25.29,37.1-87.57,33.46-91.31,33.19c56.12-36.83,66.54-63.93,65.12-82.2c-1.33-17.22-13.73-33.68-5.97-43.88      c6.11-8.03,20.82-7.07,31.28-5.35C1566.63,1390.34,1566.09,1401.76,1569.43,1414.83z"/><path fill="#0643a3" d="M1572.88,1426.28c-8.13,0.2-9.05,20.45-21.06,38.23c-8.42,12.46-24.85,27.51-60.47,35.53      c-12.27,0.82-40.49,3.41-41.8,12.25c-0.94,6.31,12.17,13.71,21.04,16.82c23.19,8.14,46.02-2.9,55.23-7.36      c7.49-3.62,19.33-10.52,31.03-23.29c1.66,8.08,3.32,16.17,4.97,24.25c0.27,0.33,2.36,2.79,5.56,2.71      c3.08-0.09,5.91-2.5,6.73-5.95c0-3.74,0.25-7.92,0.93-12.45c1.53-10.18,4.69-18.49,7.65-24.58c2.44-4.63,8.39-17.42,5.09-32.87      C1585.83,1440.49,1579.76,1426.11,1572.88,1426.28z"/><path fill="#ffcdad" d="M1697.5,1414.86c3.82,14.99,9.64,20.1,10.67,31.65c1.39,15.5-7.14,28.03-11.66,34.68      c-25.23,37.09-87.39,33.44-91.13,33.17c56-36.81,66.4-63.92,64.98-82.18c-1.33-17.22-13.71-33.68-5.97-43.88      c6.1-8.03,20.78-7.07,31.22-5.35C1694.7,1390.37,1694.17,1401.78,1697.5,1414.86z"/><path fill="#084db2" d="M1700.94,1426.3c-8.11,0.19-9.03,20.45-21.01,38.22c-8.4,12.46-24.8,27.51-60.35,35.52      c-12.24,0.81-40.41,3.41-41.72,12.24c-0.93,6.31,12.15,13.71,21,16.83c23.14,8.15,45.92-2.89,55.12-7.35      c7.48-3.62,19.29-10.51,30.97-23.28c1.66,8.08,3.31,16.17,4.97,24.25c0.27,0.34,2.35,2.79,5.55,2.71      c3.07-0.08,5.9-2.49,6.72-5.95c0-3.74,0.25-7.92,0.92-12.45c1.52-10.18,4.68-18.49,7.63-24.58c2.44-4.62,8.37-17.41,5.07-32.87      C1713.88,1440.52,1707.82,1426.14,1700.94,1426.3z"/><path fill="#0643a3" d="M1531.29,978.05c-12.68,43.27-24.01,95.6-28.99,155.51c-9.77,117.33,8.82,215.32,27.68,282.03      c3.07,1.78,11.69,6.23,23.36,5.32c12.06-0.94,20.07-7.03,22.76-9.28c-11.64-49.2-22.11-123.06-3.95-206.91      c29-133.95,112.67-208.48,80.39-253.03c-16.63-22.95-60.58-33.21-89.62-17.13C1541.97,946.16,1534.02,968.57,1531.29,978.05z"/><path fill="#084db2" d="M1581.74,986.43c-4.52,44.86-6.05,98.39,0.04,158.19c11.93,117.13,48.18,210.05,78.97,272.16      c3.4,1.19,12.55,3.9,23.7,0.98c11.82-3.09,18.66-10.61,20.92-13.33c-20.47-46.23-44.32-116.91-41.86-202.67      c3.93-137,72.5-225.62,32.58-263.49c-20.56-19.51-65.65-21.53-91.24-0.39C1586.39,953.12,1582.69,976.61,1581.74,986.43z"/></g><path fill="#ffcdad" d="M1297.14,698.48c-6.04-0.45-6.28-6.76-17.61-15.74c-4.93-3.91-9.55-6.46-14.45-9.17     c-10.25-5.66-12.34-5.14-16.72-9.02c-1.87-1.66-7.42-7-9.54-15.61c-2.2-8.92-0.33-19.83,6.57-27.39     c10.08-11.04,28.86-12.67,38.84-5.33c13.13,9.65,1.5,27.56,17.62,50.81c5.84,8.42,12.04,12.73,10.82,19.5     C1311.52,693.04,1303.85,698.98,1297.14,698.48z"/><path fill="#62cbec" d="M1579.77,698.17c-27.62,24.44-13.85,68.41-17.87,147.08c-2.12,41.61-8.55,76.94-15.05,104.06     c7.94,8.95,27.12,28,57.93,35.9c53.67,13.76,96.97-18.07,102.93-22.61c15.97-116.29,4.79-209.98-28.26-247.06     c-7.88-8.83-23.63-26.63-48.76-30.14C1626.28,684.79,1598.64,681.47,1579.77,698.17z"/><path fill="#ffba94" d="M1594.75,669.97c-5.88,13.91-6.07,26.68-5.51,34.38c-0.25,9.65,6.49,18.05,15.6,19.85     c9.75,1.93,19.75-4.2,22.54-14.17c3.54-10.95,6.92-23.67,9.44-37.97c2.92-16.6,4.04-31.67,4.24-44.58     C1635.3,629.58,1607.23,640.44,1594.75,669.97z"/><path fill="#ffcdad" d="M1589.37,601.26c-7.25,4.21-10.58,10.57-14.17,17.45c-3.08,5.89-20.2,38.68-3.24,57.84     c11.75,13.27,34.25,13.68,49.52,6.42c22.81-10.85,37.37-42.56,24.06-65.11C1634.23,598.72,1606.06,591.58,1589.37,601.26z"/><path fill="#fff" d="M1584.58,667.63c3.91,1.93,10.5,4.49,19.09,4.57c6.18,0.06,11.38-1.19,15.04-2.41     c-0.94,1.37-5.9,8.31-14.13,9.6C1596.55,680.65,1588.62,676.02,1584.58,667.63z"/><path fill="#66f" d="M1637.49,685.33"/><path fill="#060352" d="M1552.3,709.26"/><path fill="#a6e9f4" d="M1448.32,848.03c-105.96-26.9-161.12-115.18-175.84-140.67c-0.77-2.77-3.75-14.68,2.71-27.05     c8.1-15.53,24.3-18.84,26.36-19.22c3.09,5.72,64.91,115.41,188.7,120.66c98.89,4.2,162.9-61.42,172.56-71.66     c3.86-0.66,13.56-1.77,24.17,3.02c1.44,0.65,16.15,7.56,21.63,23.1c0.9,10.39,0.44,23.27-4.52,36.68     C1677.69,844.22,1545.17,872.62,1448.32,848.03z"/><path fill="#060352" d="M1572.01,611.42c-8.95-7.81-5.56-33.42,7.76-47.74c26.63-28.64,98.61-18.29,119.54,16.76     c13.78,23.06,1.65,39.85,2.78,80.42c2.72,98.12,85.26,136.92,67.25,176.7c-15.79,34.87-98.61,47.9-134.77,14.5     c-31.74-29.32-28-94.91-13.95-134.58c6.5-18.34,17.3-37.65,14.22-65.9c-0.98-9.01-3.43-31.43-18.37-39.54     C1599.65,602.9,1581.64,619.82,1572.01,611.42z"/></g></svg>