<svg xmlns="http://www.w3.org/2000/svg" xmlns:xlink="http://www.w3.org/1999/xlink" viewBox="0 0 4000 3000"><defs><clipPath id="b"><path fill="#f9bda3" d="M2238.5114,2005.6233c-16.92,55.8634-92.2414,152.594-101.1909,192.3472,32.7234-.1507,121.14-38.9926,138.3721-48.3058,5.0945-9.6265,95.4595-180.3128,95.9648-181.27Z"/></clipPath><clipPath id="c"><path fill="#f9bda3" d="M2741.3677,1854.9124c36.0007,18.11,111.8735,125.0777,130.6316,123.7346-4.6218-59.1184-4.4236-57.5855-19.9794-123.3953,5.2833-49.3858-107.2893-127.5232-132.6819-158.986Z"/></clipPath><clipPath id="d"><path fill="#bc4b56" d="M2678.0324,1978.66s193.9669-215.9386,135.76-247.7707l-274.1932-225.2176,266.2731-324.8425s-136.4892-59.9223-54.2408-113.5371c0,0-439.8893,271.2313-448.6722,279.6085C2091.7185,1548.3845,2677.5178,1978.2134,2678.0324,1978.66Z"/></clipPath><clipPath id="e"><path fill="#f9bda3" d="M2413.9547,720.3786c-.4063.1036-83.0786-34.1875-90.9273-62.194-18.7314-40.7008-62.9965-101.1237-26.0129-5.1554-136.7234-126.892-85.1377-91.1134-47.4508,37.9319,32.1539,26.38,161.2875,97.1742,175.5515,102.27l-13.2371-68.4937"/></clipPath><clipPath id="f"><path fill="#37566b" d="M2364.9083,696.189s-40.9542,35.17-36.381,157.2546c.8715,23.2663,255.3093,89.2305,255.3093,89.2305s82.3268-114.6882,25.5272-161.41S2364.9083,696.189,2364.9083,696.189Z"/></clipPath><clipPath id="g"><circle cx="2155.75" cy="511.619" r="351.359" fill="#bc4b56"/></clipPath><clipPath id="h"><circle cx="2091.718" cy="501.411" r="351.359" fill="#f4ab37"/></clipPath><clipPath id="i"><ellipse cx="2091.197" cy="504.682" fill="#f28c38" rx="245.136" ry="248.364" transform="rotate(-80.941 2091.196 504.683)"/></clipPath><clipPath id="j"><path fill="#f9bda3" d="M2579.7237,593.2452s84.116,112.42,86.7326,135.5244-99.8662,26.4256-99.8662,26.4256l-49.0153-151.5634Z"/></clipPath><clipPath id="k"><path fill="#bc4b56" d="M2655.4773,1013.6768c-.1726,1.4806,168.369,38.7394,175.0639,45.1682,244.4947,234.78-118.0387,349.3268-281.585,548.7127,3.4022-15.5916-96.182,469.76-125.4182,535.0268-17.8069,31.3453-246.6992-111.943-197.0447-125.9978-.1674.0474,21.791-68.6967,49.9227-157.3375l117.4946-370.2166c-10.11,15.466,133.8967-218.868,135.3432-221.5569"/></clipPath><clipPath id="l"><path fill="#37566b" d="M2539.7253,1179.1316c88.8687,54.1693,353.9943-81.9465,353.9943-81.9465s26.4-261.8407-195.7543-383.6543c-53.0717-29.1008-78.85-73.0109-78.85-73.0109L2514.8544,741.0716Z"/></clipPath><clipPath id="m"><path fill="#f9bda3" d="M2194.0269,857.6891c-.1842.0832-86.1735-33.902-94.3616-62.1938-19.4053-40.8305-65.397-100.8979-26.9957-5.1556-19.5591-16.89-156.7952-153.7548-61.4839-23.4617-3.5522,10.6435-.94,35.8262,8.3657,58.5331,17.6763,17.2739,172.37,101.51,186.0575,105.1307l-26.198-95.7919"/></clipPath><clipPath id="n"><path fill="#37566b" d="M2575.7065,755.2214c-133.8844,137.9352-78.3973,127.82-191.6151,107.7211-99.4785-16.1331-241.2372-31.4465-238.9964-40.6717-43.0617,177.2809.3754,206.6424,11.0529,200.8833,17.3628,6.7691,430.1417,174.7123,534.7407-176.9907"/></clipPath><clipPath id="o"><path fill="#f9bda3" d="M2560.7456,640.437c-43.8326,17.7819-87.66,12.0281-70.8686-37.7066s19.6385-61.8015,33.7454-68.921,71.3573,29.8677,71.3573,29.8677,2.7919,41.3345,2.4732,42.21S2560.7456,640.437,2560.7456,640.437Z"/></clipPath><clipPath id="p"><path fill="#60272b" d="M2581.5891,604.0751c-47.7751-9.4678-27.94-44.875-30.2208-44.0535-100.076-.5047-81.9757-113.0413-4.9094-57.3072,79.58-36.12,76.2247,26.8754,76.2247,26.8754,75.9847,30.918-2.7876,78.1917-2.7876,78.1917,24.28,42.22-42.1607,64.95-59.6494,22.2291l16.719-15.0551"/></clipPath><clipPath id="q"><path fill="#fff" d="M2513.4349,562.1435c-9.511,20.9768,6.75,27.6184,16.6929,8.59C2539.6385,549.7575,2523.3773,543.1159,2513.4349,562.1435Z"/></clipPath><clipPath id="D"><rect width="2118.029" height="1412.02" x="1013.511" y="1313.566" fill="#2b71a6" rx="162.298"/></clipPath><clipPath id="E"><rect width="465.28" height="312.932" x="1220.822" y="1538.729" fill="#f4ab37" rx="85.994"/></clipPath><clipPath id="F"><path fill="#009995" d="M3020.7551,1716.9283q-5.5389,0-11.01.3226c-48.0786-65.9282-119.8975-107.834-200.1912-107.834-116.852,0-215.8034,88.6832-249.6254,211.1522-82.1133,15.1469-144.8819,97.5968-144.8819,197.0684,0,6.5239.2906,12.9686.8184,19.3332h812.0307a287.3567,287.3567,0,0,0,8.6-69.8971C3236.4957,1828.9216,3139.9055,1716.9283,3020.7551,1716.9283Z"/></clipPath><clipPath id="G"><rect width="1171.198" height="1012.991" x="1654.573" y="1742.352" fill="#77689b"/></clipPath><clipPath id="H"><rect width="732.494" height="881.282" x="2550.155" y="1874.061" fill="#f4ab37"/></clipPath><clipPath id="I"><circle cx="3234.145" cy="2164.921" r="150.905" fill="#2b71a6"/></clipPath><clipPath id="J"><path fill="#009995" d="M2933.5165,2687.7616q-2.8079,0-5.5813.1635c-24.3724-33.4209-60.7794-54.6641-101.4825-54.6641-59.2356,0-109.3968,44.956-126.5421,107.039-41.6255,7.6784-73.4447,49.4745-73.4447,99.8995,0,3.3071.1473,6.5741.4149,9.8h411.6411a145.6709,145.6709,0,0,0,4.36-35.4328C3042.8814,2744.5341,2993.9171,2687.7616,2933.5165,2687.7616Z"/></clipPath><clipPath id="K"><polyline fill="#f9bda3" points="827.07 2570.937 702.744 2779.273 647.188 2757.406 765.633 2492.458 828.684 2576.674"/></clipPath><clipPath id="L"><polyline fill="#f9bda3" points="1404.924 2560.568 1347.787 2774.281 1285.179 2751.849 1318.177 2480.063 1408.389 2566.453"/></clipPath><clipPath id="M"><path fill="#37566b" d="M1121.43,2528.9938c34.0625,75.8166,284.568,105.0362,292.3533,52.6589,19.4919-61.4057,150.2724-473.4869,153.9216-484.9856,50.2083-83.9226-119.9614-602.9668-133.1258-703.409l-202.326,98.339,103.1011,560.5761S1087.3677,2453.1771,1121.43,2528.9938Z"/></clipPath><clipPath id="N"><path fill="#37566b" d="M1490.1356,1488.7092s-150.9916-43.9-285.8294,3.3721-227.0679,586.3778-227.0679,586.3778-487.4306,219.7445-349.857,376.4364c24.9758,28.4466,169.8,204.7591,208.65,146.981,0,0,274.3119-328.3845,325.573-417.5258s235.4824-533.8331,235.4824-533.8331"/></clipPath><clipPath id="O"><path fill="#f9bda3" d="M1730.0924,1089.6847c-.7862-12.7161,60.4067-81.0107,79.8286-104.8232,11.919-14.6133,20.051,11.9371-6.33,39.7246,46.0921,12.3426,67.8375-81.404,87.5285-68.0893,20.865,29.0039-24.7545,112.8036-48.1776,127.1452-50.3322,9.8686-80.9673,111.9909-91.9107,139.4986Z"/></clipPath><clipPath id="P"><path fill="#f4ab37" d="M1739.0587,1065.1155c53.1188,39.8062,94.0706,104.0453,90.7216,135.6845-27.2922,257.84-340.2292,213.0271-382.5886,109.8209-42.6085-87.178-49.6219-243.4245-50.1047-244.4123,0,0,104.4247-50.8206,156.33-7.6425,66.1305,55.0114,75.8222,155.8591,75.8222,155.8591Z"/></clipPath><clipPath id="Q"><path fill="#f4ab37" d="M1562.647,1069.3915c-39.49-65.8791-290.8664-43.2579-360.1331-24.569-2.5707,5.1617,52.9039,23.0639,48.5491,69.768,19.8825,145.606-123.2444,321.7674-72.5153,421.6014,222.0074,67.9724,369.7747-11.1166,384.0857-44.334s-103.3212-145.24-13.4055-306.3934"/></clipPath><clipPath id="R"><path fill="#f9bda3" d="M1217.502,1460.0813c18.3617,10.8127,44.7749-11.1921,64.9008-10.976,10.8738,8.3152,49.9828,53.2082,35.7144,51.9617.4908,3.7324,17.535,6.2977,10.6906,17.4806,27.8635,22.4958-42.48-2.0132-38.5226,2.4742-28.8924,17.7355-115.7734-5.283-128.6806-14.1Z"/></clipPath><clipPath id="S"><path fill="#f4ab37" d="M1399.5407,1031.6859c-39.0644-28.8932-143.6159-1.7184-197.0268,13.1366s-340.4308,232.3747-195.7092,477.4822c122.2483,207.0455,224.2352-56.9785,226.2263-64.6087,10.709,4.9059-101.9861-115.3844-102.406-118.9943,0,0,137.318-34.4472,178.3056-105.5738"/></clipPath><clipPath id="T"><path fill="#f9bda3" d="M1447.5588,973.3032c-10.8608,31.7667-21.4435,103.5438-26.0641,106.3025s-85.3151-24.8037-85.3151-24.8037c37.429-137.8044,27.9481-93.08,118.3124-81.6165"/></clipPath><clipPath id="U"><path fill="#60272b" d="M1400.2268,975.6038l-10.9467,33.844a39.32,39.32,0,0,1-20.3546,5.6784h-96.6284l4.3487-43.5205-22.9995,43.5205H1226.151c-46.5608-75.6146,46.4121-94.02,90.3274-109.8927s31.9777-63.1626,62.5662-61.954,19.0476,37.6154,19.0476,37.6154l2.1346,94.7089"/></clipPath><clipPath id="V"><path fill="#60272b" d="M1443.0657,939.9719c58.2011-34.9206,95.2381-76.72,13.2275-85.1851-39.6825-32.2751-77.2486-11.5073-77.2486-11.5073s-47.09,72.365-44.9734,72.3538c18.2972-.097,24.2461,41.298,38.0953,47.619"/></clipPath><clipPath id="W"><path fill="#f9bda3" d="M1445.1821,854.7868c43.9154,12.6984,27.375,49.9463,36.8988,66.8775s16.54,85.5033-25.7877,75.98-79.8941-43.3862-79.8941-43.3862l21.164-68.2782Z"/></clipPath><clipPath id="X"><path fill="#60272b" d="M1376.3991,963.2523c59.2592-5.291,38.6243-46.5608,38.6243-46.5608s62.2921-44.3115,48.5355-73.412-90.3344,14.6819-94.0381,40.0787S1347.5729,951.08,1376.3991,963.2523Z"/></clipPath><clipPath id="Y"><path fill="#fff" d="M1471.4438,916.3865c5.4815,20.9379-15.82,26.0578-22.3646,6.9619C1443.5978,902.411,1464.8994,897.2911,1471.4438,916.3865Z"/></clipPath><clipPath id="Z"><path fill="#60272b" d="M749.3,2637.1812c19.4192-1.5907,44.2434-14.5813,52.8525-15.1115s-27.3507,58.06-27.3507,58.06Z"/></clipPath><clipPath id="aa"><path fill="#f4ab37" d="M672.8915,2636.99c9.7581,24.61-2.5675,49.2193-22.8591,70.0429s-18.2254,55.845-18.2254,55.845l172.1861,15.6177,78.6194-4.0641,5.0562-14.8664c17.9427-54.9785-80.56-1.8931-94.8994-35.0215s2.3724-97.4921-31.9888-93.706S672.8915,2636.99,672.8915,2636.99Z"/></clipPath><clipPath id="ab"><path fill="#60272b" d="M619.9078,2761.9372c-4.7123,5.6729-11.1588,14.9317-8.338,20.3443,0,0,76.4576,7.5722,80.9591,6.31s16.2845-12.3049,16.2845-12.3049l35.9824,2.5241s-1.971,12.3049,9.7858,12.62,131.9933-.9466,138.3569-11.6739-2.3041-20.508-5.27-20.1925-47.883,15.1444-94.3895,9.7808c-40.1342-4.6288-136.8385-10.4323-162.586-11.9358A13.61,13.61,0,0,0,619.9078,2761.9372Z"/></clipPath><clipPath id="ac"><path fill="#60272b" d="M1350.8666,2634.8956c19.4192-1.5907,44.2434-14.5813,52.8524-15.1116s-27.3506,58.06-27.3506,58.06Z"/></clipPath><clipPath id="ad"><path fill="#f4ab37" d="M1274.4584,2634.7042c9.7581,24.61-2.5675,49.2193-22.859,70.0429s-18.2255,55.845-18.2255,55.845L1405.56,2776.21l78.6194-4.0641,5.0562-14.8664c17.9427-54.9785-80.56-1.8931-94.8995-35.0215s2.3724-97.4921-31.9888-93.706S1274.4584,2634.7042,1274.4584,2634.7042Z"/></clipPath><clipPath id="ae"><path fill="#60272b" d="M1221.4748,2759.6516c-4.7124,5.6729-11.1588,14.9316-8.338,20.3443,0,0,76.4576,7.5722,80.959,6.31s16.2845-12.3049,16.2845-12.3049l35.9825,2.5241s-1.971,12.3048,9.7858,12.62,131.9932-.9466,138.3569-11.6739-2.3041-20.508-5.27-20.1925-47.883,15.1444-94.39,9.7807c-40.1341-4.6287-136.8384-10.4322-162.5859-11.9357A13.61,13.61,0,0,0,1221.4748,2759.6516Z"/></clipPath><linearGradient id="a" x1="1753.428" x2="1778.26" y1="1576.303" y2="2250.899" gradientUnits="userSpaceOnUse"><stop offset="0" stop-color="#f2fdff"/><stop offset="1" stop-color="#1d93ff"/></linearGradient><linearGradient id="r" x1="2697.495" x2="2722.327" y1="1541.553" y2="2216.148" xlink:href="#a"/><linearGradient id="s" x1="1233.306" x2="1258.138" y1="1595.449" y2="2270.044" xlink:href="#a"/><linearGradient id="t" x1="1394.403" x2="1419.235" y1="1589.519" y2="2264.114" xlink:href="#a"/><linearGradient id="u" x1="1555.5" x2="1580.332" y1="1583.589" y2="2258.184" xlink:href="#a"/><linearGradient id="v" x1="1716.598" x2="1741.429" y1="1577.659" y2="2252.254" xlink:href="#a"/><linearGradient id="w" x1="2522.084" x2="2546.916" y1="1548.009" y2="2222.605" xlink:href="#a"/><linearGradient id="x" x1="2683.182" x2="2708.013" y1="1542.08" y2="2216.675" xlink:href="#a"/><linearGradient id="y" x1="2844.279" x2="2869.111" y1="1536.149" y2="2210.745" xlink:href="#a"/><linearGradient id="z" x1="1877.695" x2="1902.527" y1="1571.729" y2="2246.325" xlink:href="#a"/><linearGradient id="A" x1="2038.792" x2="2063.624" y1="1565.799" y2="2240.394" xlink:href="#a"/><linearGradient id="B" x1="2199.89" x2="2224.722" y1="1559.869" y2="2234.465" xlink:href="#a"/><linearGradient id="C" x1="2360.987" x2="2385.819" y1="1553.939" y2="2228.535" xlink:href="#a"/></defs><path fill="#f9bda3" d="M2238.5114,2005.6233c-16.92,55.8634-92.2414,152.594-101.1909,192.3472,32.7234-.1507,121.14-38.9926,138.3721-48.3058,5.0945-9.6265,95.4595-180.3128,95.9648-181.27Z"/><g clip-path="url(#b)"><path fill="#eb8176" d="M2238.5114,2005.6233c-48.1314-.1441,70.142,125.995,55.9722,143.957,30.6312-88.9609-2.4211-102.9406-28.4792-134.6823"/></g><path fill="#f4ab37" d="M2035.2512,2239.1706c35.0394-24.1472,115.303-82.1855,132.36-118.3162,16.351,14.8888,33.1859,30.7867,12.9817,50.5243l94.8665-21.2734-18.9733,57.1723-237.6655,67.8091C2018.9666,2265.0351,2023.2083,2249.3032,2035.2512,2239.1706Z"/><path fill="none" stroke="#eb8176" stroke-linecap="round" stroke-linejoin="round" stroke-width="5.653" d="M2225.8853,2119.4936l6.3676,4.2426"/><path fill="#f9bda3" d="M2741.3677,1854.9124c36.0007,18.11,111.8735,125.0777,130.6316,123.7346-4.6218-59.1184-4.4236-57.5855-19.9794-123.3953,5.2833-49.3858-107.2893-127.5232-132.6819-158.986Z"/><g clip-path="url(#c)"><path fill="#eb8176" d="M2757.5691,1904.8912c43.1452-47.8067,48.3032-127.9924,48.3032-127.9924l-53.6357,42.1459"/></g><path fill="#f4ab37" d="M2886.28,2072.9594c-15.7712-42.1485-42.251-109.7262-66.87-130.92l20.1562-29.96,15.3349,15.9945-12.0459-112.89,39.1887,24.0463,28.7249,254.1761C2904.2266,2092.7676,2894.7006,2088.7094,2886.28,2072.9594Z"/><path fill="#bc4b56" d="M2678.0324,1978.66s193.9669-215.9386,135.76-247.7707l-274.1932-225.2176,266.2731-324.8425s-136.4892-59.9223-54.2408-113.5371c0,0-439.8893,271.2313-448.6722,279.6085C2091.7185,1548.3845,2677.5178,1978.2134,2678.0324,1978.66Z"/><g clip-path="url(#d)"><path fill="none" stroke="#9b2934" stroke-linecap="round" stroke-linejoin="round" stroke-width="5.653" d="M2582.6987,1968.3948c146.9581-67.9,186.5153-272.1291,186.5153-272.1291"/><path fill="none" stroke="#9b2934" stroke-linecap="round" stroke-linejoin="round" stroke-width="5.653" d="M2719.338,1785.166c-403.1649-429.1795-422.1191-321.7308-160.2161-491.5414"/><path fill="#9b2934" d="M2552.7635,1251.6459c-13.9441-88.4693-247.8113,375.8167-247.8113,375.8167l261.19,288.5832C2675.8442,1516.1776,2566.7075,1340.1153,2552.7635,1251.6459Z"/></g><path fill="#f9bda3" d="M2413.9547,720.3786c-.4063.1036-83.0786-34.1875-90.9273-62.194-18.7314-40.7008-62.9965-101.1237-26.0129-5.1554-136.7234-126.892-85.1377-91.1134-47.4508,37.9319,32.1539,26.38,161.2875,97.1742,175.5515,102.27l-13.2371-68.4937"/><g clip-path="url(#e)"><path fill="#eb8176" d="M2258.25,740.9189c51.2043-1.9506,93.0014-46.4318,93.0014-46.4318l12.1566,67.5756-47.5493,6.8273"/></g><path fill="#37566b" d="M2364.9083,696.189s-40.9542,35.17-36.381,157.2546c.8715,23.2663,255.3093,89.2305,255.3093,89.2305s82.3268-114.6882,25.5272-161.41S2364.9083,696.189,2364.9083,696.189Z"/><g clip-path="url(#f)"><path fill="#1f4454" d="M2316.4956,830.57c74.8056,46.3637,230.1486-50.2252,230.1486-50.2252-1.9089,3.4466-38.86,134.4563-38.18,122.9352-116.3994,142.02-198.0527,42.1119-210.9964,23.5822"/></g><circle cx="2155.75" cy="511.619" r="351.359" fill="#bc4b56"/><g clip-path="url(#g)"><line x1="1512.495" x2="2646.832" y1="898.483" y2="1079.314" fill="none" stroke="#f28c38" stroke-linecap="round" stroke-linejoin="round" stroke-width="5.653"/><line x1="1519.412" x2="2653.749" y1="855.093" y2="1035.925" fill="none" stroke="#f28c38" stroke-linecap="round" stroke-linejoin="round" stroke-width="5.653"/><line x1="1526.329" x2="2660.666" y1="811.705" y2="992.536" fill="none" stroke="#f28c38" stroke-linecap="round" stroke-linejoin="round" stroke-width="5.653"/><line x1="1533.246" x2="2667.583" y1="768.315" y2="949.147" fill="none" stroke="#f28c38" stroke-linecap="round" stroke-linejoin="round" stroke-width="5.653"/><line x1="1540.163" x2="2674.5" y1="724.926" y2="905.758" fill="none" stroke="#f28c38" stroke-linecap="round" stroke-linejoin="round" stroke-width="5.653"/><line x1="1547.08" x2="2681.416" y1="681.537" y2="862.369" fill="none" stroke="#f28c38" stroke-linecap="round" stroke-linejoin="round" stroke-width="5.653"/><line x1="1553.997" x2="2688.333" y1="638.148" y2="818.98" fill="none" stroke="#f28c38" stroke-linecap="round" stroke-linejoin="round" stroke-width="5.653"/><line x1="1560.914" x2="2695.25" y1="594.759" y2="775.591" fill="none" stroke="#f28c38" stroke-linecap="round" stroke-linejoin="round" stroke-width="5.653"/><line x1="1567.831" x2="2702.167" y1="551.37" y2="732.201" fill="none" stroke="#f28c38" stroke-linecap="round" stroke-linejoin="round" stroke-width="5.653"/><line x1="1574.747" x2="2709.084" y1="507.981" y2="688.812" fill="none" stroke="#f28c38" stroke-linecap="round" stroke-linejoin="round" stroke-width="5.653"/><line x1="1581.664" x2="2716.001" y1="464.592" y2="645.423" fill="none" stroke="#f28c38" stroke-linecap="round" stroke-linejoin="round" stroke-width="5.653"/><line x1="1588.581" x2="2722.918" y1="421.203" y2="602.034" fill="none" stroke="#f28c38" stroke-linecap="round" stroke-linejoin="round" stroke-width="5.653"/><line x1="1595.498" x2="2729.835" y1="377.814" y2="558.645" fill="none" stroke="#f28c38" stroke-linecap="round" stroke-linejoin="round" stroke-width="5.653"/><line x1="1602.415" x2="2736.752" y1="334.425" y2="515.256" fill="none" stroke="#f28c38" stroke-linecap="round" stroke-linejoin="round" stroke-width="5.653"/><line x1="1609.332" x2="2743.669" y1="291.036" y2="471.867" fill="none" stroke="#f28c38" stroke-linecap="round" stroke-linejoin="round" stroke-width="5.653"/><line x1="1616.249" x2="2750.586" y1="247.647" y2="428.478" fill="none" stroke="#f28c38" stroke-linecap="round" stroke-linejoin="round" stroke-width="5.653"/><line x1="1623.166" x2="2757.503" y1="204.258" y2="385.089" fill="none" stroke="#f28c38" stroke-linecap="round" stroke-linejoin="round" stroke-width="5.653"/><line x1="1630.083" x2="2764.419" y1="160.869" y2="341.7" fill="none" stroke="#f28c38" stroke-linecap="round" stroke-linejoin="round" stroke-width="5.653"/><line x1="1637" x2="2771.336" y1="117.48" y2="298.311" fill="none" stroke="#f28c38" stroke-linecap="round" stroke-linejoin="round" stroke-width="5.653"/><line x1="1643.917" x2="2778.253" y1="74.09" y2="254.922" fill="none" stroke="#f28c38" stroke-linecap="round" stroke-linejoin="round" stroke-width="5.653"/><line x1="1650.833" x2="2785.17" y1="30.701" y2="211.533" fill="none" stroke="#f28c38" stroke-linecap="round" stroke-linejoin="round" stroke-width="5.653"/><line x1="1657.75" x2="2792.087" y1="-12.688" y2="168.144" fill="none" stroke="#f28c38" stroke-linecap="round" stroke-linejoin="round" stroke-width="5.653"/><line x1="1664.667" x2="2799.004" y1="-56.077" y2="124.755" fill="none" stroke="#f28c38" stroke-linecap="round" stroke-linejoin="round" stroke-width="5.653"/></g><circle cx="2091.718" cy="501.411" r="351.359" fill="#f4ab37"/><g clip-path="url(#h)"><path fill="#f28c38" d="M1989.3411,727.7926c-34.6535-2.5812-5.1367,45.6121,0,52.5518s-3.5451,28.1946,0,72.4776,216.2678,77.72,216.2678,77.72,89.2524-91.1091,49.1208-91.7022-177.3455-70.5038-177.3455-70.5038l-14.4673,41.2308-33.4237-29.2222"/></g><ellipse cx="2091.197" cy="504.682" fill="#f28c38" rx="245.136" ry="248.364" transform="rotate(-80.941 2091.196 504.683)"/><g clip-path="url(#i)"><ellipse cx="2038.434" cy="517.617" fill="#f28c38" rx="245.136" ry="248.364" transform="rotate(-80.941 2038.433 517.617)"/></g><path fill="#f4ab37" d="M2018.0361,379.5755l44.0044,7.015,31.9244,100.7376,61.663-85.8182,44.0057,7.0152-76.6913,98.357,39.6664,6.3235-3.2606,20.4531-51.1324-8.1513-.36.2611-4.1,25.7208,51.443,8.2008-3.26,20.4523-51.443-8.2008-7.41,46.4846-39.0462-6.2246,7.41-46.4846-51.1323-8.1513,3.26-20.4523,51.1324,8.1513,4.1-25.7208-.26-.36-50.8228-8.1019,3.2606-20.4531,39.3566,6.274Zm0,0"/><path fill="#f4ab37" d="M1996.5215,242.8146l-14.3608,6.5848"/><path fill="none" stroke="#f28c38" stroke-linecap="round" stroke-linejoin="round" stroke-width="5.653" d="M2254.73,741.4306a163.0178,163.0178,0,0,1-49.2948,26.9052"/><path fill="#f9bda3" d="M2579.7237,593.2452s84.116,112.42,86.7326,135.5244-99.8662,26.4256-99.8662,26.4256l-49.0153-151.5634Z"/><g clip-path="url(#j)"><path fill="#eb8176" d="M2554.7584,624.0925c3.6769,122.2311-13.2869,114.8747-47.3326,18.8577l60.3492-16.3756"/></g><path fill="#bc4b56" d="M2655.4773,1013.6768c-.1726,1.4806,168.369,38.7394,175.0639,45.1682,244.4947,234.78-118.0387,349.3268-281.585,548.7127,3.4022-15.5916-96.182,469.76-125.4182,535.0268-17.8069,31.3453-246.6992-111.943-197.0447-125.9978-.1674.0474,21.791-68.6967,49.9227-157.3375l117.4946-370.2166c-10.11,15.466,133.8967-218.868,135.3432-221.5569"/><g clip-path="url(#k)"><path fill="#9b2934" d="M2695.1457,1067.2916c-390.63,275.1588,364.8019-83.2346-3.5654,380.9217-301.7176,380.1754,415.7117-328.4424,415.7117-328.4424l2.9087-233.3871-138.49,11.15"/><path fill="none" stroke="#9b2934" stroke-linecap="round" stroke-linejoin="round" stroke-width="5.653" d="M2234.434,1886.9445c-44.565,73.2983,208.2032,215.3193,208.2032,215.3193"/><path fill="none" stroke="#9b2934" stroke-linecap="round" stroke-linejoin="round" stroke-width="5.653" d="M2291.7318,2005.6233c.1456-.299,150.6695-404.3846,169.1482-453.9054,13.1836-43.1646,244.603-221.0219,270.1651-344.8359"/></g><path fill="#37566b" d="M2539.7253,1179.1316c88.8687,54.1693,353.9943-81.9465,353.9943-81.9465s26.4-261.8407-195.7543-383.6543c-53.0717-29.1008-78.85-73.0109-78.85-73.0109L2514.8544,741.0716Z"/><g clip-path="url(#l)"><path fill="#1f4454" d="M2674.6778,860.2559c77.2374,55.9393-63.8844,108.5771-76.778,146.2866-46.8142,136.9161,60.4522,141.8837,176.6166,164.753-28.8865,13.845-271.734,113.4711-272.6247,113.8564.07-.676-36.966-319.2244-38.3005-331.7066,19.7862-12.5366,145.7379-103.1479,173.337-124.5324"/><polyline fill="#f7f0f0" points="2498.11 797.308 2681.676 658.34 2631.275 622.037 2500.763 683.265"/><path fill="#1f4454" d="M2678.0324,776.0869c42.3723-4.2442,108.1588-65.4769,108.1588-65.4769l127.6127,271.1288s-64.3835,44.761-112.7577,43.7C2801.0462,1025.4388,2769.214,849.3009,2678.0324,776.0869Z"/></g><path fill="#f9bda3" d="M2194.0269,857.6891c-.1842.0832-86.1735-33.902-94.3616-62.1938-19.4053-40.8305-65.397-100.8979-26.9957-5.1556-19.5591-16.89-156.7952-153.7548-61.4839-23.4617-3.5522,10.6435-.94,35.8262,8.3657,58.5331,17.6763,17.2739,172.37,101.51,186.0575,105.1307l-26.198-95.7919"/><g clip-path="url(#m)"><path fill="#eb8176" d="M2144.1453,826.215c-23.8953-.9753-14.33,38.25-39.2,46.54s26.6759,25.846,26.6759,25.846C2133.8157,878.4642,2145.2955,847.59,2144.1453,826.215Z"/></g><path fill="#37566b" d="M2575.7065,755.2214c-133.8844,137.9352-78.3973,127.82-191.6151,107.7211-99.4785-16.1331-241.2372-31.4465-238.9964-40.6717-43.0617,177.2809.3754,206.6424,11.0529,200.8833,17.3628,6.7691,430.1417,174.7123,534.7407-176.9907"/><g clip-path="url(#n)"><path fill="#1f4454" d="M2587.24,1037.1651c2.28-42.78-138.2157-50.95-155.373-6.7544C2408.1447,1082.385,2586.6657,1089.68,2587.24,1037.1651Z"/></g><rect width="87.206" height="38.583" x="2812.354" y="1055.487" fill="#f7f0f0" transform="rotate(-12.13 2855.956 1074.779)"/><path fill="#f7f0f0" d="M2881.8526,1069.2127c-3.132-4.2717-5.7424-3.7107,0,0C2885.6933,1073.2461,2865.7491,1079.61,2881.8526,1069.2127Z"/><path fill="#f7f0f0" d="M2625.02,1015.8642l12.1814-16.3125s38.02,77.7379,93.844,64.5266C2726.69,1096.0943,2671.1464,1097.8948,2625.02,1015.8642Z"/><path fill="none" stroke="#9b2934" stroke-linecap="round" stroke-linejoin="round" stroke-width="5.653" d="M2652.6288,1209.6673c-41.3818,55.7062,33.4237,83.9573,33.4237,83.9573"/><path fill="none" stroke="#1f4454" stroke-linecap="round" stroke-linejoin="round" stroke-width="5.653" d="M2464.1062,881.9488a280.466,280.466,0,0,1,16.1684,38.5534"/><path fill="none" stroke="#1f4454" stroke-linecap="round" stroke-linejoin="round" stroke-width="5.653" d="M2775.3234,897.7767a132.92,132.92,0,0,0,38.469,7.4522"/><path fill="none" stroke="#9b2934" stroke-linecap="round" stroke-linejoin="round" stroke-width="5.653" d="M2527.1776,1593.2459a45.2936,45.2936,0,0,0,25.5859,10.3667"/><path fill="none" stroke="#eb8176" stroke-linecap="round" stroke-linejoin="round" stroke-width="5.653" d="M2071.5845,789.1432a20.8575,20.8575,0,0,0,11.5994,5.4137"/><path fill="none" stroke="#eb8176" stroke-linecap="round" stroke-linejoin="round" stroke-width="5.653" d="M2295.3623,653.4255l2.1055,3.1942"/><path fill="none" stroke="#1f4454" stroke-linecap="round" stroke-linejoin="round" stroke-width="5.653" d="M2701.9776,893.015l8.5235,8.4533"/><path fill="#f9bda3" d="M2560.7456,640.437c-43.8326,17.7819-87.66,12.0281-70.8686-37.7066s19.6385-61.8015,33.7454-68.921,71.3573,29.8677,71.3573,29.8677,2.7919,41.3345,2.4732,42.21S2560.7456,640.437,2560.7456,640.437Z"/><g clip-path="url(#o)"><path fill="#eb8176" d="M2559.3833,590.5735c-23.2179-4.0815-12.2925-27.7032-16.1832-26.5863s-45.0373,1.0418-46.6793-12.7123,60.8811-9.76,60.8811-9.76l31.48,38.7922"/></g><path fill="#60272b" d="M2581.5891,604.0751c-47.7751-9.4678-27.94-44.875-30.2208-44.0535-100.076-.5047-81.9757-113.0413-4.9094-57.3072,79.58-36.12,76.2247,26.8754,76.2247,26.8754,75.9847,30.918-2.7876,78.1917-2.7876,78.1917,24.28,42.22-42.1607,64.95-59.6494,22.2291l16.719-15.0551"/><g clip-path="url(#p)"><path fill="#262833" d="M2586.0752,593.2331c39.7262,19.6288-27.0034,45.1575-20.0942,58.6535s-14.8669-25.2723-14.8669-25.2723l12.4664-27.2734"/><path fill="#262833" d="M2595.5888,488.261c-37.4639,6.6263-36.7576,22.08-29.8827,34.511s-32.7321-35.3552-32.7321-35.3552l23.8787-10.0829"/><path fill="#262833" d="M2621.411,500.8454a45.6156,45.6156,0,0,1-5.6446,43.3282c-5.5972,7.2521,26.9023-.8171,22.0518-14.1682s-7.4514-32.8792-7.4514-32.8792"/><path fill="#262833" d="M2664.6556,596.62c-19.36,14.8952-42.8864,12.2394-52.8519,9.4547s25.9314,20.4013,37.9958,22.0613,16.8214-20.6785,16.8214-20.6785"/><path fill="#262833" d="M2589.5044,556.9818c15.5155-5.7246,16.1119,25.7063,6.5494,23.0428S2582.6048,559.5274,2589.5044,556.9818Z"/><path fill="#262833" d="M2493.7639,490.9427c-19.2088,11.9383,15.621,32.257,4.5422,29.05s-26.87-17.8256-26.87-17.8256l11.7053-19.3856"/></g><path fill="#f9bda3" d="M2552.3,589.5457c71.27-8.8186,35.025,60.6946,1.7181,34.1581"/><path fill="#fff" d="M2513.4349,562.1435c-9.511,20.9768,6.75,27.6184,16.6929,8.59C2539.6385,549.7575,2523.3773,543.1159,2513.4349,562.1435Z"/><g clip-path="url(#q)"><path fill="#262833" d="M2511.1972,562.5645c-4.196,10.25,3.7111,14.524,8.9841,3.5536C2524.3769,555.8689,2516.47,551.595,2511.1972,562.5645Z"/></g><path fill="#f9bda3" d="M2509.5913,561.2426c-13.9053,7.2452-22.7648,4.1292-24.6739,8.534s6.9442,17.7694,17.7122,21.4816"/><path fill="#eb8176" d="M2522.4686,606.3939c2.4256,7.1994,11.7812,11.2309,21.1937,8.9828,9.74-2.3262,15.9126-10.4675,13.4608-18.1616-2.47-7.752-12.6159-11.7079-22.33-8.8746C2525.409,591.0775,2520.0258,599.1438,2522.4686,606.3939Z" opacity=".3"/><path fill="#262833" d="M2530.7025,535.577c17.5063,6.9621,18.1328,15.8029,6.9062,12.1651S2519.2649,531.0284,2530.7025,535.577Z"/><path fill="none" stroke="#ad2f12" stroke-linecap="round" stroke-linejoin="round" stroke-width="4" d="M2516.5529,605.254c-5.459,4.5783-10.5683,4.5513-13.9233,3.7028"/><path fill="none" stroke="#ad2f12" stroke-linecap="round" stroke-linejoin="round" stroke-width="4" d="M2570.8845,605.4108c4.1026.8749-2.452,6.7329-2.452,6.7329"/><rect width="1124.552" height="222.441" x="1213.819" y="2080.876" fill="url(#a)" rx="29.698"/><rect width="419.58" height="222.441" x="2511.652" y="2080.876" fill="url(#r)" rx="29.698"/><rect width="465.28" height="312.932" x="1220.822" y="1512.988" fill="#f4ab37" rx="85.994"/><rect width="17.5" height="154.405" x="1367.508" y="1512.988" fill="#f4ab37"/><rect width="17.5" height="154.405" x="1525.776" y="1667.393" fill="#f4ab37"/><rect width="465.28" height="14.418" x="1220.822" y="1660.184" fill="#f4ab37"/><g opacity=".24"><rect width="93.813" height="8.462" x="1220.822" y="2526.364" fill="url(#s)"/><rect width="93.813" height="8.462" x="1382.137" y="2526.364" fill="url(#t)"/><rect width="93.813" height="8.462" x="1543.453" y="2526.364" fill="url(#u)"/><rect width="93.813" height="8.462" x="1704.769" y="2526.364" fill="url(#v)"/><rect width="93.813" height="8.462" x="2511.347" y="2526.364" fill="url(#w)"/><rect width="93.813" height="8.462" x="2672.662" y="2526.364" fill="url(#x)"/><rect width="93.813" height="8.462" x="2833.978" y="2526.364" fill="url(#y)"/><rect width="93.813" height="8.462" x="1866.084" y="2526.364" fill="url(#z)"/><rect width="93.813" height="8.462" x="2027.4" y="2526.364" fill="url(#A)"/><rect width="93.813" height="8.462" x="2188.715" y="2526.364" fill="url(#B)"/><rect width="93.813" height="8.462" x="2350.031" y="2526.364" fill="url(#C)"/></g><rect width="2118.029" height="1412.02" x="1013.511" y="1313.566" fill="#2b71a6" rx="162.298"/><g clip-path="url(#D)"><rect width="1124.552" height="222.441" x="1213.819" y="2106.618" fill="#044e84" rx="29.698"/><rect width="419.58" height="222.441" x="2511.652" y="2106.618" fill="#044e84" rx="29.698"/><path fill="#044e84" d="M861.0358,1352.2544c2207.5738-4.6979,2208.5725-122.2578,2221.7138,112.6932s48.7905,1098.34,48.7905,1098.34l229.2226-1420.7235-479.8783-115.8814-2025.3668,148.99"/></g><rect width="465.28" height="312.932" x="1220.822" y="1538.729" fill="#f4ab37" rx="85.994"/><g clip-path="url(#E)"><polygon fill="#f4ab37" points="1700.125 1687.55 1380.881 1687.55 1380.881 1531.482 1362.328 1531.482 1362.328 1687.55 1206.799 1687.55 1206.799 1702.838 1530.136 1702.838 1530.136 1858.908 1548.689 1858.908 1548.689 1702.838 1700.125 1702.838 1700.125 1687.55"/></g><rect width="93.813" height="8.462" x="1220.822" y="2552.105" fill="#044e84"/><rect width="93.813" height="8.462" x="1382.137" y="2552.105" fill="#044e84"/><rect width="93.813" height="8.462" x="1543.453" y="2552.105" fill="#044e84"/><rect width="93.813" height="8.462" x="1704.769" y="2552.105" fill="#044e84"/><rect width="93.813" height="8.462" x="2511.347" y="2552.105" fill="#044e84"/><rect width="93.813" height="8.462" x="2672.662" y="2552.105" fill="#044e84"/><rect width="93.813" height="8.462" x="2833.978" y="2552.105" fill="#044e84"/><rect width="93.813" height="8.462" x="1866.084" y="2552.105" fill="#044e84"/><rect width="93.813" height="8.462" x="2027.4" y="2552.105" fill="#044e84"/><rect width="93.813" height="8.462" x="2188.715" y="2552.105" fill="#044e84"/><rect width="93.813" height="8.462" x="2350.031" y="2552.105" fill="#044e84"/><path fill="none" stroke="#044e84" stroke-linecap="round" stroke-linejoin="round" stroke-width="14.699" d="M2166.41,1592.1446a449.4606,449.4606,0,0,1-76.3232,78.2577"/><path fill="none" stroke="#044e84" stroke-linecap="round" stroke-linejoin="round" stroke-width="14.699" d="M3088.2678,2486.3341l-5.5182,5.5182"/><path fill="#009995" d="M2080.7114,2421.5881q-5.5389,0-11.01.3226c-48.0787-65.9282-119.8975-107.834-200.1913-107.834-116.8519,0-215.8033,88.6832-249.6253,211.1522-82.1133,15.1469-144.8819,97.5969-144.8819,197.0684,0,6.5239.2905,12.9686.8183,19.3332h812.0308a287.3616,287.3616,0,0,0,8.6-69.8971C2296.4521,2533.5814,2199.8619,2421.5881,2080.7114,2421.5881Z"/><path fill="#009995" d="M3020.7551,1716.9283q-5.5389,0-11.01.3226c-48.0786-65.9282-119.8975-107.834-200.1912-107.834-116.852,0-215.8034,88.6832-249.6254,211.1522-82.1133,15.1469-144.8819,97.5968-144.8819,197.0684,0,6.5239.2906,12.9686.8184,19.3332h812.0307a287.3567,287.3567,0,0,0,8.6-69.8971C3236.4957,1828.9216,3139.9055,1716.9283,3020.7551,1716.9283Z"/><g clip-path="url(#F)"><polyline fill="#00757d" points="3282.649 1840.738 2865.927 1840.738 2865.927 1789.984 2904.126 1789.984 2904.126 1695.549 2594.293 1681.755 2596.415 1846.221 2613.392 1875.931 2755.576 1918.374 3181.066 1931.107 3300.706 1862.388"/></g><rect width="1171.198" height="1012.991" x="1654.573" y="1742.352" fill="#77689b"/><g clip-path="url(#G)"><path fill="#5e4f8e" d="M1555.5041,2231.1059c474.73,6.9751,812.5672,10.7334,962.2675,10.7334,23.8741,0,23.1065,315.1542,14.3259,545.9974-17.4036,457.5375,210.7456-624.7756,210.7456-624.7756L2682.362,2080.52"/></g><rect width="303.298" height="238.442" x="2153.184" y="2354.761" fill="#5e4f8e"/><rect width="121.535" height="203.353" x="2174.917" y="2372.305" fill="#f7f0f0"/><rect width="121.535" height="203.353" x="2313.214" y="2372.305" fill="#f4ab37"/><rect width="303.298" height="238.442" x="1742.233" y="1823.194" fill="#5e4f8e"/><rect width="121.535" height="203.353" x="1763.967" y="1840.738" fill="#f4ab37"/><rect width="121.535" height="203.353" x="1902.263" y="1840.738" fill="#f7f0f0"/><rect width="303.298" height="238.442" x="2174.917" y="1823.194" fill="#5e4f8e"/><rect width="121.535" height="203.353" x="2196.651" y="1840.738" fill="#f4ab37"/><rect width="121.535" height="203.353" x="2334.948" y="1840.738" fill="#f7f0f0"/><rect width="1269.148" height="66.128" x="1605.599" y="1704.927" fill="#f7f0f0"/><rect width="192.371" height="370.263" x="1792.862" y="2385.08" fill="#f4ab37"/><rect width="6.359" height="75.03" x="1963.269" y="2483.202" fill="#f7f0f0"/><rect width="245.436" height="30.319" x="1768.7" y="2354.761" fill="#f7f0f0"/><rect width="953.487" height="135.435" x="1629.775" y="2061.636" fill="#f7f0f0"/><rect width="1195.996" height="27.977" x="1629.775" y="2183.082" fill="#f7f0f0"/><rect width="732.494" height="881.282" x="2550.155" y="1874.061" fill="#f4ab37"/><g clip-path="url(#H)"><path fill="#f28c38" d="M3297.6136,2164.2081c59.0681,804.832-799.878,605.1239-799.878,605.1239s285.524,265.2889,336.9381,274.8385,621.21-159.1607,621.21-159.1607"/></g><rect width="768.608" height="63.664" x="2532.097" y="1862.388" fill="#f7f0f0"/><rect width="303.298" height="238.442" x="2767.905" y="2020.942" fill="#f4ab37"/><rect width="121.535" height="203.353" x="2789.639" y="2038.486" fill="#f7f0f0"/><rect width="121.535" height="203.353" x="2927.935" y="2038.486" fill="#f7f0f0"/><rect width="303.298" height="238.442" x="2767.905" y="2394.819" fill="#f4ab37"/><rect width="121.535" height="203.353" x="2789.639" y="2412.363" fill="#f7f0f0"/><rect width="121.535" height="203.353" x="2927.935" y="2412.363" fill="#f7f0f0"/><rect width="28.939" height="812.716" x="3219.675" y="1975.121" fill="#f7f0f0"/><circle cx="3234.145" cy="2164.921" r="162.942" fill="#f7f0f0"/><circle cx="3234.145" cy="2164.921" r="150.905" fill="#2b71a6"/><g clip-path="url(#I)"><polyline fill="#044e84" points="3333.86 2001.979 3112.096 2387.367 3490.899 2388.428 3397.087 2061.636"/></g><path fill="#f7f0f0" d="M3304.5376,2135.4986q0,16.2915-6.924,28.7095a48.9031,48.9031,0,0,1-19.4461,19.345q-12.5232,6.9246-29.0151,6.9228H3219.22v58.8461h-31.9681V2080.52h61.9q16.4943,0,29.0151,6.924a48.937,48.937,0,0,1,19.4461,19.3438Q3304.533,2119.2107,3304.5376,2135.4986Zm-31.9681,0q0-14.4558-7.942-22.1957-7.9422-7.7357-22.6013-7.7375H3219.22v59.8653h22.8058q14.66,0,22.6013-7.7375T3272.57,2135.4986Z"/><path fill="#009995" d="M3281.868,2747.5882a81.053,81.053,0,0,0-73.7586,47.4507h147.5178A81.0525,81.0525,0,0,0,3281.868,2747.5882Z"/><path fill="#009995" d="M2933.5165,2687.7616q-2.8079,0-5.5813.1635c-24.3724-33.4209-60.7794-54.6641-101.4825-54.6641-59.2356,0-109.3968,44.956-126.5421,107.039-41.6255,7.6784-73.4447,49.4745-73.4447,99.8995,0,3.3071.1473,6.5741.4149,9.8h411.6411a145.6709,145.6709,0,0,0,4.36-35.4328C3042.8814,2744.5341,2993.9171,2687.7616,2933.5165,2687.7616Z"/><g clip-path="url(#J)"><path fill="#00757d" d="M2532.0975,2520.7164c603.3421,195.583,395.8377,628.5,395.8377,628.5l259.3171-152.7943-116.0488-440.8441"/></g><rect width="260.697" height="31.792" x="1759.799" y="2737.54" fill="#f9bda3"/><path fill="none" stroke="#e2d7d7" stroke-linecap="round" stroke-linejoin="round" stroke-width="11.306" d="M1915.7942,2125.7945l-19.0993,19.0993"/><path fill="none" stroke="#f28c38" stroke-linecap="round" stroke-linejoin="round" stroke-width="11.306" d="M3150.6171,2380.5169c4.1212,16.6932-4.0848,35.65-19.077,44.0687"/><path fill="none" stroke="#00757d" stroke-linecap="round" stroke-linejoin="round" stroke-width="11.306" d="M2994.9039,1746.9919l-28.6489,28.649"/><path fill="none" stroke="#f28c38" stroke-linecap="round" stroke-linejoin="round" stroke-width="11.306" d="M2665.9839,1996.4548,2650.078,2009.2"/><path fill="none" stroke="#f28c38" stroke-linecap="round" stroke-linejoin="round" stroke-width="11.306" d="M2659.3357,2588.18l-15.9682,12.6672"/><path fill="none" stroke="#5e4f8e" stroke-linecap="round" stroke-linejoin="round" stroke-width="11.306" d="M2283.8053,2661.506l-19.0993,12.7328"/><path fill="none" stroke="#5e4f8e" stroke-linecap="round" stroke-linejoin="round" stroke-width="11.306" d="M1726.4989,2263.4318l-27.5475,38.9771"/><path fill="none" stroke="#5e4f8e" stroke-linecap="round" stroke-linejoin="round" stroke-width="11.306" d="M2614.78,1824.2l-9.5826,6.3164"/><polyline fill="#f9bda3" points="827.07 2570.937 702.744 2779.273 647.188 2757.406 765.633 2492.458 828.684 2576.674"/><g clip-path="url(#K)"><path fill="#eb8176" d="M730.3766,2546.625c47.2414,147.1421,59.7208,68.4492,58.0978,139.363,20.9455-33.9127,93.3562-128.1963,55.438-140.5124"/></g><polyline fill="#f9bda3" points="1404.924 2560.568 1347.787 2774.281 1285.179 2751.849 1318.177 2480.063 1408.389 2566.453"/><g clip-path="url(#L)"><path fill="#eb8176" d="M1266.7494,2652.315c62.0726,4.0208,38.4321-47.1488,128.2411-54.5923s-121.8747-46.503-121.8747-46.503"/></g><path fill="#37566b" d="M1121.43,2528.9938c34.0625,75.8166,284.568,105.0362,292.3533,52.6589,19.4919-61.4057,150.2724-473.4869,153.9216-484.9856,50.2083-83.9226-119.9614-602.9668-133.1258-703.409l-202.326,98.339,103.1011,560.5761S1087.3677,2453.1771,1121.43,2528.9938Z"/><g clip-path="url(#M)"><path fill="none" stroke="#1f4454" stroke-linecap="round" stroke-linejoin="round" stroke-width="5.653" d="M1202.5139,2542.78c155.2621-617.8484,267.5711-412.7784,138.572-847.7638"/><path fill="#1f4454" d="M1365.7284,1706.7216c146.5621-96.4412-62.014,214.042-54.056,293.99s-132.0279-75.1415-132.0279-75.1415l155.71-203.3394"/></g><path fill="#37566b" d="M1490.1356,1488.7092s-150.9916-43.9-285.8294,3.3721-227.0679,586.3778-227.0679,586.3778-487.4306,219.7445-349.857,376.4364c24.9758,28.4466,169.8,204.7591,208.65,146.981,0,0,274.3119-328.3845,325.573-417.5258s235.4824-533.8331,235.4824-533.8331"/><g clip-path="url(#N)"><path fill="#1f4454" d="M981.9726,1587.1059c280.1229,27.5715,511.8751,3.6643,439.4806-33.6047,285.6392-14.3049-138.871-113.1314-138.871-113.1314l-189.7552,35.7809"/><path fill="none" stroke="#1f4454" stroke-linecap="round" stroke-linejoin="round" stroke-width="5.653" d="M701.3308,2492.4575c-.0617.0874,302.5352-414.8728,302.8312-415.35,3.6979-5.9854,225.2254-532.6616,227.85-537.8674"/></g><path fill="#f9bda3" d="M1730.0924,1089.6847c-.7862-12.7161,60.4067-81.0107,79.8286-104.8232,11.919-14.6133,20.051,11.9371-6.33,39.7246,46.0921,12.3426,67.8375-81.404,87.5285-68.0893,20.865,29.0039-24.7545,112.8036-48.1776,127.1452-50.3322,9.8686-80.9673,111.9909-91.9107,139.4986Z"/><g clip-path="url(#O)"><path fill="#eb8176" d="M1734.0077,1063.8212c79.58,15.0584,91.2521,57.5013,91.2521,57.5013l-50.4009,12.7328"/></g><path fill="#f4ab37" d="M1739.0587,1065.1155c53.1188,39.8062,94.0706,104.0453,90.7216,135.6845-27.2922,257.84-340.2292,213.0271-382.5886,109.8209-42.6085-87.178-49.6219-243.4245-50.1047-244.4123,0,0,104.4247-50.8206,156.33-7.6425,66.1305,55.0114,75.8222,155.8591,75.8222,155.8591Z"/><g clip-path="url(#P)"><path fill="#f28c38" d="M1535.8992,1158.21c41.4439,86.3164-14.3785,128.1076,7.1663,206.6875s-105.7838-42.3824-105.7838-42.3824l28.6489-89.3867"/><path fill="#bc4b56" d="M1667.6571,1393.2581c2.5555-24.01-110.4716-32.5138-130.018-5.2927C1511.0774,1419.4142,1665.92,1426.7473,1667.6571,1393.2581Z"/><path fill="none" stroke="#f28c38" stroke-linecap="round" stroke-linejoin="round" stroke-width="5.653" d="M1689.709,1088.5034c34.8927-22.2948,106.6377,123.4915,106.6377,123.4915"/></g><path fill="#f4ab37" d="M1562.647,1069.3915c-39.49-65.8791-290.8664-43.2579-360.1331-24.569-2.5707,5.1617,52.9039,23.0639,48.5491,69.768,19.8825,145.606-123.2444,321.7674-72.5153,421.6014,222.0074,67.9724,369.7747-11.1166,384.0857-44.334s-103.3212-145.24-13.4055-306.3934"/><g clip-path="url(#Q)"><path fill="#f28c38" d="M1308.9306,1233.1279c69.6649-9.9873-61.8416,143.0475-59.2738,187.1409,6.04,103.7123,125.2673,111.848,284.8126,63.8786,227.3763-68.3635,94.72,159.0339,94.72,159.0339H1077.7526L945.0958,1515.4792l314.7583-390.2274"/><path fill="#bc4b56" d="M1098.7339,1352.6543c19.5381-3.7612,39.7226-10.5972,60.3779-20.5039q27.8658,31.637,56.7466,63.9551a448.5709,448.5709,0,0,0,64.6582-46.3023q29.4287,28.5638,59.07,57.8111a742.31,742.31,0,0,0,65.3535-72.1338q29.297,25.49,58.003,51.6645a1120.5674,1120.5674,0,0,0,62.2885-97.9663c90.6636,55.312,31.3628,69.2778-4.5468,150.9439,86.3667,66.4585,34.6948,71.7251-7.4009,148.1616q-27.7339-31.262-56.5288-61.8447a655.7216,655.7216,0,0,1-64.5157,68.8969q-29.3883-34.3351-59.0336-67.9892a408.7612,408.7612,0,0,1-65.41,43.0654q-29.3481-37.4085-58.145-74.1353a248.4278,248.4278,0,0,1-62.5449,17.2349q-27.6915-40.6026-54.022-80.5195a210.3659,210.3659,0,0,0,59.2881-9.5259Q1124.9069,1387.7283,1098.7339,1352.6543Z"/><path fill="#77689b" d="M1456.7744,1526.022c48.3311-56.542,60.3408-80.9434,55.5093-93.6407-4.9722-13.4887-26.7847-15.2739-49.3594-44.8134-48.8052,59.6289-62.0444,74.4111-56.92,86.875C1411.0361,1486.1177,1434.4316,1495.4722,1456.7744,1526.022Z"/><path fill="#77689b" d="M1333.2246,1526.9888c50.0757-37.5454,63.0816-56.398,57.9507-68.6411-5.1567-13.0337-28.45-19.4566-51.6079-50.37-50.0864,40.6294-63.1245,49.8638-57.9868,61.8736C1286.74,1481.0708,1310.0737,1495.0659,1333.2246,1526.9888Z"/><path fill="#77689b" d="M1209.6689,1495.978a353.6734,353.6734,0,0,0,63.7183-35.0366q-29.0229-32.5986-57.5478-64.5308c-48.4937,21.6353-60.5767,25.3208-55.7232,36.8721C1165.1045,1444.0459,1187.03,1462.6768,1209.6689,1495.978Z"/></g><path fill="#f7f0f0" d="M1421.4947,1079.6057c23.6459,41.6994,58.6858,15.6288,31.4594-35.4083,0,0-25.2944-24.9559-25.4868-10.7529C1426.8149,1081.5822,1421.4947,1079.6057,1421.4947,1079.6057Z"/><path fill="#f9bda3" d="M1217.502,1460.0813c18.3617,10.8127,44.7749-11.1921,64.9008-10.976,10.8738,8.3152,49.9828,53.2082,35.7144,51.9617.4908,3.7324,17.535,6.2977,10.6906,17.4806,27.8635,22.4958-42.48-2.0132-38.5226,2.4742-28.8924,17.7355-115.7734-5.283-128.6806-14.1Z"/><g clip-path="url(#R)"><path fill="#eb8176" d="M1192.2091,1485.5352c56.1732-58.1261,55.4133,35.0718,26.1646,55.0625l-31.3017,10.08-14.3244-19.63"/></g><path fill="#f4ab37" d="M1399.5407,1031.6859c-39.0644-28.8932-143.6159-1.7184-197.0268,13.1366s-340.4308,232.3747-195.7092,477.4822c122.2483,207.0455,224.2352-56.9785,226.2263-64.6087,10.709,4.9059-101.9861-115.3844-102.406-118.9943,0,0,137.318-34.4472,178.3056-105.5738"/><g clip-path="url(#S)"><path fill="#bc4b56" d="M1021.234,1312.281c-3.2082,105.4986-83.261,101.5154-85.9465-.0035C938.4954,1206.7823,1018.5481,1210.7655,1021.234,1312.281Z"/><path fill="none" stroke="#f28c38" stroke-linecap="round" stroke-linejoin="round" stroke-width="5.653" d="M1005.3179,1528.9043c143.918,23.9579,197.196-122.681,197.196-122.681"/><path fill="#f28c38" d="M1209.5341,1342.5464c-64.9579,24.9615-89.5177-68.26-106.23-65.4746,0,0,9.9475,62.4705,53.3188,79.58s44.1671-26.6594,44.1671-26.6594"/></g><path fill="#f9bda3" d="M1447.5588,973.3032c-10.8608,31.7667-21.4435,103.5438-26.0641,106.3025s-85.3151-24.8037-85.3151-24.8037c37.429-137.8044,27.9481-93.08,118.3124-81.6165"/><g clip-path="url(#T)"><path fill="#eb8176" d="M1411.5222,975.6276c-16.11,31.173,23.8582,42.6381,21.077,74.8728s12.5414-70.8754,12.5414-70.8754S1427.6324,944.4546,1411.5222,975.6276Z"/></g><path fill="#60272b" d="M1400.2268,975.6038l-10.9467,33.844a39.32,39.32,0,0,1-20.3546,5.6784h-96.6284l4.3487-43.5205-22.9995,43.5205H1226.151c-46.5608-75.6146,46.4121-94.02,90.3274-109.8927s31.9777-63.1626,62.5662-61.954,19.0476,37.6154,19.0476,37.6154l2.1346,94.7089"/><g clip-path="url(#U)"><path fill="#262833" d="M1249.3648,919.96c98.4449-8.0106,89.4352-13.5067,99.76-44.6211s-41.4095-7.3048-41.4095-7.3048l-63.6094,29.269"/></g><path fill="#60272b" d="M1443.0657,939.9719c58.2011-34.9206,95.2381-76.72,13.2275-85.1851-39.6825-32.2751-77.2486-11.5073-77.2486-11.5073s-47.09,72.365-44.9734,72.3538c18.2972-.097,24.2461,41.298,38.0953,47.619"/><g clip-path="url(#V)"><path fill="#262833" d="M1465.5428,866.2146c23.2721,14.7827,6.3409,44.2648,25.9176,47.91s-19.1244,9.2007-19.1244,9.2007l-30.611-15.3439,10.8-26.4338"/><path fill="#262833" d="M1396.0271,837.8082c18.3856-.8458-13.7535,16.2477,4.2,18.74s37.4839-29.7832,37.4839-29.7832L1424,822.6258"/></g><path fill="#f9bda3" d="M1445.1821,854.7868c43.9154,12.6984,27.375,49.9463,36.8988,66.8775s16.54,85.5033-25.7877,75.98-79.8941-43.3862-79.8941-43.3862l21.164-68.2782Z"/><g clip-path="url(#W)"><path fill="#eb8176" d="M1406.8044,944.4362c19.1467-5.0166,14.2857-27.5924,14.2857-27.5924s52.591-35.5573,49.6031-55.1586c-1.9469-12.7722-48.0158,13.8888-48.0158,13.8888L1387.36,912.4788"/></g><path fill="#60272b" d="M1376.3991,963.2523c59.2592-5.291,38.6243-46.5608,38.6243-46.5608s62.2921-44.3115,48.5355-73.412-90.3344,14.6819-94.0381,40.0787S1347.5729,951.08,1376.3991,963.2523Z"/><g clip-path="url(#X)"><path fill="#262833" d="M1379.5557,935.2184c-5.82-5.2793,28.04-9.3032,46.1489-.1948s-12.7221,19.5137-12.7221,19.5137l-27.6067-5.848"/></g><path fill="#262833" d="M1462.0548,910.0093h0a5.3909,5.3909,0,0,1,5.3909,5.3909v9.12a5.3909,5.3909,0,0,1-5.3909,5.3909h0a5.3908,5.3908,0,0,1-5.3908-5.3908V915.4A5.3909,5.3909,0,0,1,1462.0548,910.0093Z" transform="rotate(-13.761 1462.052 919.959)"/><path fill="#fff" d="M1471.4438,916.3865c5.4815,20.9379-15.82,26.0578-22.3646,6.9619C1443.5978,902.411,1464.8994,897.2911,1471.4438,916.3865Z"/><g clip-path="url(#Y)"><path fill="#262833" d="M1474.0005,916.967c2.1388,10.1957-8.5123,13.6906-11.7365,2.7172C1460.1254,909.4894,1470.7765,905.9944,1474.0005,916.967Z"/></g><path fill="#f9bda3" d="M1474.0005,916.967c11.7715,8.86,21.6086,6.5144,22.699,10.8916s-4.9472,12.6344-15.5,14.415"/><path fill="#262833" d="M1460.0707,891.6193c-15.988,3.1711-17.9055,10.596-7.7821,9.2661S1470.5162,889.5475,1460.0707,891.6193Z"/><ellipse cx="1437.711" cy="936.474" fill="#eb8176" opacity=".3" rx="12.275" ry="9.06" transform="rotate(-4.083 1437.72 936.479)"/><path fill="none" stroke="#ad2f12" stroke-linecap="round" stroke-linejoin="round" stroke-width="4" d="M1454.2968,948.6893a20.1955,20.1955,0,0,0,9.7937,5.3874"/><path fill="#f9bda3" d="M1423.568,944.4362c-68.7237-32.8634-55.3635,33.1077-12.1649,19.3511"/><path fill="none" stroke="#eb8176" stroke-linecap="round" stroke-linejoin="round" stroke-width="5.653" d="M1434.8056,964.7712l1.8626,2.4826"/><path fill="none" stroke="#9b2934" stroke-linecap="round" stroke-linejoin="round" stroke-width="5.653" d="M1401.7712,946.3948c-12.0748-5.1022-17.5641.0867-1.6518,11.8148"/><path fill="#37566b" d="M1390.2018,1023.7025a32.8753,32.8753,0,1,1,32.8753-32.88A32.9159,32.9159,0,0,1,1390.2018,1023.7025Zm0-59.1367a26.2615,26.2615,0,1,0,26.2615,26.2572A26.29,26.29,0,0,0,1390.2018,964.5658Z"/><path fill="#f7f0f0" d="M1421.4947,1079.6057c-26.569,129.8386-238.4977-88.7784-75.2457-60.7086C1385.917,1025.7177,1418.7256,1081.9744,1421.4947,1079.6057Z"/><path fill="none" stroke="#1f4454" stroke-linecap="round" stroke-linejoin="round" stroke-width="5.653" d="M1202.5139,1663.8472c85.3143,38.923,94.0681-73.086,94.0681-73.086"/><path fill="none" stroke="#f28c38" stroke-linecap="round" stroke-linejoin="round" stroke-width="5.653" d="M1127.8186,1337.8123l-6.3884-4.2109"/><path fill="none" stroke="#f28c38" stroke-linecap="round" stroke-linejoin="round" stroke-width="5.653" d="M1626.4147,1212.5433l2.3628,21.1946"/><path fill="none" stroke="#f28c38" stroke-linecap="round" stroke-linejoin="round" stroke-width="5.653" d="M1433.5057,1244.3751a32.8564,32.8564,0,0,1-14.92,16.9227"/><path fill="none" stroke="#1f4454" stroke-linecap="round" stroke-linejoin="round" stroke-width="5.653" d="M977.222,2077.4885a204.5844,204.5844,0,0,0,44.5457,9.2314"/><path fill="none" stroke="#1f4454" stroke-linecap="round" stroke-linejoin="round" stroke-width="5.653" d="M1418.668,2029.6166l44.6575-11.05"/><path fill="none" stroke="#1f4454" stroke-linecap="round" stroke-linejoin="round" stroke-width="5.653" d="M1471.58,2261.3069A329.07,329.07,0,0,1,1391.126,2335.1"/><path fill="none" stroke="#eb8176" stroke-linecap="round" stroke-linejoin="round" stroke-width="5.653" d="M1802.4881,1028.5169l-3.99,3.169"/><path fill="#60272b" d="M749.3,2637.1812c19.4192-1.5907,44.2434-14.5813,52.8525-15.1115s-27.3507,58.06-27.3507,58.06Z"/><g clip-path="url(#Z)"><path fill="#262833" d="M784.4976,2622.0661c-10.3144,12.216,11.0383,25.0192-5.0867,25.5783s-27.9365-23.2016-27.9365-23.2016"/></g><path fill="#f4ab37" d="M672.8915,2636.99c9.7581,24.61-2.5675,49.2193-22.8591,70.0429s-18.2254,55.845-18.2254,55.845l172.1861,15.6177,78.6194-4.0641,5.0562-14.8664c17.9427-54.9785-80.56-1.8931-94.8994-35.0215s2.3724-97.4921-31.9888-93.706S672.8915,2636.99,672.8915,2636.99Z"/><g clip-path="url(#aa)"><path fill="#f28c38" d="M632.9609,2718.3523c-20.3937,42.5045,146.8749,42.1449,138.5679,48.8239s-135.13,7.2551-135.13,7.2551l-36.7233-20.7027"/><path fill="#f28c38" d="M656.9757,2633.1105c13.8738,42.4215,71.0779,42.0022,41.7251,43.6794s-36.4717-9.8163-61.7588-15.6,57.67,24.7969,40.6845,23.5531-55.9654-8.372-55.9654-8.372l8.4843-25.9969"/></g><path fill="#60272b" d="M619.9078,2761.9372c-4.7123,5.6729-11.1588,14.9317-8.338,20.3443,0,0,76.4576,7.5722,80.9591,6.31s16.2845-12.3049,16.2845-12.3049l35.9824,2.5241s-1.971,12.3049,9.7858,12.62,131.9933-.9466,138.3569-11.6739-2.3041-20.508-5.27-20.1925-47.883,15.1444-94.3895,9.7808c-40.1342-4.6288-136.8385-10.4323-162.586-11.9358A13.61,13.61,0,0,0,619.9078,2761.9372Z"/><g clip-path="url(#ab)"><path fill="#262833" d="M631.9785,2753.6948c-22.84,20.9991,47.179,32.32,68.4743,33.1589s-65.1595,17.6108-65.1595,17.6108-98.94,10.0634-63.8124-20.9652l35.1273-31.0286"/></g><path fill="#60272b" d="M1350.8666,2634.8956c19.4192-1.5907,44.2434-14.5813,52.8524-15.1116s-27.3506,58.06-27.3506,58.06Z"/><g clip-path="url(#ac)"><path fill="#262833" d="M1386.0645,2619.7805c-10.3143,12.216,11.0384,25.0192-5.0867,25.5782s-27.9364-23.2015-27.9364-23.2015"/></g><path fill="#f4ab37" d="M1274.4584,2634.7042c9.7581,24.61-2.5675,49.2193-22.859,70.0429s-18.2255,55.845-18.2255,55.845L1405.56,2776.21l78.6194-4.0641,5.0562-14.8664c17.9427-54.9785-80.56-1.8931-94.8995-35.0215s2.3724-97.4921-31.9888-93.706S1274.4584,2634.7042,1274.4584,2634.7042Z"/><g clip-path="url(#ad)"><path fill="#f28c38" d="M1234.5279,2716.0666c-20.3937,42.5046,146.8749,42.145,138.5679,48.824s-135.13,7.2551-135.13,7.2551l-36.7233-20.7027"/><path fill="#f28c38" d="M1258.5427,2630.8249c13.8738,42.4215,71.0778,42.0022,41.7251,43.6794s-36.4717-9.8163-61.7588-15.6,57.67,24.7969,40.6845,23.5531-55.9655-8.372-55.9655-8.372l8.4843-25.9969"/></g><path fill="#60272b" d="M1221.4748,2759.6516c-4.7124,5.6729-11.1588,14.9316-8.338,20.3443,0,0,76.4576,7.5722,80.959,6.31s16.2845-12.3049,16.2845-12.3049l35.9825,2.5241s-1.971,12.3048,9.7858,12.62,131.9932-.9466,138.3569-11.6739-2.3041-20.508-5.27-20.1925-47.883,15.1444-94.39,9.7807c-40.1341-4.6287-136.8384-10.4322-162.5859-11.9357A13.61,13.61,0,0,0,1221.4748,2759.6516Z"/><g clip-path="url(#ae)"><path fill="#262833" d="M1233.5455,2751.4091c-22.84,20.9992,47.1789,32.32,68.4743,33.159s-65.1595,17.6108-65.1595,17.6108-98.94,10.0634-63.8125-20.9652l35.1273-31.0286"/></g><path fill="none" stroke="#f28c38" stroke-linecap="round" stroke-linejoin="round" stroke-width="5.653" d="M1659.1733,1217.3865a222.7652,222.7652,0,0,1-23.8741,25.4657"/><path fill="none" stroke="#f28c38" stroke-linecap="round" stroke-linejoin="round" stroke-width="5.653" d="M1200.8368,1118.6863a41.8981,41.8981,0,0,0,12.5916,16.0593"/><path fill="none" stroke="#f28c38" stroke-linecap="round" stroke-linejoin="round" stroke-width="5.653" d="M1073.3935,1500.0031a71.01,71.01,0,0,0,47.5885-13.9379"/></svg>