<svg xmlns="http://www.w3.org/2000/svg" viewBox="0 0 550 500"><g data-name="Layer 1"><path fill="#346ee3" d="M61.39,289.34l181.22-92.11c7.43-3.72,17.28-5.77,27.73-5.77s20.29,2,27.73,5.77l190.67,95.26c6.13,3.07,7.05,7.17,7.05,9.35s-.92,6.27-7.05,9.34L314.19,400c-9.29,4.65-21.62,7.21-34.71,7.21s-25.4-2.56-34.69-7.21L61.39,308.32c-6.25-3.12-7.18-7.28-7.18-9.49S55.14,292.46,61.39,289.34Z"/><path d="M488.74,302.93,298.07,207.67c-7.44-3.72-17.29-5.76-27.73-5.76s-20.3,2-27.73,5.76L61.39,299.78A14.55,14.55,0,0,0,56,304.05a14.45,14.45,0,0,0,5.38,4.27L244.79,400c9.29,4.65,21.61,7.21,34.69,7.21s25.42-2.56,34.71-7.21l174.55-88.77a14.34,14.34,0,0,0,5.22-4.12A14.35,14.35,0,0,0,488.74,302.93Z" style="mix-blend-mode:screen" fill="#f4f4f4" opacity=".95"/><path fill="#224dab" d="M404.72,155a38.8,38.8,0,0,0-.28-4.4l6.87,1a58.46,58.46,0,0,0-2-8.67l-7.16-2.26a61.64,61.64,0,0,0-4.26-9.48l4.74-3.16a88.87,88.87,0,0,0-5.59-8.41l-5.55,2a68.28,68.28,0,0,0-7.36-7.94l1.34-6.48a73,73,0,0,0-7.65-5.87L375.35,107q-2.09-1.31-4.24-2.39a44,44,0,0,0-4.25-1.86l-2.42-8.07a40.27,40.27,0,0,0-7.65-1.79s-3.77,7.82-6,8.4l-5.55-7.51c-2,.67-11.17,6.32-11.17,6.32s3.73,8,6.06,9.61l-7.16-4.9a27.29,27.29,0,0,0-2,6.64l6.86,5.85a30.08,30.08,0,0,0-.27,4.11,36.54,36.54,0,0,0,.27,4.39l-6.86-1a57.63,57.63,0,0,0,2,8.66l7.16,2.25a60.73,60.73,0,0,0,4.25,9.48l-4.73,3.17a88.09,88.09,0,0,0,5.59,8.4l5.55-2a70,70,0,0,0,7.35,7.93l-1.33,6.49a73,73,0,0,0,7.65,5.87l2.42-5.65c1.4.87,2.8,1.67,4.25,2.4s2.85,1.33,4.24,1.85l2.43,8.07a39.52,39.52,0,0,0,7.65,1.79l-1.34-7.83a21.75,21.75,0,0,0,7.36-.58l5,7.33a24.44,24.44,0,0,0,6.15-2.61l-4.74-7.92,2.86.88,8.56-1.19a27.58,27.58,0,0,0,2-6.62l-6.87-5.86A31.56,31.56,0,0,0,404.72,155Zm-33.61-1c-8.72-4.36-15.8-15-15.8-23.7s7.08-12.26,15.8-7.9,15.8,15,15.8,23.71S379.84,158.35,371.11,154Z"/><polygon fill="#224dab" points="332.95 104.79 321.78 111.11 330.92 124.77 319.74 131.09 332.95 138.19 353.26 181.37 364.44 175.05 332.95 104.79"/><polygon fill="#224dab" points="391.42 186.14 402.59 179.82 391.99 171.01 383.36 175.03 391.42 186.14"/><path fill="#295cc2" d="M398.09,177.92l11.18-6.33c1.09-1.35,2-6.62,2-6.62l-11.18,6.33Z"/><path fill="#295cc2" d="M400.13,158l11.18-6.32a19.66,19.66,0,0,0-2-8.67l-11.18,6.32Z"/><path fill="#295cc2" d="M391.41,134.34,402.59,128a20.66,20.66,0,0,0-5.59-8.37L385.82,126Z"/><path fill="#295cc2" d="M374.26,113.52l11.17-6.32c-2.27-3.45-7.65-5.87-7.65-5.87l-11.17,6.33Z"/><path fill="#295cc2" d="M353.26,101l11.18-6.32c-2.6-2.19-7.65-1.79-7.65-1.79L345.61,99.2Z"/><polygon fill="#295cc2" points="328.45 102.9 340.06 95.77 345.22 93.76 334.05 100.08 328.45 102.9"/><polygon fill="#224dab" points="385.43 183.51 374.26 189.83 369.76 179.05 380.62 175.03 385.43 183.51"/><path fill="#ffcc4d" d="M393.54,161.33a38.45,38.45,0,0,0-.27-4.39l6.86,1a57.52,57.52,0,0,0-2-8.67L390.94,147a61.7,61.7,0,0,0-4.27-9.48l4.75-3.15a84.69,84.69,0,0,0-5.6-8.41l-5.55,2a68.28,68.28,0,0,0-7.36-7.94l1.35-6.48a72.88,72.88,0,0,0-7.65-5.86l-2.43,5.64c-1.39-.86-2.81-1.67-4.24-2.39a44.12,44.12,0,0,0-4.26-1.86L353.26,101a39.47,39.47,0,0,0-7.65-1.78l1.33,7.81a22.29,22.29,0,0,0-7.35.59l-5.54-7.52a20.75,20.75,0,0,0-5.6,2.82l4.74,7.9a17,17,0,0,0-4.26,5.21l-7.15-4.9a27.3,27.3,0,0,0-2,6.64l6.87,5.85a30.08,30.08,0,0,0-.28,4.12,36.42,36.42,0,0,0,.28,4.38l-6.87-1a57.68,57.68,0,0,0,2,8.66l7.15,2.26a62.07,62.07,0,0,0,4.26,9.47l-4.74,3.17a88.83,88.83,0,0,0,5.6,8.4l5.54-2a70.11,70.11,0,0,0,7.35,7.94l-1.33,6.49a74.27,74.27,0,0,0,7.65,5.86l2.42-5.65c1.4.88,2.81,1.67,4.26,2.4a42.65,42.65,0,0,0,4.24,1.85l2.43,8.07a38.8,38.8,0,0,0,7.65,1.79L372.91,182a21.5,21.5,0,0,0,7.36-.57l5.55,7.51a21.13,21.13,0,0,0,5.6-2.8l-4.75-7.91a16.8,16.8,0,0,0,4.27-5.21l7.15,4.9a27.41,27.41,0,0,0,2-6.62l-6.86-5.87A31.49,31.49,0,0,0,393.54,161.33Zm-33.6-1c-8.73-4.36-15.8-15-15.8-23.69s7.07-12.27,15.8-7.9,15.8,15,15.8,23.7S368.66,164.68,359.94,160.31Z"/><path fill="#9dc9fc" d="M237.44,289l-63.35,31.69a5.23,5.23,0,0,1-4.14,0l-36.17-18.09c-1.14-.57-1.14-1.5,0-2.07l63.36-31.68a5.23,5.23,0,0,1,4.14,0l36.16,18.08C238.59,287.48,238.59,288.41,237.44,289Z"/><ellipse cx="219.64" cy="289.53" fill="#fff" rx="7.08" ry="3.54"/><ellipse cx="213.79" cy="292.45" fill="#ffcc4d" rx="7.08" ry="3.54"/><path fill="#fff" d="M164.34,293.62l-18.5,9.25a6,6,0,0,1-4.74,0h0c-1.31-.66-1.31-1.72,0-2.37l18.5-9.25a5.92,5.92,0,0,1,4.74,0h0C165.65,291.9,165.65,293,164.34,293.62Z"/><path fill="#fff" d="M202.06,300.69l-30.29,15.15a6,6,0,0,1-4.74,0h0c-1.31-.66-1.31-1.72,0-2.37l30.29-15.15a5.92,5.92,0,0,1,4.74,0h0C203.37,299,203.37,300,202.06,300.69Z"/><path fill="#fff" d="M201.85,274.94l-29.62,14.81a6.16,6.16,0,0,1-4.91,0h0c-1.35-.67-1.35-1.77,0-2.45l29.62-14.81a6.16,6.16,0,0,1,4.91,0h0C203.21,273.16,203.21,274.26,201.85,274.94Z"/><polygon fill="#295cc2" points="219.36 277.87 151.87 311.63 144.15 307.77 211.64 274.01 219.36 277.87"/><polygon fill="#9dc9fc" points="217.69 204.12 206.33 209.81 194.6 203.93 205.97 198.24 217.69 204.12"/><polygon fill="#fff" points="217.69 245.16 206.33 250.84 206.33 209.81 217.69 204.12 217.69 245.16"/><polygon fill="#295cc2" points="206.33 250.84 194.6 244.96 194.6 203.93 206.33 209.81 206.33 250.84"/><polygon fill="#9dc9fc" points="200.46 189.11 189.1 194.8 177.37 188.92 188.74 183.23 200.46 189.11"/><polygon fill="#fff" points="200.46 253.86 189.1 259.55 189.1 194.8 200.46 189.11 200.46 253.86"/><polygon fill="#295cc2" points="189.1 259.55 177.37 253.66 177.37 188.92 189.1 194.8 189.1 259.55"/><polygon fill="#9dc9fc" points="183.23 207.47 171.87 213.16 160.14 207.28 171.51 201.59 183.23 207.47"/><polygon fill="#fff" points="183.23 262.8 171.87 268.48 171.87 213.16 183.23 207.47 183.23 262.8"/><polygon fill="#295cc2" points="171.87 268.48 160.14 262.6 160.14 207.28 171.87 213.16 171.87 268.48"/><polygon fill="#9dc9fc" points="166 237.05 154.63 242.74 142.91 236.86 154.28 231.17 166 237.05"/><polygon fill="#fff" points="166 271.52 154.63 277.21 154.63 242.74 166 237.05 166 271.52"/><polygon fill="#295cc2" points="154.63 277.21 142.91 271.32 142.91 236.86 154.63 242.74 154.63 277.21"/><path fill="#295cc2" d="M346.2,143.5l-60-30a4.41,4.41,0,0,0-3.67-.39L274.71,117l6,135.84c0,3,2.43,6.64,5.43,8.14l56.73,33.89,7-3.48a3.12,3.12,0,0,0,1.73-3.1V151.65C351.63,148.65,349.2,145,346.2,143.5Z"/><path fill="#9dc9fc" d="M338.85,147.16l-60-30c-3-1.5-5.43-.29-5.43,2.71V256.46c0,3,2.43,6.65,5.43,8.15l60,30c3,1.5,5.43.28,5.43-2.72V155.3C344.28,152.3,341.85,148.66,338.85,147.16Z"/><path fill="#eef5fa" d="M276,255.16v-127c0-3,2.43-4.21,5.43-2.71l54.81,27.41c3,1.5,5.43,5.14,5.43,8.14V288c0,3-2.43,4.21-5.43,2.71L281.43,263.3C278.43,261.8,276,258.15,276,255.16Z"/><path fill="#295cc2" d="M313,138.79l-8.3-4.15a1.44,1.44,0,0,1-.78-1.17h0c0-.43.34-.6.78-.39l8.3,4.15a1.48,1.48,0,0,1,.78,1.17h0C313.77,138.83,313.42,139,313,138.79Z"/><path fill="#fff" d="M281.43,125.47c-3-1.5-5.43-.29-5.43,2.71V178c1.79-4.07,7.31-9.89,16.22-13.07,11.64-4.15,20.19-9.9,23.13-22.52Z"/><path fill="#fff" d="M281.43,263.3l54.81,27.41c3,1.5,5.43.28,5.43-2.71V168s-3.42,21.33-32.45,32.6C283.62,210.5,276,226.19,276,250.28v4.88C276,258.15,278.43,261.8,281.43,263.3Z"/><path fill="#346ee3" d="M348.71,171.33h-.86a.71.71,0,0,0-.51.22,2,2,0,0,0-.41,1.44v12.75a.69.69,0,0,0,.75.73h.65a9.72,9.72,0,0,0,.62-2.11Z"/><path fill="#9dc9fc" d="M348.52,171.4a1.55,1.55,0,0,0-.58,1.18V186.1c0,.44.48.45.8.24a.86.86,0,0,0,.46-.83V172C349.2,171.54,348.84,171.18,348.52,171.4Z"/><path fill="#346ee3" d="M348.71,188.2h-.86a.69.69,0,0,0-.51.23,2,2,0,0,0-.41,1.43v12.75a.69.69,0,0,0,.75.73h.65a9.72,9.72,0,0,0,.62-2.11Z"/><path fill="#9dc9fc" d="M348.52,188.27a1.55,1.55,0,0,0-.58,1.18V203c0,.43.48.45.8.23a.86.86,0,0,0,.46-.83V188.85C349.2,188.41,348.84,188.05,348.52,188.27Z"/><polygon fill="#9dc9fc" points="295.57 264.99 279.66 257.04 279.66 253.22 295.57 261.17 295.57 264.99"/><polygon fill="#9dc9fc" points="316.98 275.7 301.08 267.75 301.08 263.93 316.98 271.88 316.98 275.7"/><polygon fill="#9dc9fc" points="338.4 286.42 322.5 278.46 322.5 274.64 338.4 282.59 338.4 286.42"/><path fill="#9dc9fc" d="M306,254.35c-11.79-10.16-19.4-23.77-19.4-34.66V196.61a1.85,1.85,0,0,1,2.22-1.82l18.33,3.73a1.92,1.92,0,0,1,.79.37l19.95,15.89a1.84,1.84,0,0,1,.69,1.45v24.46c0,10.89-7.62,16.88-19.41,15.24l-1-.14a2,2,0,0,1-1-.43Z"/><path fill="#346ee3" d="M307.58,250.76h0c-9.93-8.56-16.33-19.83-16.33-28.74v-19.6a1.85,1.85,0,0,1,2.22-1.82l13.67,2.78a1.92,1.92,0,0,1,.79.37l15.28,12.18a1.82,1.82,0,0,1,.7,1.45v21C323.91,247.27,317.51,252.13,307.58,250.76Z"/><path fill="#ffcc4d" d="M306.16,225.8c.79.4,1.42.08,1.42-.7v-7.67a2.65,2.65,0,0,0-1.42-2.13c-.78-.39-1.41-.07-1.41.71v7.67A2.66,2.66,0,0,0,306.16,225.8Z"/><path fill="#ffcc4d" d="M310.91,220.28c-.67-.75-1.54-1-2-.51s-.2,1.44.47,2.18a10.85,10.85,0,0,1,3,6.83c0,3.45-2.81,4.86-6.26,3.13s-6.26-5.94-6.26-9.39c0-2.14,1.09-3.57,2.91-3.83.66-.09.85-.86.43-1.74a2.26,2.26,0,0,0-2-1.41c-2.63.37-4.21,2.45-4.21,5.56,0,5,4.08,11.14,9.09,13.64s9.1.47,9.1-4.54C315.26,227,313.63,223.31,310.91,220.28Z"/><path fill="#346ee3" d="M288.16,155.46l-.54-.27a1.7,1.7,0,0,0,1.36-1.87,5.79,5.79,0,0,0-3.07-4.62c-1.7-.85-3.08-.16-3.08,1.54a5.27,5.27,0,0,0,1.37,3.24l-.55-.27c-1.09-.55-2-.11-2,1v3.64l8.47,4.24v-3.64A3.72,3.72,0,0,0,288.16,155.46Z"/><path fill="#346ee3" d="M332.24,183.2l-31.91-16a7.9,7.9,0,0,1-4.19-6.29h0c0-2.32,1.88-3.26,4.19-2.1l31.91,16a7.87,7.87,0,0,1,4.19,6.29h0C336.43,183.42,334.56,184.36,332.24,183.2Z"/><path fill="#346ee3" d="M332.24,197.49l-31.91-16a7.91,7.91,0,0,1-4.19-6.29h0c0-2.32,1.88-3.26,4.19-2.1l31.91,15.95a7.89,7.89,0,0,1,4.19,6.3h0C336.43,197.71,334.56,198.65,332.24,197.49Z"/><path fill="#fff" d="M303.93,164.69c0,.78-.64,1.1-1.42.71a2.7,2.7,0,0,1-1.42-2.13c0-.78.64-1.1,1.42-.71A2.67,2.67,0,0,1,303.93,164.69Z"/><path fill="#fff" d="M310.31,167.88c0,.78-.64,1.1-1.42.71a2.7,2.7,0,0,1-1.42-2.13c0-.78.64-1.1,1.42-.71A2.67,2.67,0,0,1,310.31,167.88Z"/><path fill="#fff" d="M316.69,171.07c0,.78-.64,1.1-1.42.71a2.68,2.68,0,0,1-1.42-2.13c0-.78.64-1.1,1.42-.71A2.68,2.68,0,0,1,316.69,171.07Z"/><path fill="#fff" d="M323.07,174.26c0,.78-.64,1.1-1.42.71a2.68,2.68,0,0,1-1.42-2.13c0-.78.64-1.1,1.42-.71A2.68,2.68,0,0,1,323.07,174.26Z"/><path fill="#fff" d="M303.93,179.14c0,.78-.64,1.1-1.42.71a2.67,2.67,0,0,1-1.42-2.13c0-.78.64-1.1,1.42-.71A2.7,2.7,0,0,1,303.93,179.14Z"/><path fill="#fff" d="M310.31,182.33c0,.78-.64,1.1-1.42.71a2.67,2.67,0,0,1-1.42-2.13c0-.78.64-1.1,1.42-.71A2.7,2.7,0,0,1,310.31,182.33Z"/><path fill="#fff" d="M316.69,185.52c0,.78-.64,1.1-1.42.71a2.67,2.67,0,0,1-1.42-2.13c0-.78.64-1.1,1.42-.71A2.7,2.7,0,0,1,316.69,185.52Z"/><path fill="#fff" d="M323.07,188.71c0,.79-.64,1.1-1.42.71a2.67,2.67,0,0,1-1.42-2.13c0-.78.64-1.1,1.42-.7A2.67,2.67,0,0,1,323.07,188.71Z"/><path fill="#346ee3" d="M289.42,168.64l-1.11-.55v-1.38a4.57,4.57,0,0,0-2.43-3.64c-1.34-.67-2.43-.13-2.43,1.21v1.38l-1.11-.56c-.61-.3-1.1-.06-1.1.56v5.22a2.09,2.09,0,0,0,1.1,1.66l7.08,3.54c.61.3,1.1,0,1.1-.56V170.3A2.07,2.07,0,0,0,289.42,168.64Zm-4.3,3,.3-1.44a.92.92,0,0,1-.16-.48c0-.34.28-.48.62-.31a1.17,1.17,0,0,1,.62.93.34.34,0,0,1-.16.32l.3,1.75Zm2.37-3.95-3.22-1.61v-1.38c0-.88.72-1.24,1.61-.8a3,3,0,0,1,1.61,2.41Z"/><path fill="#295cc2" d="M226.73,324.47a9.85,9.85,0,0,0-3.58-2.82c-6.05-3-16.72-5.29-22.77-2.27a7,7,0,0,0-3.58,4,7.33,7.33,0,0,0,.92,6.56L181,338.27l-5.36.1V341l-2.93,1.46-5.38.1v2.76h0c-.07.23.11.44.56.51l11.58,1.75a2.1,2.1,0,0,0,1.19-.18l3.7-1.85c.28-.14.4-.32.39-.48h0v-2.84l-1.34,0,1.11-.56a2,2,0,0,1,1.56-.07l2.36,1.18a2,2,0,0,0,1.55-.07l2.66-1.33c.27-.14.39-.3.39-.46h0V338l-1.36,0,4.65-2.32a2,2,0,0,1,1.55-.08l2.36,1.19a2,2,0,0,0,1.56-.08l4.79-2.4c5.53,1.06,12,.48,16.49-1.75,2.95-1.47,4.45-3.39,4.53-5.33h0v-2.85Zm-10.6,4.64a10,10,0,0,1-7.88,0c-2.17-1.09-2.17-2.86,0-3.94a9.9,9.9,0,0,1,7.88,0C218.3,326.25,218.3,328,216.13,329.11Z"/><path fill="#ffcc4d" d="M223.15,329.74c6.06-3,6.06-7.93,0-11s-15.87-3-21.92,0c-4.46,2.23-5.62,5.48-3.51,8.25l-30,15c-.61.31-.5.78.21.88l11.58,1.75a2.1,2.1,0,0,0,1.19-.18l3.7-1.85c.47-.23.54-.58.15-.77l-2.36-1.19c-.39-.19-.32-.54.15-.77l2.23-1.12a2,2,0,0,1,1.56-.08l2.36,1.19a2,2,0,0,0,1.55-.08l2.66-1.33c.48-.23.54-.58.15-.78l-2.36-1.18c-.39-.19-.32-.54.15-.78l5.75-2.87a2,2,0,0,1,1.55-.07l2.36,1.18a2,2,0,0,0,1.56-.08l4.79-2.39C212.19,332.55,218.69,332,223.15,329.74Zm-7-7.45c2.17,1.09,2.17,2.85,0,3.94a9.9,9.9,0,0,1-7.88,0c-2.17-1.09-2.17-2.85,0-3.94A9.9,9.9,0,0,1,216.13,322.29Z"/><path fill="#ed996f" d="M241.72,251.75c.87,3.36,1.38,3.75,3.1,4.62s4.84-.89,4.84-.89l-5.75-6.21Z"/><path fill="#ffcc4d" d="M238.61,212.53c-5.44,11.4-9.79,22.84-9.13,24.65s11.21,15.31,12.05,15.77,3.62-2.19,3.26-3.32-6.74-13.2-7-13.58,5.48-13.88,5.48-13.88Z"/><path fill="#ffcc4d" d="M245.42,349.34c.6.51.65,2.75,1.81,3,3.16.59,12,.12,10.47,2.43-1.88,2.84-14.3,5.14-16.8,3.94-2-.94-.68-7.73-.68-7.73Z"/><path fill="#ffcc4d" d="M289.85,363.34c1.52-2.3-7.3-1.83-10.46-2.42-1.17-.22-1.22-2.46-1.82-3l-5.19,1.6s-1.28,6.79.67,7.73C275.55,368.49,288,366.19,289.85,363.34Z"/><path fill="#224dab" d="M243.55,256.2c-6.3,7.52-.86,22.05-.86,22.05l-1.43,37s-3.63,37.48-2.39,38.59,7.38.46,8.36-1.52,5.25-31.8,5.37-32.91,8.11-50.45,8.11-50.45Z"/><path fill="#295cc2" d="M243.71,256.09c-7.47,15.69,6.65,24.4,6.94,25,5.41,10.83,13,39.46,13,39.46s6.84,41.3,8.31,42c1.13.57,7.38-1.65,7.16-3.57-.25-2.19-3.76-42-4.32-42.93S261,260.55,261,260.55Z"/><path fill="#f9c050" d="M239.66,211.34c6.14-4.07,16.27,7.93,17.84,11.77,3.2,7.83,3.55,10,3.79,21.2s.45,18.91-1,20c-3.14,2.34-10.55.3-16.77-8.07a80.22,80.22,0,0,0-3.64-20.7C236.45,224.79,236.36,213.53,239.66,211.34Z"/><path fill="#ed996f" d="M253.74,190c2.69,7,5.58,17.54,1.45,17.33s-5.7-2.17-5.7-2.17v11.11a1.39,1.39,0,0,1-2,1.27,14,14,0,0,1-5.8-4.66l.78-12.35,3.44-7.54Z"/><path fill="#d6d9e8" d="M242,208.26c2.86.83,5.34-5.47,5.34-5.47s-2.81-6.24-.63-6.21,2.15,1.47,2.15,1.47,3.74-7.12,4.87-8.05,5.92-4.77,3.52-8c-3.72-5.06-8.39-.62-8.39-.62s-12.56-1.24-14.62,6.5S242,208.26,242,208.26Z"/><path fill="#ffcc4d" d="M242,208.26c2.86.83,5.34-5.47,5.34-5.47s-2.81-6.24-.63-6.21,2.15,1.47,2.15,1.47,3.74-7.12,4.87-8.05,5.92-4.77,3.52-8c-3.72-5.06-8.39-.62-8.39-.62s-12.56-1.24-14.62,6.5S242,208.26,242,208.26Z"/><path fill="#ed996f" d="M293.23,208.55c.79-.5,4.16-1.63,5.51-1.33,3.18.7-2.05,3.14-3.28,5.48a8.21,8.21,0,0,1-4.41,3.9c-3.4,4.7-3.25-1.28-1.62-2.46C291.16,210,292.39,209.09,293.23,208.55Z"/><path fill="#ffcc4d" d="M292.71,215.65c-.74-1.37-1.33-1.88-2.45-2a2,2,0,0,0-1.57.63c-4.63,3.88-13.11,10.24-13.11,10.24s-20.93-4.59-24.07-3.3-4.19,6.49.88,9.14,24.2,1.77,27.47-.3c4.44-2.81,10.33-10.06,12.63-13.08A1.12,1.12,0,0,0,292.71,215.65Z"/><polygon fill="#6a9ce6" points="367.6 311.59 317.84 336.53 317.84 361.66 367.6 336.73 367.6 311.59"/><polygon fill="#70a5f2" points="317.84 336.53 294.76 325.01 294.76 350.15 317.84 361.66 317.84 336.53"/><polygon fill="#9dc9fc" points="344.52 300.07 294.76 325.01 317.84 336.53 367.6 311.59 344.52 300.07"/><path fill="#70a5f2" d="M359.33,309.62l-10.85-5.42A3.35,3.35,0,0,0,347,303c-1.69-.84-4-1.06-5.13-.49a.89.89,0,0,0-.48,1.34l-39.18,19.63a4.8,4.8,0,0,0-2.67.24c-1.14.57-.69,1.72,1,2.56A8,8,0,0,0,303,327l10.85,5.42a3.35,3.35,0,0,0,1.48,1.24c1.69.85,4,1.07,5.14.49a.88.88,0,0,0,.47-1.33l3.48-1.75,1.1.55,32.22-16.14-1.1-.55,3.48-1.74a5,5,0,0,0,2.67-.24c1.14-.58.7-1.73-1-2.57A8,8,0,0,0,359.33,309.62Zm-3.24,5-1.39-.69-11.64,5.83c-.34-1.46-1.85-3-4.43-4.31-4.94-2.46-11.88-3-15.51-1.17s-2.56,5.29,2.37,7.75a22.84,22.84,0,0,0,8.63,2.21l-11.64,5.83,1.39.7-3.22,1.61a4.2,4.2,0,0,0-1.15-.81c-1.69-.85-4-1.07-5.14-.5a1.05,1.05,0,0,0-.6.7L304.29,327a3.61,3.61,0,0,0,1.38-.3c1.14-.58.7-1.72-1-2.57a8.31,8.31,0,0,0-1.63-.58l38.66-19.37a4.2,4.2,0,0,0,1.15.81c1.7.85,4,1.07,5.14.5a1,1,0,0,0,.6-.69l9.47,4.72a3.6,3.6,0,0,0-1.38.31c-1.14.57-.7,1.72,1,2.56a8,8,0,0,0,1.62.58Z"/><polygon fill="#6a9ce6" points="416.96 318.43 367.19 343.37 367.19 361.19 416.96 336.25 416.96 318.43"/><polygon fill="#70a5f2" points="367.19 343.37 344.12 331.85 344.12 349.67 367.19 361.19 367.19 343.37"/><polygon fill="#9dc9fc" points="393.88 306.91 344.12 331.85 367.19 343.37 416.96 318.43 393.88 306.91"/><path fill="#70a5f2" d="M408.69,316.46,397.84,311a3.35,3.35,0,0,0-1.48-1.24c-1.69-.84-4-1.07-5.13-.49a.88.88,0,0,0-.48,1.33l-39.18,19.63a4.89,4.89,0,0,0-2.67.25c-1.14.57-.7,1.72,1,2.56a8,8,0,0,0,2.49.74l10.85,5.42a3.35,3.35,0,0,0,1.48,1.24c1.69.84,4,1.07,5.13.49a.88.88,0,0,0,.48-1.33l3.48-1.75,1.1.55,32.22-16.14-1.1-.55,3.48-1.74a4.89,4.89,0,0,0,2.67-.25c1.14-.57.69-1.72-1-2.56A8,8,0,0,0,408.69,316.46Zm-3.24,5-1.39-.69-11.64,5.83c-.34-1.46-1.85-3-4.44-4.31-4.93-2.47-11.87-3-15.5-1.17s-2.57,5.29,2.37,7.75a22.84,22.84,0,0,0,8.63,2.21l-11.64,5.83,1.39.7L370,339.22a4.2,4.2,0,0,0-1.15-.81c-1.7-.85-4-1.07-5.14-.5a1,1,0,0,0-.6.69l-9.47-4.72a3.61,3.61,0,0,0,1.38-.3c1.14-.58.7-1.73-1-2.57a8,8,0,0,0-1.62-.58l38.66-19.37a4.2,4.2,0,0,0,1.15.81c1.7.85,4,1.07,5.14.5a1,1,0,0,0,.6-.69l9.47,4.72a3.61,3.61,0,0,0-1.38.3c-1.14.58-.7,1.73,1,2.57a8,8,0,0,0,1.62.58Z"/><path fill="#f9c050" d="M332.93,359.06c0,2.72,2.08,5.44,6.23,7.51,8.3,4.15,21.76,4.15,30.06,0,4.15-2.07,6.23-4.79,6.23-7.51v-2.87H332.93Z"/><path fill="#ffcc4d" d="M369.22,348.67c-8.3-4.15-21.76-4.15-30.06,0s-8.3,10.88,0,15,21.76,4.16,30.06,0S377.52,352.82,369.22,348.67Zm-2,13.8c-7.2,3.6-18.88,3.6-26.08,0s-7.2-9.44,0-13,18.88-3.61,26.08,0S374.43,358.87,367.23,362.47Z"/><path fill="#f9c050" d="M332.93,355.56c0,2.72,2.08,5.44,6.23,7.52,8.3,4.15,21.76,4.15,30.06,0,4.15-2.08,6.23-4.8,6.23-7.52v-2.87H332.93Z"/><path fill="#ffcc4d" d="M369.22,345.17c-8.3-4.15-21.76-4.15-30.06,0s-8.3,10.89,0,15,21.76,4.15,30.06,0S377.52,349.33,369.22,345.17Zm-2,13.8c-7.2,3.6-18.88,3.6-26.08,0s-7.2-9.44,0-13,18.88-3.6,26.08,0S374.43,355.37,367.23,359Z"/><path fill="#f9c050" d="M332.93,352.06c0,2.73,2.08,5.45,6.23,7.52,8.3,4.15,21.76,4.15,30.06,0,4.15-2.07,6.23-4.79,6.23-7.52V349.2H332.93Z"/><path fill="#ffcc4d" d="M369.22,341.68c-8.3-4.15-21.76-4.15-30.06,0s-8.3,10.88,0,15,21.76,4.15,30.06,0S377.52,345.83,369.22,341.68Zm-2,13.8c-7.2,3.6-18.88,3.6-26.08,0s-7.2-9.44,0-13,18.88-3.61,26.08,0S374.43,351.88,367.23,355.48Z"/><path fill="#f9c050" d="M332.93,348.57c0,2.72,2.08,5.44,6.23,7.52,8.3,4.15,21.76,4.15,30.06,0,4.15-2.08,6.23-4.8,6.23-7.52V345.7H332.93Z"/><path fill="#ffcc4d" d="M369.22,338.18c-8.3-4.15-21.76-4.15-30.06,0s-8.3,10.89,0,15,21.76,4.15,30.06,0S377.52,342.33,369.22,338.18Zm-2,13.8c-7.2,3.6-18.88,3.6-26.08,0s-7.2-9.44,0-13,18.88-3.6,26.08,0S374.43,348.38,367.23,352Z"/><path fill="#f9c050" d="M332.93,345.07c0,2.72,2.08,5.45,6.23,7.52,8.3,4.15,21.76,4.15,30.06,0,4.15-2.07,6.23-4.8,6.23-7.52V342.2H332.93Z"/><path fill="#ffcc4d" d="M369.22,334.69c-8.3-4.15-21.76-4.15-30.06,0s-8.3,10.88,0,15,21.76,4.15,30.06,0S377.52,338.84,369.22,334.69Zm-2,13.8c-7.2,3.6-18.88,3.6-26.08,0s-7.2-9.44,0-13.05,18.88-3.6,26.08,0S374.43,344.89,367.23,348.49Z"/><path fill="#f9c050" d="M332.93,341.58c0,2.72,2.08,5.44,6.23,7.52,8.3,4.15,21.76,4.15,30.06,0,4.15-2.08,6.23-4.8,6.23-7.52v-2.87H332.93Z"/><path fill="#ffcc4d" d="M369.22,331.19c-8.3-4.15-21.76-4.15-30.06,0s-8.3,10.88,0,15,21.76,4.15,30.06,0S377.52,335.34,369.22,331.19Zm-2,13.8c-7.2,3.6-18.88,3.6-26.08,0s-7.2-9.44,0-13,18.88-3.6,26.08,0S374.43,341.39,367.23,345Z"/><path fill="#f9c050" d="M332.93,338.08c0,2.72,2.08,5.44,6.23,7.52,8.3,4.15,21.76,4.15,30.06,0,4.15-2.08,6.23-4.8,6.23-7.52v-2.87H332.93Z"/><path fill="#ffcc4d" d="M367.23,328.45c-7.2-3.6-18.88-3.6-26.08,0s-7.2,9.44,0,13.05,18.88,3.6,26.08,0S374.43,332.05,367.23,328.45Z"/><path fill="#f9c050" d="M367.89,328.36c-7.57-3.78-19.83-3.78-27.4,0s-7.56,9.92,0,13.7,19.83,3.78,27.4,0S375.45,332.15,367.89,328.36Zm-1.82,12.58c-6.56,3.28-17.2,3.28-23.76,0s-6.56-8.6,0-11.89,17.2-3.28,23.76,0S372.63,337.66,366.07,340.94Z"/><path fill="#ffcc4d" d="M369.22,327.7c-8.3-4.16-21.76-4.16-30.06,0s-8.3,10.88,0,15,21.76,4.15,30.06,0S377.52,331.85,369.22,327.7Zm-2,13.8c-7.2,3.6-18.88,3.6-26.08,0s-7.2-9.45,0-13.05,18.88-3.6,26.08,0S374.43,337.89,367.23,341.5Z"/><path fill="#f4b340" d="M361.55,329.71l-2,1a9.56,9.56,0,0,0-3.77-1.14,9.46,9.46,0,0,0-4,1v-.06H350.1v1.93a4.89,4.89,0,0,0,1.56,2.5,1.87,1.87,0,0,1,.56,1.09q0,.38-.78.75a3.14,3.14,0,0,1-2.9,0q-.87-.43-.93-.93c-.05-.32.29-.66,1-1l-3.07-1.54-.08,0c-1.39.66-2,1.37-1.91,2.12a2.35,2.35,0,0,0,.77,1.32c.29.28-.75,1.77-.75,1.77l1.49.75,1.88-.94a10.82,10.82,0,0,0,4,.84,7.87,7.87,0,0,0,3.66-.8c1.18-.58,1.74-1.23,1.69-1.92a4.21,4.21,0,0,0-1.53-2.47,2.15,2.15,0,0,1-.52-1.12c0-.24.24-.46.66-.67a3.38,3.38,0,0,1,1.38-.37,2.85,2.85,0,0,1,1.48.34c.49.25.72.51.69.8s-.35.58-1,.89l3.08,1.54h.07c1.16-.56,1.76-1.19,1.82-1.88s-.42-1.38-1.43-2l2-1Z"/><polygon fill="#f4b340" points="361.03 331.45 363.03 330.45 363.03 328.52 361.03 329.52 361.03 331.45"/><polygon fill="#f4b340" points="343.56 335.42 348.62 334.82 348.62 332.88 343.58 333.21 343.56 335.42"/><polygon fill="#f4b340" points="361.03 333.49 362.46 333.49 362.46 331.32 361.03 331.37 361.03 333.49"/><polygon fill="#f4b340" points="354.87 336.56 356.3 336.56 356.3 334.39 354.87 334.44 354.87 336.56"/><polygon fill="#f4b340" points="357.49 333.84 360.64 335.37 360.64 333.44 357.49 331.91 357.49 333.84"/><polygon fill="#f4b340" points="343.58 338.51 345.07 339.26 345.07 337.32 343.58 336.58 343.58 338.51"/><path fill="#fff" d="M361.55,327.78l-2,1a10.72,10.72,0,0,0-4.11-.88,7.93,7.93,0,0,0-3.7.76c-1.19.6-1.74,1.22-1.67,1.88a4.93,4.93,0,0,0,1.56,2.5,1.85,1.85,0,0,1,.56,1.09c0,.25-.28.5-.78.74a3.28,3.28,0,0,1-1.38.35,3.24,3.24,0,0,1-1.52-.37q-.87-.45-.93-.93c-.05-.33.29-.67,1-1l-3.07-1.53-.08,0c-1.39.66-2,1.37-1.91,2.12s.75,1.47,1.9,2.15l-1.88.94,1.49.74,1.88-.94a10.44,10.44,0,0,0,4,.84,7.75,7.75,0,0,0,3.66-.79c1.18-.59,1.74-1.23,1.69-1.93a4.24,4.24,0,0,0-1.53-2.47,2.12,2.12,0,0,1-.52-1.12c0-.24.24-.46.66-.67a3.55,3.55,0,0,1,1.38-.37,3.06,3.06,0,0,1,1.48.34c.49.25.72.52.69.8s-.35.59-1,.9l3.08,1.54h.07c1.16-.57,1.76-1.19,1.82-1.89s-.42-1.37-1.43-2l2-1Z"/><path fill="#ffcc4d" d="M376.57,230.46l24.94-6.73c1.42-.48,3.49.56,4.9,2.46l21.77,30.15Z"/><polygon fill="#ffcc4d" points="376.62 230.49 376.57 265.74 428.14 291.59 428.19 256.34 376.62 230.49"/><path fill="#f9c050" d="M376.62,230.49l-.05,35.25,51.57,25.85,0-35.25Zm2.6,5.43L396,258.57l-16.84,4.52Zm2.48,29.79,16.36-4.39,3.28,4.43a2.15,2.15,0,0,0,2.08,1l3.3-1.14L423,286.44Zm43.85,20.63L408.74,265l16.86-5.8Z"/><path fill="#fff" d="M411.32,244.54a18.66,18.66,0,0,0-7.89-7.18q-5.18-2.58-8.33-.75t-3.4,7.4a18.32,18.32,0,0,0,2.63,10.39,19.33,19.33,0,0,0,8.12,7.38,14.55,14.55,0,0,0,2.7,1,8.42,8.42,0,0,0,1.46.28c.48,0,.73-.37.6-.94a2,2,0,0,0-1.34-1.41c-.32-.06-.66-.14-1-.24a14,14,0,0,1-2.33-.9,14.37,14.37,0,0,1-6.24-5.85,15.2,15.2,0,0,1-1.95-8.43q.19-4.66,2.61-6.3c1.61-1.08,3.75-1,6.44.39a14.2,14.2,0,0,1,6.28,5.77,15.27,15.27,0,0,1,1.82,8.25,4.94,4.94,0,0,1-1,3.16,1.9,1.9,0,0,1-2.45.22,1.69,1.69,0,0,1-.76-.85,3.8,3.8,0,0,1-.19-1.82l.6-6.41a2.47,2.47,0,0,0-.74-1.77c-.44-.47-.95-1-1.26-1.27a12.39,12.39,0,0,0-2.48-1.59,3.35,3.35,0,0,0-3.83.13q-1.57,1.25-1.91,4.46a8.25,8.25,0,0,0,.9,4.88,6.67,6.67,0,0,0,3,2.85,3.36,3.36,0,0,0,1.74.33,2.07,2.07,0,0,0,1.46-.91,5.79,5.79,0,0,0,1.08,2.18,5.11,5.11,0,0,0,1.8,1.48q3.15,1.59,4.73.27a5.39,5.39,0,0,0,1.71-4.15A17.89,17.89,0,0,0,411.32,244.54Zm-7,8.25a.25.25,0,0,0,0,.08V253a1.46,1.46,0,0,1-1.09.74,2.62,2.62,0,0,1-1.35-.33,2.48,2.48,0,0,1-1.23-1.49,6.66,6.66,0,0,1-.25-2.68,6.31,6.31,0,0,1,1-3.38c.51-.6,1.26-.65,2.25-.16a5,5,0,0,1,.63.38,6,6,0,0,1,.62.45Z"/><path fill="#346ee3" d="M393.4,280.9c0,8.91-7.22,12.52-16.13,8.07s-16.14-15.3-16.14-24.21,7.22-12.52,16.14-8.07S393.4,272,393.4,280.9Z"/><path fill="#fff" d="M375.49,269.9a2.31,2.31,0,0,0,1-2.21v-1a6,6,0,0,0-1-3.28,7.07,7.07,0,0,0-2.8-2.51,3,3,0,0,0-2.81-.28,2.31,2.31,0,0,0-1.05,2.21v1a5.88,5.88,0,0,0,1.06,3.25,7,7,0,0,0,2.82,2.52A3,3,0,0,0,375.49,269.9Zm-4.8-5.13v-1a1.67,1.67,0,0,1,.51-1.37c.35-.28.84-.25,1.48.07a3.29,3.29,0,0,1,1.46,1.4,3.79,3.79,0,0,1,.52,1.88v1a1.63,1.63,0,0,1-.51,1.36c-.34.26-.82.24-1.45-.08a3.42,3.42,0,0,1-1.49-1.4A3.83,3.83,0,0,1,370.69,264.77Z"/><polygon fill="#fff" points="381.07 267.19 371.96 277.21 373.36 278.77 382.46 268.75 381.07 267.19"/><path fill="#fff" d="M384.51,278.45a7.06,7.06,0,0,0-2.8-2.51,3,3,0,0,0-2.81-.29,2.3,2.3,0,0,0-1,2.21v1a5.89,5.89,0,0,0,1.06,3.26,7,7,0,0,0,2.82,2.52,3,3,0,0,0,2.78.29,2.31,2.31,0,0,0,1.05-2.22v-1A6,6,0,0,0,384.51,278.45Zm-.82,3.33a1.63,1.63,0,0,1-.51,1.36c-.34.27-.82.25-1.45-.06a3.5,3.5,0,0,1-1.49-1.41,3.74,3.74,0,0,1-.52-1.88v-1a1.6,1.6,0,0,1,.52-1.35,1.35,1.35,0,0,1,1.47.06,3.46,3.46,0,0,1,1.46,1.4,3.79,3.79,0,0,1,.52,1.88Z"/><ellipse cx="268.49" cy="122.62" fill="#ffcc4d" rx="14.77" ry="24.23" transform="rotate(-37.98 268.5 122.624)"/><path fill="#fff" d="M255.89,120.13v-1.71l2.76-3a3.42,3.42,0,0,0,1.09-2.55v-.25a1.57,1.57,0,0,0-.91-1.52c-.58-.28-.9-.13-.9.85v.75l-2-1.51v-.58c0-1.83,1.12-2.35,3-1.43a5,5,0,0,1,3,4.36V114a4.43,4.43,0,0,1-1.56,3.32l-1.92,2.07,3.48,1.73v2Z"/><path fill="#fff" d="M268.38,123.84l-.47-.23v2.53l-2.12-1.06v-2.53l-3.87-1.94V119l3.93-6.07,2.06,1v7.76l.87.43ZM265.79,117l-1.72,2.76,1.72.87Z"/><path fill="#fff" d="M269.37,132.74l-1.79-.9,4.48-11.73,1.78.89Z"/><path fill="#fff" d="M275.72,137.8l-2.17-1.08,3.44-8.47-3.61-1.8-.19-2.14,6,3v1.76Z"/><path fill="#9dc9fc" d="M110.84,309.71l3.67-23.23H82l3.66,23.23c.17,1.08,1.54,2.13,4,2.92a32.82,32.82,0,0,0,17.15,0C109.31,311.84,110.67,310.79,110.84,309.71Z"/><path fill="#f3f3fa" d="M110.34,281.18c6.15,3,5.37,7.51-1.13,10.11-6.18,2.46-15.74,2.46-21.91,0-6.51-2.6-7.29-7.11-1.13-10.11C92.68,278,103.82,278,110.34,281.18Z"/><path fill="#9dc9fc" d="M108.56,281.87c5.33,2.42,4.78,6.13-.79,8.29a30.07,30.07,0,0,1-19,0c-5.58-2.16-6.13-5.87-.8-8.29C93.53,279.33,103,279.33,108.56,281.87Z"/><path fill="#224dab" d="M108.1,286.63c-5.34-2.31-14.36-2.31-19.7,0a8.06,8.06,0,0,0-2.73,1.79,10.52,10.52,0,0,0,3.07,1.74,30.07,30.07,0,0,0,19,0,10.52,10.52,0,0,0,3.07-1.74A8,8,0,0,0,108.1,286.63Z"/><path fill="#295cc2" d="M98.42,288.21c-8.88-30.94,6.16-62.63,31.14-67.72a2.49,2.49,0,0,1,3,2.07c.91,6.56,2.38,24.85-6.54,40.64a80.56,80.56,0,0,1-23.81,26.4A2.48,2.48,0,0,1,98.42,288.21Z"/><path fill="#9dc9fc" d="M128.84,224.22l-2,2.28a23,23,0,0,0-2.19,2.71c-.77,1.1-1.73,2.27-2.6,3.69s-1.84,2.92-2.77,4.58-1.88,3.42-2.77,5.29-1.86,3.78-2.68,5.8-1.74,4-2.51,6.11c-1.64,4.11-3.06,8.3-4.34,12.25s-2.36,7.66-3.24,10.86c-1.75,6.41-2.67,10.73-2.67,10.73a.51.51,0,0,1-.61.39.5.5,0,0,1-.39-.6h0s1-4.34,2.78-10.76c.91-3.2,2-6.92,3.34-10.87s2.78-8.15,4.46-12.26c.79-2.08,1.7-4.1,2.57-6.11s1.86-3.92,2.74-5.81,1.94-3.61,2.84-5.29,2-3.16,2.82-4.59,1.87-2.6,2.66-3.71a24.15,24.15,0,0,1,2.22-2.7l2-2.26a.21.21,0,1,1,.32.28Z"/><path fill="#ffcc4d" d="M96,288.72c11.17-25.8-2.66-55.31-18.39-62.48a2.07,2.07,0,0,0-2.78,1.44c-1.55,5.58-6.68,22.32-1,37.09,5.24,13.59,15,21.15,18.79,24.7A2.1,2.1,0,0,0,96,288.72Z"/><path fill="#fff" d="M78.08,229.35l1.73,2a20.78,20.78,0,0,1,1.92,2.33L84,236.87l2.26,4c.74,1.47,1.42,3.06,2.18,4.69s1.31,3.41,1.94,5.18,1.18,3.61,1.65,5.46,1,3.7,1.37,5.55.77,3.65,1.07,5.42c.64,3.53,1,6.86,1.37,9.71.59,5.71.66,9.55.66,9.55a.45.45,0,0,1-.89,0h0s0-3.8-.56-9.48c-.3-2.84-.67-6.15-1.28-9.67-.27-1.76-.62-3.57-1-5.4s-.85-3.68-1.3-5.53-1.07-3.65-1.59-5.45-1.26-3.49-1.89-5.16-1.4-3.21-2.11-4.68-1.53-2.79-2.21-4l-2.18-3.2a21.85,21.85,0,0,0-1.89-2.34l-1.72-2a.17.17,0,0,1,0-.23A.16.16,0,0,1,78.08,229.35Z"/><path fill="#346ee3" d="M93.5,250.54a1.3,1.3,0,0,0-1.73.82C90.69,254.74,85.9,265,89,274.18a43.29,43.29,0,0,0,9.72,16.2,1.28,1.28,0,0,0,2.07-.38C108.21,274.45,105.81,255.57,93.5,250.54Z"/><path fill="#9dc9fc" d="M93.08,252.19s.32,2.37.88,5.91,1.38,8.26,2.26,13c1.75,9.41,3.72,18.78,3.72,18.78a.27.27,0,0,1-.21.32.27.27,0,0,1-.32-.21h0s-1.89-9.39-3.55-18.82c-.84-4.72-1.62-9.44-2.15-13s-.83-5.93-.83-5.93a.1.1,0,0,1,.08-.11A.1.1,0,0,1,93.08,252.19Z"/></g></svg>