<svg xmlns="http://www.w3.org/2000/svg" viewBox="0 0 1080 1080"><g data-name="No notifications"><path fill="#e65c39" d="M390.64 137.8a49 49 0 0 0-97.85 3.11H311a30.73 30.73 0 0 1 32.72-30.69 31.09 31.09 0 0 1 28.7 28.71 30.73 30.73 0 0 1-17.2 29.62c-13.72 6.7-22.59 21.25-22.59 37.06v10.74h18.23v-10.74c0-8.9 4.85-17 12.36-20.68a48.92 48.92 0 0 0 27.42-47.13ZM341.76 235.86a13.38 13.38 0 1 0 13.38 13.37 13.37 13.37 0 0 0-13.38-13.37Z"/><path fill="#e65c39" d="M465.11 317.7a2 2 0 0 1-1.19-.39l-43.29-32.13H240.86a24.49 24.49 0 0 1-24.47-24.47V90.49A24.5 24.5 0 0 1 240.86 66h23.52a2 2 0 0 1 0 4h-23.52a20.5 20.5 0 0 0-20.47 20.47v170.24a20.5 20.5 0 0 0 20.47 20.47h180.43a2 2 0 0 1 1.2.4l40.62 30.15V90.49A20.5 20.5 0 0 0 442.66 70H289.72a2 2 0 0 1 0-4h152.94a24.49 24.49 0 0 1 24.47 24.47v225.21a2 2 0 0 1-1.1 1.79 2 2 0 0 1-.92.23Z"/><path fill="#59c5d0" d="M608.82 302.23a53.15 53.15 0 1 0 65.7-36.51 53.14 53.14 0 0 0-65.7 36.51Zm25.1 7.17a27 27 0 1 1 18.57 33.43 27 27 0 0 1-18.57-33.43Z"/><path fill="#ffc804" d="M557.52 947.74c125.45 28.32 239 33.54 251.35-9.78 21-73.55-54.57-131-32.36-250.05 26.72-143.26 34.93-267.39-67.51-327.39-25.25-14.82-57-25.07-85.3-29.69C480.49 307 417.79 433.27 364.34 570.14 320.29 683 225.78 691.8 204.76 765.35c-12.37 43.32 86.77 98.86 208.24 141.1Z"/><path fill="#5e1776" d="M228.93 776.5c-9.87 34.5 169.58 111.1 347.86 151.2 114.48 25.77 201.58 30.1 208 7.63C794 903.25 637.9 833.69 468.66 791.67 338.91 759.36 235.92 752 228.93 776.5Z"/><path fill="#59c5d0" d="M419.76 848.49A89.51 89.51 0 1 0 580.65 824c-35.79-11.8-74.79-23.06-112-32.29a89.21 89.21 0 0 0-48.89 56.78Z"/><path fill="#e65c39" d="M767.7 585.04h35.43v192.08H767.7z" transform="rotate(135 785.414 681.077)"/><path fill="#e65c39" d="M767.7 585.04h35.43v192.08H767.7z" transform="rotate(45 785.417 681.08)"/><path fill="#ffc804" d="M968.83 898a32.41 32.41 0 1 1 32.41-32.41A32.44 32.44 0 0 1 968.83 898Zm0-60.81a28.41 28.41 0 1 0 28.41 28.4 28.44 28.44 0 0 0-28.41-28.45ZM257.06 1014a2 2 0 0 1-1.41-3.42l52.65-52.65a2 2 0 0 1 2.83 2.83l-52.65 52.65a2 2 0 0 1-1.42.59Z"/><path fill="#ffc804" d="M309.71 1014a2 2 0 0 1-1.41-.59l-52.65-52.65a2 2 0 0 1 2.83-2.83l52.65 52.65a2 2 0 0 1-1.42 3.42ZM729.12 178.05h-72.43a2 2 0 0 1-1.73-3l36.21-62.73a2 2 0 0 1 3.47 0l36.21 62.73a2 2 0 0 1-1.73 3Zm-69-4h65.51l-32.73-56.73Z"/><path fill="#59c5d0" d="M119.52 591.84a2 2 0 0 1-1.91-1.39l-16.86-52.62a2 2 0 0 1 3.81-1.22l16.25 50.72 161.89-51.87-37.53-117.14-161.89 51.87 13.84 43.18a2 2 0 1 1-3.81 1.22L78.86 469.5A2 2 0 0 1 79 468a2 2 0 0 1 1.17-1l165.7-53.09a2 2 0 0 1 1.52.12 2 2 0 0 1 1 1.17l38.75 121a2 2 0 0 1-1.29 2.52l-165.7 53.09a2.2 2.2 0 0 1-.63.03Z"/><path fill="#59c5d0" d="M182 524.62a25 25 0 0 1-12.31-3.23l-89.91-50.75a2 2 0 1 1 2-3.48l89.89 50.75A21 21 0 0 0 201 508.5l43.65-93.5a2 2 0 0 1 3.63 1.69l-43.66 93.51A25 25 0 0 1 182 524.62Z"/><path fill="#59c5d0" d="M285.21 538.75a2 2 0 0 1-1-.26L208.89 496a2 2 0 1 1 2-3.48L286.2 535a2 2 0 0 1-1 3.74ZM119.51 591.84a1.94 1.94 0 0 1-.84-.19 2 2 0 0 1-1-2.65l36.59-78.41a2 2 0 1 1 3.63 1.69l-36.59 78.41a2 2 0 0 1-1.79 1.15Z"/><path fill="#e65c39" d="M809.71 361.7a2 2 0 0 1-1.7-3.05l45.78-74.84a2 2 0 0 1 3.41 2.09l-45.78 74.84a2 2 0 0 1-1.71.96ZM852.74 407a2 2 0 0 1-1-3.76l77.07-41.93a2 2 0 0 1 1.91 3.52l-77.07 41.92a1.93 1.93 0 0 1-.91.25ZM955.07 469.89H955l-97.45-2.48a2 2 0 1 1 .1-4l97.45 2.47a2 2 0 0 1 0 4Z"/></g></svg>